<?xml version="1.0" encoding="utf-8" standalone="no"?>
<!DOCTYPE svg PUBLIC "-//W3C//DTD SVG 1.1//EN"
  "http://www.w3.org/Graphics/SVG/1.1/DTD/svg11.dtd">
<!-- Created with matplotlib (http://matplotlib.sourceforge.net/) -->
<svg height="1152pt" version="1.1" viewBox="0 0 576 1152" width="576pt" xmlns="http://www.w3.org/2000/svg" xmlns:xlink="http://www.w3.org/1999/xlink">
 <defs>
  <style type="text/css">
*{stroke-linecap:square;stroke-linejoin:round;}
  </style>
 </defs>
 <g id="figure_1">
  <g id="patch_1">
   <path d="
M0 1152
L576 1152
L576 0
L0 0
z
" style="fill:#ffffff;"/>
  </g>
  <g id="axes_1">
   <g id="patch_2">
    <path d="
M72 521.018
L518.4 521.018
L518.4 115.2
L72 115.2
z
" style="fill:#ffffff;"/>
   </g>
   <g id="line2d_1">
    <path clip-path="url(#pb66a00e9ed)" d="
M85.9149 378.492
L86.8332 382.235
L87.0373 380.645
L87.5985 380.721
L88.3255 378.388
L89.2693 379.904
L89.6392 380.278
L90.1876 382.848
L90.8891 378.017
L91.6926 382.335
L92.1773 379.25
L92.5982 378.773
L93.1976 381.604
L94.2817 378.761
L95.0215 380.642
L95.0342 381.889
L95.876 377.771
L96.9219 382.505
L97.2407 379.028
L97.2662 379.655
L98.2483 380.106
L99.3324 380.106
L99.7278 379.123
L100.748 380.642
L101.564 379.758
L102.1 380.022
L102.457 380.022
L103.401 379.395
L104.077 380.998
L104.676 377.877
L105.021 380.645
L105.671 380.645
L106.156 380.019
L106.972 380.019
L107.891 379.652
L107.903 378.014
L108.592 382.232
L109.421 378.4
L110.441 380.278
L110.467 380.125
L111.041 379.025
L112.712 380.35
L112.75 378.014
L112.801 379.643
L114.663 380.153
L114.676 380.904
L115.326 379.386
L115.352 380.278
L116.219 379.395
L117.112 380.904
L117.966 380.904
L118.693 381.267
L119.255 380.645
L119.943 379.278
L120.441 380.281
L121.589 380.278
L122.507 381.518
L123.068 380.278
L124.331 381.531
L124.344 378.647
L124.981 381.264
L125.798 380.278
L126.984 380.278
L127.532 379.655
L128.157 380.645
L128.183 380.278
L130.019 380.019
L130.032 381.267
L130.491 380.645
L130.772 380.645
L131.295 380.019
L132.417 379.136
L132.953 381.617
L133.399 379.758
L134.266 380.378
L134.534 380.378
L135.363 380.022
L136.218 380.998
L136.243 382.852
L137.111 381.956
L137.94 379.754
L139.1 379.758
L139.139 377.253
L139.789 378.144
L140.529 380.642
L141.473 380.645
L141.485 382.232
L141.83 380.103
L142.786 379.21
L143.488 377.974
L143.501 379.213
L144.585 380.724
L145.299 380.724
L146.051 379.754
L146.064 381.337
L147.072 382.839
L147.518 380.01
L148.424 377.889
L149.214 379.817
L150.133 379.745
L150.796 380.366
L151.421 380.378
L151.791 381.239
L152.378 380.375
L153.207 379.754
L154.354 380.378
L154.992 381.264
L155.681 380.378
L156.586 379.754
L156.612 380.375
L157.237 380.375
L158.142 381.617
L159.278 381.264
L159.303 380.998
L160.03 379.37
L160.502 381.264
L161.42 381.255
L162.007 380.642
L162.198 380.633
L163.295 379.398
L163.869 378.144
L164.66 381.255
L165.463 381.34
L166.292 382.852
L167.249 380.642
L167.313 378.77
L167.963 378.77
L168.882 381.264
L169.711 380.019
L169.723 380.986
L170.374 380.378
L171.318 382.725
L172.198 376.499
L172.223 380.019
L172.963 379.086
L174.379 378.77
L174.404 384.975
L174.43 381.264
L175.603 380.642
L176.317 379.398
L177.299 377.265
L177.325 379.398
L177.554 380.281
L178.996 382.155
L180.552 380.645
L180.564 378.77
L181.202 378.51
L181.853 378.51
L182.095 379.136
L182.516 380.642
L183.179 382.232
L183.995 379.398
L184.799 380.998
L184.824 381.328
L186.266 380.995
L186.431 381.255
L187.311 380.281
L187.324 380.645
L188.051 379.025
L189.748 380.633
L189.76 380.269
L190.487 379.386
L191.571 381.889
L192.362 380.645
L192.923 381.267
L194.747 380.642
L194.773 381.264
L195.066 380.642
L195.359 381.614
L196.163 380.633
L197.528 380.022
L197.566 381.264
L198.025 381.255
L198.612 380.995
L199.415 380.019
L200.091 380.375
L200.78 380.998
L201.316 381.876
L202.221 380.642
L203.433 381.264
L203.471 380.633
L203.509 382.48
L205.231 384.35
L205.27 383.716
L206.252 381.885
L207.093 382.839
L207.54 381.255
L207.91 381.614
L208.777 382.848
L209.147 381.885
L209.95 380.633
L210.843 382.839
L211.583 381.876
L212.412 382.48
L212.986 382.48
L213.751 383.454
L214.159 380.995
L214.886 380.375
L215.511 380.995
L215.741 380.995
L216.57 382.232
L217.386 380.995
L218.815 380.986
L218.827 381.255
L220.167 380.878
L221.914 381.876
L221.952 380.633
L222.577 379.745
L222.934 380.986
L223.534 380.633
L223.814 380.633
L224.631 380.253
L225.498 381.885
L225.842 380.633
L226.161 380.633
L226.977 381.239
L228.342 381.604
L229.044 382.222
L229.49 380.633
L230.217 381.604
L231.11 380.986
L231.837 380.633
L232.64 381.943
L233.865 380.35
L233.89 380.986
L234.273 380.711
L235.293 379.745
L237.436 380.711
L237.474 381.337
L239.119 380.711
L240.114 381.046
L240.828 379.475
L241.351 380.711
L241.734 381.328
L242.385 380.711
L243.469 380.094
L244.004 380.094
L246.836 380.986
L246.861 380.094
L246.861 380.094
L246.861 380.094
L246.874 381.328
L247.882 380.094
L248.341 381.659
L249.769 379.475
L249.833 381.643
L251.21 382.254
L252.371 379.46
L252.384 381.03
L252.397 380.696
L253.315 380.986
L253.8 380.633
L254.067 380.986
L254.756 381.255
L255.611 381.876
L256.172 381.604
L257.014 381.876
L257.052 379.108
L258.162 380.986
L258.863 380.642
L259.309 380.986
L259.424 381.885
L260.215 380.633
L261.044 380.986
L262.141 380.366
L262.702 382.206
L263.48 381.837
L264.59 380.986
L264.615 381.588
L265.087 379.123
L265.942 380.35
L267.306 381.614
L267.319 380.366
L267.727 381.614
L268.442 379.745
L269.207 381.328
L269.653 380.094
L270.329 379.475
L270.992 381.943
L271.592 380.35
L272.612 381.328
L272.625 381.943
L274.002 379.745
L275.189 380.711
L275.227 380.094
L275.813 381.328
L277.051 380.711
L277.382 380.711
L278.058 379.438
L278.938 380.696
L281.362 380.721
L281.374 381.953
L283.772 380.094
L283.785 380.721
L283.798 380.094
L283.798 380.094
L283.81 379.745
L284.741 380.721
L284.856 380.094
L285.583 379.754
L286.604 382.557
L286.986 379.475
L287.535 381.328
L288.121 381.943
L289.588 379.994
L290.162 380.633
L290.188 381.255
L291.17 381.264
L291.897 380.995
L292.687 380.995
L292.726 380.366
L294.154 380.366
L294.282 381.588
L295.557 381.255
L295.595 380.986
L296.004 381.264
L299.46 382.232
L299.473 380.019
L299.524 380.986
L301.207 380.986
L301.22 381.604
L301.705 380.986
L302.483 381.953
L303.375 380.986
L303.388 379.745
L304 380.094
L305.378 381.328
L305.633 380.375
L306.437 380.721
L308.069 380.721
L308.082 381.328
L309.013 382.27
L309.714 378.856
L310.671 378.583
L310.709 380.094
L311.551 380.441
L312.712 381.943
L313.145 381.604
L313.158 381.328
L313.732 380.711
L315.543 379.475
L316.168 380.103
L316.181 380.441
L317.635 380.721
L318.936 381.328
L318.961 380.078
L319.548 381.328
L320.364 379.826
L321.295 381.328
L321.308 381.643
L322.265 381.03
L322.992 381.659
L323.463 381.328
L323.476 380.094
L324.267 380.375
L325.185 382.496
L325.9 380.907
L325.925 381.264
L327.098 380.645
L327.66 379.754
L328.654 380.986
L328.667 380.375
L329.318 380.366
L331.129 381.876
L331.154 380.019
L331.167 381.255
L331.716 382.222
L332.953 380.986
L333.412 381.588
L334.19 380.986
L335.006 380.995
L335.644 379.485
L336.307 380.103
L336.447 381.604
L337.544 380.904
L338.105 383.743
L339.355 380.986
L339.381 381.604
L339.853 381.943
L340.962 380.103
L341.511 380.103
L341.536 380.711
L342.608 380.721
L343.386 380.998
L343.794 382.852
L344.33 381.617
L345.72 380.998
L345.732 380.724
L346.702 380.375
L346.715 380.721
L347.097 381.34
L348.067 380.103
L348.806 381.943
L349.1 380.721
L349.674 381.614
L350.694 381.337
L351.332 379.485
L353.206 380.103
L353.258 380.711
L353.78 381.614
L354.456 381.337
L354.469 382.232
L355.171 380.378
L356.765 381.614
L356.778 380.995
L357.517 380.986
L358.372 380.721
L359.788 381.337
L359.813 380.721
L360.005 380.103
L361.548 381.885
L362.186 381.264
L362.377 380.642
L363.793 380.642
L364.379 381.617
L364.507 381.264
L367.44 381.255
L368.499 381.614
L369.251 379.745
L369.736 381.614
L369.749 380.995
L370.501 381.86
L371.343 381.614
L372.784 380.995
L372.797 381.614
L373.256 381.264
L373.919 381.537
L374.748 377.886
L374.761 380.366
L375.667 378.865
L376.942 382.891
L376.955 382.222
L377.656 381.337
L377.861 381.588
L378.6 380.986
L379.442 380.711
L380.501 380.711
L380.539 379.817
L381.495 378.868
L382.248 381.328
L382.898 380.721
L382.911 381.614
L383.472 381.337
L384.276 379.133
L385.934 380.721
L385.947 381.956
L385.972 381.953
L386.827 379.485
L387.516 380.103
L387.732 380.103
L388.651 380.366
L389.543 380.995
L389.952 379.754
L390.462 380.103
L391.163 381.055
L391.865 377.674
L393.536 379.148
L393.574 381.927
L394.543 385.277
L395.321 384.35
L395.334 383.454
L396.469 377.517
L397.26 380.986
L397.91 379.133
L398.267 381.264
L399.045 381.264
L399.683 382.155
L401.418 381.531
L402.196 381.889
L403.293 381.267
L404.67 381.267
L404.721 381.518
L405.882 381.885
L405.92 381.264
L406.481 381.264
L407.348 381.889
L407.935 381.267
L409.568 381.267
L409.58 382.232
L410.499 380.022
L410.818 380.998
L411.545 382.235
L412.106 380.378
L412.922 381.614
L414.07 380.998
L416.685 380.998
L416.71 381.617
L417.616 380.022
L418.572 381.614
L418.598 380.998
L419.146 379.758
L420.103 381.617
L421.748 380.378
L421.774 381.267
L422.526 381.889
L423.189 380.378
L425.944 380.378
L425.97 379.754
L425.97 379.754
L425.97 379.754
L425.982 381.264
L425.995 380.998
L426.697 381.617
L427.577 380.998
L428.661 381.889
L428.75 381.617
L429.35 383.399
L429.834 381.531
L430.587 382.151
L431.9 382.155
L432.347 380.904
L433.24 381.531
L434.528 381.264
L434.566 381.531
L435.37 382.155
L436.492 382.155
L437.334 382.509
L438.801 380.022
L439.017 381.267
L439.451 381.614
L442.652 380.022
L442.691 381.885
L442.703 380.642
L443.481 381.617
L444.565 380.022
L445.101 381.267
L447.116 381.267
L447.55 380.645
L448.481 381.267
L449.144 381.889
L449.948 379.398
L451.147 381.267
L451.58 380.998
L451.886 381.267
L453.162 381.267
L453.2 380.019
L454.118 381.264
L454.437 381.264
L455.037 381.885
L455.636 380.645
L458.251 380.375
L458.289 381.885
L458.876 381.264
L459.577 381.267
L459.718 380.022
L460.891 381.267
L461.299 381.889
L462.396 382.155
L462.434 381.889
L463.187 380.642
L464.118 378.773
L464.551 381.889
L464.781 380.645
L465.712 380.278
L466.452 380.645
L468.161 380.645
L468.62 381.267
L469.857 380.645
L470.444 380.281
L472.421 381.267
L473.186 381.264
L475.342 380.645
L475.367 379.758
L475.393 380.645
L476.719 380.645
L477.841 380.022
L477.867 380.645
L478.339 381.885
L479.283 380.645
L480.494 383.128
L480.52 381.889
L481.03 379.398
L481.884 380.998
L482.726 380.378
L483.198 380.378
L484.014 380.998
L485.022 379.758
L485.29 380.378
L485.66 380.378
L486.757 380.995
L487.535 382.505
L487.943 381.885
L488.07 382.496
L491.259 379.68
L491.272 380.995
L491.297 380.019
L491.297 380.019
L491.323 378.373
L492.266 381.239
L493.108 381.255
L493.147 380.019
L493.886 381.604
L495.034 381.255
L495.366 380.281
L495.748 381.264
L497.139 381.267
L497.827 380.642
L498.21 381.267
L498.669 381.528
L499.638 381.885
L500.225 380.907
L500.761 380.642
L501.539 379.395
L501.896 380.019
L502.763 380.907
L503.363 380.278
L503.733 378.388
L504.396 381.528
L505.888 380.907
L505.914 381.528
L506.921 380.535
L507.584 379.643
L508.477 379.025
L508.503 379.655
L509.574 382.206
L510.48 380.278
L511.398 381.267
L511.423 380.642
L511.627 379.652
L512.661 379.652
L512.661 379.652" style="fill:none;stroke:#0000ff;"/>
   </g>
   <g id="matplotlib.axis_1">
    <g id="xtick_1">
     <g id="line2d_2">
      <defs>
       <path d="
M0 0
L0 -4" id="mbd8d9bc99d"/>
      </defs>
      <g>
       <use style="stroke:#000000;stroke-linecap:butt;stroke-width:0.5;" x="72.0" xlink:href="#mbd8d9bc99d" y="521.018181818"/>
      </g>
     </g>
     <g id="line2d_3">
      <defs>
       <path d="
M0 0
L0 4" id="m6acc20edcf"/>
      </defs>
      <g>
       <use style="stroke:#000000;stroke-linecap:butt;stroke-width:0.5;" x="72.0" xlink:href="#m6acc20edcf" y="115.2"/>
      </g>
     </g>
     <g id="text_1">
      <!-- 5 -->
      <defs>
       <path d="
M10.7969 72.9062
L49.5156 72.9062
L49.5156 64.5938
L19.8281 64.5938
L19.8281 46.7344
Q21.9688 47.4688 24.1094 47.8281
Q26.2656 48.1875 28.4219 48.1875
Q40.625 48.1875 47.75 41.5
Q54.8906 34.8125 54.8906 23.3906
Q54.8906 11.625 47.5625 5.09375
Q40.2344 -1.42188 26.9062 -1.42188
Q22.3125 -1.42188 17.5469 -0.640625
Q12.7969 0.140625 7.71875 1.70312
L7.71875 11.625
Q12.1094 9.23438 16.7969 8.0625
Q21.4844 6.89062 26.7031 6.89062
Q35.1562 6.89062 40.0781 11.3281
Q45.0156 15.7656 45.0156 23.3906
Q45.0156 31 40.0781 35.4375
Q35.1562 39.8906 26.7031 39.8906
Q22.75 39.8906 18.8125 39.0156
Q14.8906 38.1406 10.7969 36.2812
z
" id="BitstreamVeraSans-Roman-35"/>
      </defs>
      <g transform="translate(69.64140625 532.308806818)scale(0.1 -0.1)">
       <use xlink:href="#BitstreamVeraSans-Roman-35"/>
      </g>
     </g>
    </g>
    <g id="xtick_2">
     <g id="line2d_4">
      <defs>
       <path d="
M0 0
L0 -4" id="mbd8d9bc99d"/>
      </defs>
      <g>
       <use style="stroke:#000000;stroke-linecap:butt;stroke-width:0.5;" x="135.771428571" xlink:href="#mbd8d9bc99d" y="521.018181818"/>
      </g>
     </g>
     <g id="line2d_5">
      <defs>
       <path d="
M0 0
L0 4" id="m6acc20edcf"/>
      </defs>
      <g>
       <use style="stroke:#000000;stroke-linecap:butt;stroke-width:0.5;" x="135.771428571" xlink:href="#m6acc20edcf" y="115.2"/>
      </g>
     </g>
     <g id="text_2">
      <!-- 10 -->
      <defs>
       <path d="
M31.7812 66.4062
Q24.1719 66.4062 20.3281 58.9062
Q16.5 51.4219 16.5 36.375
Q16.5 21.3906 20.3281 13.8906
Q24.1719 6.39062 31.7812 6.39062
Q39.4531 6.39062 43.2812 13.8906
Q47.125 21.3906 47.125 36.375
Q47.125 51.4219 43.2812 58.9062
Q39.4531 66.4062 31.7812 66.4062
M31.7812 74.2188
Q44.0469 74.2188 50.5156 64.5156
Q56.9844 54.8281 56.9844 36.375
Q56.9844 17.9688 50.5156 8.26562
Q44.0469 -1.42188 31.7812 -1.42188
Q19.5312 -1.42188 13.0625 8.26562
Q6.59375 17.9688 6.59375 36.375
Q6.59375 54.8281 13.0625 64.5156
Q19.5312 74.2188 31.7812 74.2188" id="BitstreamVeraSans-Roman-30"/>
       <path d="
M12.4062 8.29688
L28.5156 8.29688
L28.5156 63.9219
L10.9844 60.4062
L10.9844 69.3906
L28.4219 72.9062
L38.2812 72.9062
L38.2812 8.29688
L54.3906 8.29688
L54.3906 0
L12.4062 0
z
" id="BitstreamVeraSans-Roman-31"/>
      </defs>
      <g transform="translate(130.290178571 532.440056818)scale(0.1 -0.1)">
       <use xlink:href="#BitstreamVeraSans-Roman-31"/>
       <use x="63.623046875" xlink:href="#BitstreamVeraSans-Roman-30"/>
      </g>
     </g>
    </g>
    <g id="xtick_3">
     <g id="line2d_6">
      <defs>
       <path d="
M0 0
L0 -4" id="mbd8d9bc99d"/>
      </defs>
      <g>
       <use style="stroke:#000000;stroke-linecap:butt;stroke-width:0.5;" x="199.542857143" xlink:href="#mbd8d9bc99d" y="521.018181818"/>
      </g>
     </g>
     <g id="line2d_7">
      <defs>
       <path d="
M0 0
L0 4" id="m6acc20edcf"/>
      </defs>
      <g>
       <use style="stroke:#000000;stroke-linecap:butt;stroke-width:0.5;" x="199.542857143" xlink:href="#m6acc20edcf" y="115.2"/>
      </g>
     </g>
     <g id="text_3">
      <!-- 15 -->
      <g transform="translate(194.166294643 532.308806818)scale(0.1 -0.1)">
       <use xlink:href="#BitstreamVeraSans-Roman-31"/>
       <use x="63.623046875" xlink:href="#BitstreamVeraSans-Roman-35"/>
      </g>
     </g>
    </g>
    <g id="xtick_4">
     <g id="line2d_8">
      <defs>
       <path d="
M0 0
L0 -4" id="mbd8d9bc99d"/>
      </defs>
      <g>
       <use style="stroke:#000000;stroke-linecap:butt;stroke-width:0.5;" x="263.314285714" xlink:href="#mbd8d9bc99d" y="521.018181818"/>
      </g>
     </g>
     <g id="line2d_9">
      <defs>
       <path d="
M0 0
L0 4" id="m6acc20edcf"/>
      </defs>
      <g>
       <use style="stroke:#000000;stroke-linecap:butt;stroke-width:0.5;" x="263.314285714" xlink:href="#m6acc20edcf" y="115.2"/>
      </g>
     </g>
     <g id="text_4">
      <!-- 20 -->
      <defs>
       <path d="
M19.1875 8.29688
L53.6094 8.29688
L53.6094 0
L7.32812 0
L7.32812 8.29688
Q12.9375 14.1094 22.625 23.8906
Q32.3281 33.6875 34.8125 36.5312
Q39.5469 41.8438 41.4219 45.5312
Q43.3125 49.2188 43.3125 52.7812
Q43.3125 58.5938 39.2344 62.25
Q35.1562 65.9219 28.6094 65.9219
Q23.9688 65.9219 18.8125 64.3125
Q13.6719 62.7031 7.8125 59.4219
L7.8125 69.3906
Q13.7656 71.7812 18.9375 73
Q24.125 74.2188 28.4219 74.2188
Q39.75 74.2188 46.4844 68.5469
Q53.2188 62.8906 53.2188 53.4219
Q53.2188 48.9219 51.5312 44.8906
Q49.8594 40.875 45.4062 35.4062
Q44.1875 33.9844 37.6406 27.2188
Q31.1094 20.4531 19.1875 8.29688" id="BitstreamVeraSans-Roman-32"/>
      </defs>
      <g transform="translate(257.650223214 532.440056818)scale(0.1 -0.1)">
       <use xlink:href="#BitstreamVeraSans-Roman-32"/>
       <use x="63.623046875" xlink:href="#BitstreamVeraSans-Roman-30"/>
      </g>
     </g>
    </g>
    <g id="xtick_5">
     <g id="line2d_10">
      <defs>
       <path d="
M0 0
L0 -4" id="mbd8d9bc99d"/>
      </defs>
      <g>
       <use style="stroke:#000000;stroke-linecap:butt;stroke-width:0.5;" x="327.085714286" xlink:href="#mbd8d9bc99d" y="521.018181818"/>
      </g>
     </g>
     <g id="line2d_11">
      <defs>
       <path d="
M0 0
L0 4" id="m6acc20edcf"/>
      </defs>
      <g>
       <use style="stroke:#000000;stroke-linecap:butt;stroke-width:0.5;" x="327.085714286" xlink:href="#m6acc20edcf" y="115.2"/>
      </g>
     </g>
     <g id="text_5">
      <!-- 25 -->
      <g transform="translate(321.526339286 532.440056818)scale(0.1 -0.1)">
       <use xlink:href="#BitstreamVeraSans-Roman-32"/>
       <use x="63.623046875" xlink:href="#BitstreamVeraSans-Roman-35"/>
      </g>
     </g>
    </g>
    <g id="xtick_6">
     <g id="line2d_12">
      <defs>
       <path d="
M0 0
L0 -4" id="mbd8d9bc99d"/>
      </defs>
      <g>
       <use style="stroke:#000000;stroke-linecap:butt;stroke-width:0.5;" x="390.857142857" xlink:href="#mbd8d9bc99d" y="521.018181818"/>
      </g>
     </g>
     <g id="line2d_13">
      <defs>
       <path d="
M0 0
L0 4" id="m6acc20edcf"/>
      </defs>
      <g>
       <use style="stroke:#000000;stroke-linecap:butt;stroke-width:0.5;" x="390.857142857" xlink:href="#m6acc20edcf" y="115.2"/>
      </g>
     </g>
     <g id="text_6">
      <!-- 30 -->
      <defs>
       <path d="
M40.5781 39.3125
Q47.6562 37.7969 51.625 33
Q55.6094 28.2188 55.6094 21.1875
Q55.6094 10.4062 48.1875 4.48438
Q40.7656 -1.42188 27.0938 -1.42188
Q22.5156 -1.42188 17.6562 -0.515625
Q12.7969 0.390625 7.625 2.20312
L7.625 11.7188
Q11.7188 9.32812 16.5938 8.10938
Q21.4844 6.89062 26.8125 6.89062
Q36.0781 6.89062 40.9375 10.5469
Q45.7969 14.2031 45.7969 21.1875
Q45.7969 27.6406 41.2812 31.2656
Q36.7656 34.9062 28.7188 34.9062
L20.2188 34.9062
L20.2188 43.0156
L29.1094 43.0156
Q36.375 43.0156 40.2344 45.9219
Q44.0938 48.8281 44.0938 54.2969
Q44.0938 59.9062 40.1094 62.9062
Q36.1406 65.9219 28.7188 65.9219
Q24.6562 65.9219 20.0156 65.0312
Q15.375 64.1562 9.8125 62.3125
L9.8125 71.0938
Q15.4375 72.6562 20.3438 73.4375
Q25.25 74.2188 29.5938 74.2188
Q40.8281 74.2188 47.3594 69.1094
Q53.9062 64.0156 53.9062 55.3281
Q53.9062 49.2656 50.4375 45.0938
Q46.9688 40.9219 40.5781 39.3125" id="BitstreamVeraSans-Roman-33"/>
      </defs>
      <g transform="translate(385.207924107 532.440056818)scale(0.1 -0.1)">
       <use xlink:href="#BitstreamVeraSans-Roman-33"/>
       <use x="63.623046875" xlink:href="#BitstreamVeraSans-Roman-30"/>
      </g>
     </g>
    </g>
    <g id="xtick_7">
     <g id="line2d_14">
      <defs>
       <path d="
M0 0
L0 -4" id="mbd8d9bc99d"/>
      </defs>
      <g>
       <use style="stroke:#000000;stroke-linecap:butt;stroke-width:0.5;" x="454.628571429" xlink:href="#mbd8d9bc99d" y="521.018181818"/>
      </g>
     </g>
     <g id="line2d_15">
      <defs>
       <path d="
M0 0
L0 4" id="m6acc20edcf"/>
      </defs>
      <g>
       <use style="stroke:#000000;stroke-linecap:butt;stroke-width:0.5;" x="454.628571429" xlink:href="#m6acc20edcf" y="115.2"/>
      </g>
     </g>
     <g id="text_7">
      <!-- 35 -->
      <g transform="translate(449.084040179 532.440056818)scale(0.1 -0.1)">
       <use xlink:href="#BitstreamVeraSans-Roman-33"/>
       <use x="63.623046875" xlink:href="#BitstreamVeraSans-Roman-35"/>
      </g>
     </g>
    </g>
    <g id="xtick_8">
     <g id="line2d_16">
      <defs>
       <path d="
M0 0
L0 -4" id="mbd8d9bc99d"/>
      </defs>
      <g>
       <use style="stroke:#000000;stroke-linecap:butt;stroke-width:0.5;" x="518.4" xlink:href="#mbd8d9bc99d" y="521.018181818"/>
      </g>
     </g>
     <g id="line2d_17">
      <defs>
       <path d="
M0 0
L0 4" id="m6acc20edcf"/>
      </defs>
      <g>
       <use style="stroke:#000000;stroke-linecap:butt;stroke-width:0.5;" x="518.4" xlink:href="#m6acc20edcf" y="115.2"/>
      </g>
     </g>
     <g id="text_8">
      <!-- 40 -->
      <defs>
       <path d="
M37.7969 64.3125
L12.8906 25.3906
L37.7969 25.3906
z

M35.2031 72.9062
L47.6094 72.9062
L47.6094 25.3906
L58.0156 25.3906
L58.0156 17.1875
L47.6094 17.1875
L47.6094 0
L37.7969 0
L37.7969 17.1875
L4.89062 17.1875
L4.89062 26.7031
z
" id="BitstreamVeraSans-Roman-34"/>
      </defs>
      <g transform="translate(512.6140625 532.440056818)scale(0.1 -0.1)">
       <use xlink:href="#BitstreamVeraSans-Roman-34"/>
       <use x="63.623046875" xlink:href="#BitstreamVeraSans-Roman-30"/>
      </g>
     </g>
    </g>
    <g id="text_9">
     <!-- time (s) -->
     <defs>
      <path id="BitstreamVeraSans-Roman-20"/>
      <path d="
M8.01562 75.875
L15.8281 75.875
Q23.1406 64.3594 26.7812 53.3125
Q30.4219 42.2812 30.4219 31.3906
Q30.4219 20.4531 26.7812 9.375
Q23.1406 -1.70312 15.8281 -13.1875
L8.01562 -13.1875
Q14.5 -2 17.7031 9.0625
Q20.9062 20.125 20.9062 31.3906
Q20.9062 42.6719 17.7031 53.6562
Q14.5 64.6562 8.01562 75.875" id="BitstreamVeraSans-Roman-29"/>
      <path d="
M52 44.1875
Q55.375 50.25 60.0625 53.125
Q64.75 56 71.0938 56
Q79.6406 56 84.2812 50.0156
Q88.9219 44.0469 88.9219 33.0156
L88.9219 0
L79.8906 0
L79.8906 32.7188
Q79.8906 40.5781 77.0938 44.375
Q74.3125 48.1875 68.6094 48.1875
Q61.625 48.1875 57.5625 43.5469
Q53.5156 38.9219 53.5156 30.9062
L53.5156 0
L44.4844 0
L44.4844 32.7188
Q44.4844 40.625 41.7031 44.4062
Q38.9219 48.1875 33.1094 48.1875
Q26.2188 48.1875 22.1562 43.5312
Q18.1094 38.875 18.1094 30.9062
L18.1094 0
L9.07812 0
L9.07812 54.6875
L18.1094 54.6875
L18.1094 46.1875
Q21.1875 51.2188 25.4844 53.6094
Q29.7812 56 35.6875 56
Q41.6562 56 45.8281 52.9688
Q50 49.9531 52 44.1875" id="BitstreamVeraSans-Roman-6d"/>
      <path d="
M9.42188 54.6875
L18.4062 54.6875
L18.4062 0
L9.42188 0
z

M9.42188 75.9844
L18.4062 75.9844
L18.4062 64.5938
L9.42188 64.5938
z
" id="BitstreamVeraSans-Roman-69"/>
      <path d="
M31 75.875
Q24.4688 64.6562 21.2812 53.6562
Q18.1094 42.6719 18.1094 31.3906
Q18.1094 20.125 21.3125 9.0625
Q24.5156 -2 31 -13.1875
L23.1875 -13.1875
Q15.875 -1.70312 12.2344 9.375
Q8.59375 20.4531 8.59375 31.3906
Q8.59375 42.2812 12.2031 53.3125
Q15.8281 64.3594 23.1875 75.875
z
" id="BitstreamVeraSans-Roman-28"/>
      <path d="
M56.2031 29.5938
L56.2031 25.2031
L14.8906 25.2031
Q15.4844 15.9219 20.4844 11.0625
Q25.4844 6.20312 34.4219 6.20312
Q39.5938 6.20312 44.4531 7.46875
Q49.3125 8.73438 54.1094 11.2812
L54.1094 2.78125
Q49.2656 0.734375 44.1875 -0.34375
Q39.1094 -1.42188 33.8906 -1.42188
Q20.7969 -1.42188 13.1562 6.1875
Q5.51562 13.8125 5.51562 26.8125
Q5.51562 40.2344 12.7656 48.1094
Q20.0156 56 32.3281 56
Q43.3594 56 49.7812 48.8906
Q56.2031 41.7969 56.2031 29.5938
M47.2188 32.2344
Q47.125 39.5938 43.0938 43.9844
Q39.0625 48.3906 32.4219 48.3906
Q24.9062 48.3906 20.3906 44.1406
Q15.875 39.8906 15.1875 32.1719
z
" id="BitstreamVeraSans-Roman-65"/>
      <path d="
M18.3125 70.2188
L18.3125 54.6875
L36.8125 54.6875
L36.8125 47.7031
L18.3125 47.7031
L18.3125 18.0156
Q18.3125 11.3281 20.1406 9.42188
Q21.9688 7.51562 27.5938 7.51562
L36.8125 7.51562
L36.8125 0
L27.5938 0
Q17.1875 0 13.2344 3.875
Q9.28125 7.76562 9.28125 18.0156
L9.28125 47.7031
L2.6875 47.7031
L2.6875 54.6875
L9.28125 54.6875
L9.28125 70.2188
z
" id="BitstreamVeraSans-Roman-74"/>
      <path d="
M44.2812 53.0781
L44.2812 44.5781
Q40.4844 46.5312 36.375 47.5
Q32.2812 48.4844 27.875 48.4844
Q21.1875 48.4844 17.8438 46.4375
Q14.5 44.3906 14.5 40.2812
Q14.5 37.1562 16.8906 35.375
Q19.2812 33.5938 26.5156 31.9844
L29.5938 31.2969
Q39.1562 29.25 43.1875 25.5156
Q47.2188 21.7812 47.2188 15.0938
Q47.2188 7.46875 41.1875 3.01562
Q35.1562 -1.42188 24.6094 -1.42188
Q20.2188 -1.42188 15.4531 -0.5625
Q10.6875 0.296875 5.42188 2
L5.42188 11.2812
Q10.4062 8.6875 15.2344 7.39062
Q20.0625 6.10938 24.8125 6.10938
Q31.1562 6.10938 34.5625 8.28125
Q37.9844 10.4531 37.9844 14.4062
Q37.9844 18.0625 35.5156 20.0156
Q33.0625 21.9688 24.7031 23.7812
L21.5781 24.5156
Q13.2344 26.2656 9.51562 29.9062
Q5.8125 33.5469 5.8125 39.8906
Q5.8125 47.6094 11.2812 51.7969
Q16.75 56 26.8125 56
Q31.7812 56 36.1719 55.2656
Q40.5781 54.5469 44.2812 53.0781" id="BitstreamVeraSans-Roman-73"/>
     </defs>
     <g transform="translate(276.23828125 545.180681818)scale(0.1 -0.1)">
      <use xlink:href="#BitstreamVeraSans-Roman-74"/>
      <use x="39.208984375" xlink:href="#BitstreamVeraSans-Roman-69"/>
      <use x="66.9921875" xlink:href="#BitstreamVeraSans-Roman-6d"/>
      <use x="164.404296875" xlink:href="#BitstreamVeraSans-Roman-65"/>
      <use x="225.927734375" xlink:href="#BitstreamVeraSans-Roman-20"/>
      <use x="257.71484375" xlink:href="#BitstreamVeraSans-Roman-28"/>
      <use x="296.728515625" xlink:href="#BitstreamVeraSans-Roman-73"/>
      <use x="348.828125" xlink:href="#BitstreamVeraSans-Roman-29"/>
     </g>
    </g>
   </g>
   <g id="matplotlib.axis_2">
    <g id="ytick_1">
     <g id="line2d_18">
      <defs>
       <path d="
M0 0
L4 0" id="m90b1029f7d"/>
      </defs>
      <g>
       <use style="stroke:#000000;stroke-linecap:butt;stroke-width:0.5;" x="72.0" xlink:href="#m90b1029f7d" y="521.018181818"/>
      </g>
     </g>
     <g id="line2d_19">
      <defs>
       <path d="
M0 0
L-4 0" id="maae0a9f880"/>
      </defs>
      <g>
       <use style="stroke:#000000;stroke-linecap:butt;stroke-width:0.5;" x="518.4" xlink:href="#maae0a9f880" y="521.018181818"/>
      </g>
     </g>
     <g id="text_10">
      <!-- −1 -->
      <defs>
       <path d="
M10.5938 35.5
L73.1875 35.5
L73.1875 27.2031
L10.5938 27.2031
z
" id="BitstreamVeraSans-Roman-2212"/>
      </defs>
      <g transform="translate(55.240625 524.663494318)scale(0.1 -0.1)">
       <use xlink:href="#BitstreamVeraSans-Roman-2212"/>
       <use x="83.7890625" xlink:href="#BitstreamVeraSans-Roman-31"/>
      </g>
     </g>
    </g>
    <g id="ytick_2">
     <g id="line2d_20">
      <defs>
       <path d="
M0 0
L4 0" id="m90b1029f7d"/>
      </defs>
      <g>
       <use style="stroke:#000000;stroke-linecap:butt;stroke-width:0.5;" x="72.0" xlink:href="#m90b1029f7d" y="453.381818182"/>
      </g>
     </g>
     <g id="line2d_21">
      <defs>
       <path d="
M0 0
L-4 0" id="maae0a9f880"/>
      </defs>
      <g>
       <use style="stroke:#000000;stroke-linecap:butt;stroke-width:0.5;" x="518.4" xlink:href="#maae0a9f880" y="453.381818182"/>
      </g>
     </g>
     <g id="text_11">
      <!-- 0 -->
      <g transform="translate(62.9609375 457.021661932)scale(0.1 -0.1)">
       <use xlink:href="#BitstreamVeraSans-Roman-30"/>
      </g>
     </g>
    </g>
    <g id="ytick_3">
     <g id="line2d_22">
      <defs>
       <path d="
M0 0
L4 0" id="m90b1029f7d"/>
      </defs>
      <g>
       <use style="stroke:#000000;stroke-linecap:butt;stroke-width:0.5;" x="72.0" xlink:href="#m90b1029f7d" y="385.745454545"/>
      </g>
     </g>
     <g id="line2d_23">
      <defs>
       <path d="
M0 0
L-4 0" id="maae0a9f880"/>
      </defs>
      <g>
       <use style="stroke:#000000;stroke-linecap:butt;stroke-width:0.5;" x="518.4" xlink:href="#maae0a9f880" y="385.745454545"/>
      </g>
     </g>
     <g id="text_12">
      <!-- 1 -->
      <g transform="translate(63.659375 389.390767045)scale(0.1 -0.1)">
       <use xlink:href="#BitstreamVeraSans-Roman-31"/>
      </g>
     </g>
    </g>
    <g id="ytick_4">
     <g id="line2d_24">
      <defs>
       <path d="
M0 0
L4 0" id="m90b1029f7d"/>
      </defs>
      <g>
       <use style="stroke:#000000;stroke-linecap:butt;stroke-width:0.5;" x="72.0" xlink:href="#m90b1029f7d" y="318.109090909"/>
      </g>
     </g>
     <g id="line2d_25">
      <defs>
       <path d="
M0 0
L-4 0" id="maae0a9f880"/>
      </defs>
      <g>
       <use style="stroke:#000000;stroke-linecap:butt;stroke-width:0.5;" x="518.4" xlink:href="#maae0a9f880" y="318.109090909"/>
      </g>
     </g>
     <g id="text_13">
      <!-- 2 -->
      <g transform="translate(63.371875 321.820028409)scale(0.1 -0.1)">
       <use xlink:href="#BitstreamVeraSans-Roman-32"/>
      </g>
     </g>
    </g>
    <g id="ytick_5">
     <g id="line2d_26">
      <defs>
       <path d="
M0 0
L4 0" id="m90b1029f7d"/>
      </defs>
      <g>
       <use style="stroke:#000000;stroke-linecap:butt;stroke-width:0.5;" x="72.0" xlink:href="#m90b1029f7d" y="250.472727273"/>
      </g>
     </g>
     <g id="line2d_27">
      <defs>
       <path d="
M0 0
L-4 0" id="maae0a9f880"/>
      </defs>
      <g>
       <use style="stroke:#000000;stroke-linecap:butt;stroke-width:0.5;" x="518.4" xlink:href="#maae0a9f880" y="250.472727273"/>
      </g>
     </g>
     <g id="text_14">
      <!-- 3 -->
      <g transform="translate(63.2015625 254.112571023)scale(0.1 -0.1)">
       <use xlink:href="#BitstreamVeraSans-Roman-33"/>
      </g>
     </g>
    </g>
    <g id="ytick_6">
     <g id="line2d_28">
      <defs>
       <path d="
M0 0
L4 0" id="m90b1029f7d"/>
      </defs>
      <g>
       <use style="stroke:#000000;stroke-linecap:butt;stroke-width:0.5;" x="72.0" xlink:href="#m90b1029f7d" y="182.836363636"/>
      </g>
     </g>
     <g id="line2d_29">
      <defs>
       <path d="
M0 0
L-4 0" id="maae0a9f880"/>
      </defs>
      <g>
       <use style="stroke:#000000;stroke-linecap:butt;stroke-width:0.5;" x="518.4" xlink:href="#maae0a9f880" y="182.836363636"/>
      </g>
     </g>
     <g id="text_15">
      <!-- 4 -->
      <g transform="translate(62.6875 186.481676136)scale(0.1 -0.1)">
       <use xlink:href="#BitstreamVeraSans-Roman-34"/>
      </g>
     </g>
    </g>
    <g id="ytick_7">
     <g id="line2d_30">
      <defs>
       <path d="
M0 0
L4 0" id="m90b1029f7d"/>
      </defs>
      <g>
       <use style="stroke:#000000;stroke-linecap:butt;stroke-width:0.5;" x="72.0" xlink:href="#m90b1029f7d" y="115.2"/>
      </g>
     </g>
     <g id="line2d_31">
      <defs>
       <path d="
M0 0
L-4 0" id="maae0a9f880"/>
      </defs>
      <g>
       <use style="stroke:#000000;stroke-linecap:butt;stroke-width:0.5;" x="518.4" xlink:href="#maae0a9f880" y="115.2"/>
      </g>
     </g>
     <g id="text_16">
      <!-- 5 -->
      <g transform="translate(63.2828125 118.77421875)scale(0.1 -0.1)">
       <use xlink:href="#BitstreamVeraSans-Roman-35"/>
      </g>
     </g>
    </g>
    <g id="text_17">
     <!-- Accceleration (g) -->
     <defs>
      <path d="
M54.8906 33.0156
L54.8906 0
L45.9062 0
L45.9062 32.7188
Q45.9062 40.4844 42.875 44.3281
Q39.8438 48.1875 33.7969 48.1875
Q26.5156 48.1875 22.3125 43.5469
Q18.1094 38.9219 18.1094 30.9062
L18.1094 0
L9.07812 0
L9.07812 54.6875
L18.1094 54.6875
L18.1094 46.1875
Q21.3438 51.125 25.7031 53.5625
Q30.0781 56 35.7969 56
Q45.2188 56 50.0469 50.1719
Q54.8906 44.3438 54.8906 33.0156" id="BitstreamVeraSans-Roman-6e"/>
      <path d="
M41.1094 46.2969
Q39.5938 47.1719 37.8125 47.5781
Q36.0312 48 33.8906 48
Q26.2656 48 22.1875 43.0469
Q18.1094 38.0938 18.1094 28.8125
L18.1094 0
L9.07812 0
L9.07812 54.6875
L18.1094 54.6875
L18.1094 46.1875
Q20.9531 51.1719 25.4844 53.5781
Q30.0312 56 36.5312 56
Q37.4531 56 38.5781 55.875
Q39.7031 55.7656 41.0625 55.5156
z
" id="BitstreamVeraSans-Roman-72"/>
      <path d="
M30.6094 48.3906
Q23.3906 48.3906 19.1875 42.75
Q14.9844 37.1094 14.9844 27.2969
Q14.9844 17.4844 19.1562 11.8438
Q23.3438 6.20312 30.6094 6.20312
Q37.7969 6.20312 41.9844 11.8594
Q46.1875 17.5312 46.1875 27.2969
Q46.1875 37.0156 41.9844 42.7031
Q37.7969 48.3906 30.6094 48.3906
M30.6094 56
Q42.3281 56 49.0156 48.375
Q55.7188 40.7656 55.7188 27.2969
Q55.7188 13.875 49.0156 6.21875
Q42.3281 -1.42188 30.6094 -1.42188
Q18.8438 -1.42188 12.1719 6.21875
Q5.51562 13.875 5.51562 27.2969
Q5.51562 40.7656 12.1719 48.375
Q18.8438 56 30.6094 56" id="BitstreamVeraSans-Roman-6f"/>
      <path d="
M9.42188 75.9844
L18.4062 75.9844
L18.4062 0
L9.42188 0
z
" id="BitstreamVeraSans-Roman-6c"/>
      <path d="
M34.1875 63.1875
L20.7969 26.9062
L47.6094 26.9062
z

M28.6094 72.9062
L39.7969 72.9062
L67.5781 0
L57.3281 0
L50.6875 18.7031
L17.8281 18.7031
L11.1875 0
L0.78125 0
z
" id="BitstreamVeraSans-Roman-41"/>
      <path d="
M45.4062 27.9844
Q45.4062 37.75 41.375 43.1094
Q37.3594 48.4844 30.0781 48.4844
Q22.8594 48.4844 18.8281 43.1094
Q14.7969 37.75 14.7969 27.9844
Q14.7969 18.2656 18.8281 12.8906
Q22.8594 7.51562 30.0781 7.51562
Q37.3594 7.51562 41.375 12.8906
Q45.4062 18.2656 45.4062 27.9844
M54.3906 6.78125
Q54.3906 -7.17188 48.1875 -13.9844
Q42 -20.7969 29.2031 -20.7969
Q24.4688 -20.7969 20.2656 -20.0938
Q16.0625 -19.3906 12.1094 -17.9219
L12.1094 -9.1875
Q16.0625 -11.3281 19.9219 -12.3438
Q23.7812 -13.375 27.7812 -13.375
Q36.625 -13.375 41.0156 -8.76562
Q45.4062 -4.15625 45.4062 5.17188
L45.4062 9.625
Q42.625 4.78125 38.2812 2.39062
Q33.9375 0 27.875 0
Q17.8281 0 11.6719 7.65625
Q5.51562 15.3281 5.51562 27.9844
Q5.51562 40.6719 11.6719 48.3281
Q17.8281 56 27.875 56
Q33.9375 56 38.2812 53.6094
Q42.625 51.2188 45.4062 46.3906
L45.4062 54.6875
L54.3906 54.6875
z
" id="BitstreamVeraSans-Roman-67"/>
      <path d="
M34.2812 27.4844
Q23.3906 27.4844 19.1875 25
Q14.9844 22.5156 14.9844 16.5
Q14.9844 11.7188 18.1406 8.90625
Q21.2969 6.10938 26.7031 6.10938
Q34.1875 6.10938 38.7031 11.4062
Q43.2188 16.7031 43.2188 25.4844
L43.2188 27.4844
z

M52.2031 31.2031
L52.2031 0
L43.2188 0
L43.2188 8.29688
Q40.1406 3.32812 35.5469 0.953125
Q30.9531 -1.42188 24.3125 -1.42188
Q15.9219 -1.42188 10.9531 3.29688
Q6 8.01562 6 15.9219
Q6 25.1406 12.1719 29.8281
Q18.3594 34.5156 30.6094 34.5156
L43.2188 34.5156
L43.2188 35.4062
Q43.2188 41.6094 39.1406 45
Q35.0625 48.3906 27.6875 48.3906
Q23 48.3906 18.5469 47.2656
Q14.1094 46.1406 10.0156 43.8906
L10.0156 52.2031
Q14.9375 54.1094 19.5781 55.0469
Q24.2188 56 28.6094 56
Q40.4844 56 46.3438 49.8438
Q52.2031 43.7031 52.2031 31.2031" id="BitstreamVeraSans-Roman-61"/>
      <path d="
M48.7812 52.5938
L48.7812 44.1875
Q44.9688 46.2969 41.1406 47.3438
Q37.3125 48.3906 33.4062 48.3906
Q24.6562 48.3906 19.8125 42.8438
Q14.9844 37.3125 14.9844 27.2969
Q14.9844 17.2812 19.8125 11.7344
Q24.6562 6.20312 33.4062 6.20312
Q37.3125 6.20312 41.1406 7.25
Q44.9688 8.29688 48.7812 10.4062
L48.7812 2.09375
Q45.0156 0.34375 40.9844 -0.53125
Q36.9688 -1.42188 32.4219 -1.42188
Q20.0625 -1.42188 12.7812 6.34375
Q5.51562 14.1094 5.51562 27.2969
Q5.51562 40.6719 12.8594 48.3281
Q20.2188 56 33.0156 56
Q37.1562 56 41.1094 55.1406
Q45.0625 54.2969 48.7812 52.5938" id="BitstreamVeraSans-Roman-63"/>
     </defs>
     <g transform="translate(50.240625 358.084090909)rotate(-90.0)scale(0.1 -0.1)">
      <use xlink:href="#BitstreamVeraSans-Roman-41"/>
      <use x="66.658203125" xlink:href="#BitstreamVeraSans-Roman-63"/>
      <use x="121.638671875" xlink:href="#BitstreamVeraSans-Roman-63"/>
      <use x="176.619140625" xlink:href="#BitstreamVeraSans-Roman-63"/>
      <use x="231.599609375" xlink:href="#BitstreamVeraSans-Roman-65"/>
      <use x="293.123046875" xlink:href="#BitstreamVeraSans-Roman-6c"/>
      <use x="320.90625" xlink:href="#BitstreamVeraSans-Roman-65"/>
      <use x="382.4296875" xlink:href="#BitstreamVeraSans-Roman-72"/>
      <use x="423.54296875" xlink:href="#BitstreamVeraSans-Roman-61"/>
      <use x="484.822265625" xlink:href="#BitstreamVeraSans-Roman-74"/>
      <use x="524.03125" xlink:href="#BitstreamVeraSans-Roman-69"/>
      <use x="551.814453125" xlink:href="#BitstreamVeraSans-Roman-6f"/>
      <use x="612.99609375" xlink:href="#BitstreamVeraSans-Roman-6e"/>
      <use x="676.375" xlink:href="#BitstreamVeraSans-Roman-20"/>
      <use x="708.162109375" xlink:href="#BitstreamVeraSans-Roman-28"/>
      <use x="747.17578125" xlink:href="#BitstreamVeraSans-Roman-67"/>
      <use x="810.65234375" xlink:href="#BitstreamVeraSans-Roman-29"/>
     </g>
    </g>
   </g>
   <g id="patch_3">
    <path d="
M72 115.2
L518.4 115.2" style="fill:none;stroke:#000000;"/>
   </g>
   <g id="patch_4">
    <path d="
M518.4 521.018
L518.4 115.2" style="fill:none;stroke:#000000;"/>
   </g>
   <g id="patch_5">
    <path d="
M72 521.018
L518.4 521.018" style="fill:none;stroke:#000000;"/>
   </g>
   <g id="patch_6">
    <path d="
M72 521.018
L72 115.2" style="fill:none;stroke:#000000;"/>
   </g>
  </g>
  <g id="axes_2">
   <g id="patch_7">
    <path d="
M72 1008
L518.4 1008
L518.4 602.182
L72 602.182
z
" style="fill:#ffffff;"/>
   </g>
   <g id="line2d_32">
    <path clip-path="url(#pca13b7050c)" d="
M85.9149 950.026
L86.8332 950.026
L87.0373 950.026
L87.5985 952.925
L88.3255 944.229
L89.2693 947.127
L89.6392 947.127
L90.1876 952.925
L90.8891 950.026
L91.6926 935.532
L92.1773 941.33
L92.5982 950.026
L93.1976 955.823
L94.2817 944.229
L95.0215 952.925
L95.0342 950.026
L95.876 950.026
L96.9219 952.925
L97.2662 950.026
L99.3324 950.026
L99.7278 955.823
L99.9574 952.925
L100.748 952.925
L101.564 950.026
L102.457 950.026
L103.401 952.925
L104.077 950.026
L104.676 955.823
L105.021 950.026
L105.671 950.026
L106.156 952.925
L107.903 952.925
L108.592 947.127
L109.421 950.026
L110.441 947.127
L110.467 941.33
L111.041 952.925
L112.712 958.722
L112.75 952.925
L112.801 955.823
L114.663 950.026
L114.676 952.925
L115.326 955.823
L115.352 952.925
L117.966 952.925
L118.693 950.026
L121.015 950.026
L121.589 952.925
L122.507 955.823
L123.068 952.925
L124.344 950.026
L124.981 947.127
L125.759 950.026
L125.798 947.127
L126.984 952.925
L127.532 950.026
L128.157 950.026
L128.183 952.925
L130.019 947.127
L130.032 950.026
L130.772 950.026
L131.295 952.925
L132.417 950.026
L137.111 950.026
L137.94 947.127
L139.1 950.026
L139.139 955.823
L139.789 952.925
L140.529 947.127
L141.473 950.026
L141.485 952.925
L141.83 947.127
L142.786 947.127
L143.488 952.925
L143.501 950.026
L145.299 950.026
L146.064 952.925
L147.072 955.823
L147.518 944.229
L148.424 950.026
L148.985 950.026
L149.214 955.823
L150.133 944.229
L150.796 944.229
L151.421 950.026
L151.791 958.722
L152.378 952.925
L153.207 947.127
L154.354 950.026
L154.992 947.127
L155.681 950.026
L156.612 947.127
L157.237 952.925
L158.142 950.026
L159.278 947.127
L159.303 950.026
L160.03 941.33
L160.502 947.127
L161.42 955.823
L162.007 947.127
L162.198 955.823
L163.869 947.127
L164.188 950.026
L164.66 944.229
L165.463 950.026
L166.292 950.026
L167.313 947.127
L169.711 947.127
L169.723 944.229
L170.374 950.026
L171.318 961.621
L172.198 944.229
L172.223 952.925
L172.963 938.431
L174.379 947.127
L174.404 952.925
L174.43 947.127
L175.603 947.127
L176.317 950.026
L178.996 950.026
L179.302 952.925
L180.552 950.026
L180.564 947.127
L181.202 952.925
L181.853 947.127
L182.095 950.026
L182.516 952.925
L183.179 952.925
L183.995 950.026
L184.799 950.026
L184.824 944.229
L186.266 947.127
L186.431 955.823
L187.324 950.026
L188.051 947.127
L189.76 944.229
L190.487 955.823
L191.571 950.026
L192.247 947.127
L192.362 950.026
L192.923 950.026
L194.773 947.127
L195.359 947.127
L196.163 944.229
L197.528 950.026
L197.566 947.127
L198.025 944.229
L198.612 947.127
L200.091 947.127
L200.78 950.026
L201.316 944.229
L202.221 947.127
L203.433 947.127
L203.509 941.33
L205.231 944.229
L205.27 941.33
L206.252 947.127
L207.093 944.229
L207.54 944.229
L207.91 947.127
L209.147 947.127
L209.95 944.229
L211.583 944.229
L212.412 941.33
L212.986 941.33
L213.751 944.229
L214.159 947.127
L218.789 947.127
L218.827 944.229
L220.167 941.33
L221.952 944.229
L223.814 944.229
L224.631 941.33
L225.498 947.127
L225.842 944.229
L226.161 944.229
L226.977 941.33
L228.214 947.127
L228.342 944.229
L232.64 944.229
L233.865 941.33
L233.89 944.229
L237.436 944.229
L237.461 941.33
L237.461 941.33
L237.461 941.33
L237.474 947.127
L239.081 947.127
L239.119 944.229
L249.795 944.229
L249.833 941.33
L252.397 941.33
L253.315 944.229
L257.014 944.229
L257.052 941.33
L258.162 944.229
L258.863 947.127
L259.309 944.229
L259.424 947.127
L260.215 944.229
L262.141 944.229
L262.702 941.33
L263.48 938.431
L264.59 944.229
L264.615 941.33
L265.087 944.229
L265.942 941.33
L267.306 947.127
L267.319 944.229
L267.727 947.127
L268.442 944.229
L270.992 944.229
L271.592 941.33
L272.625 944.229
L277.382 944.229
L278.058 938.431
L278.938 941.33
L281.336 944.229
L281.349 941.33
L281.349 941.33
L281.349 941.33
L281.374 947.127
L283.772 944.229
L283.785 947.127
L283.81 944.229
L284.741 947.127
L284.856 944.229
L285.583 947.127
L286.604 944.229
L288.593 944.229
L289.588 941.33
L290.188 944.229
L291.17 947.127
L292.687 947.127
L292.726 944.229
L294.154 944.229
L294.282 941.33
L295.595 944.229
L296.004 947.127
L299.511 947.127
L299.524 944.229
L301.705 944.229
L302.483 947.127
L303.388 944.229
L305.378 944.229
L305.633 947.127
L306.437 947.127
L307.406 944.229
L308.069 947.127
L308.082 944.229
L310.709 944.229
L311.551 947.127
L312.712 944.229
L313.732 944.229
L315.53 950.026
L315.543 944.229
L316.181 947.127
L317.635 947.127
L318.948 944.229
L318.961 941.33
L319.548 944.229
L320.364 947.127
L321.295 944.229
L321.308 941.33
L322.265 941.33
L322.992 944.229
L323.476 944.229
L324.267 947.127
L325.185 944.229
L325.9 950.026
L325.925 947.127
L327.098 950.026
L327.66 947.127
L328.654 944.229
L328.667 947.127
L329.318 944.229
L331.129 944.229
L331.154 947.127
L331.167 944.229
L332.953 944.229
L333.412 941.33
L335.006 947.127
L336.307 947.127
L336.447 944.229
L337.544 947.127
L338.105 947.127
L339.381 944.229
L339.853 944.229
L340.962 947.127
L341.511 947.127
L341.536 944.229
L342.608 947.127
L343.386 950.026
L345.732 950.026
L346.715 947.127
L347.097 950.026
L348.067 947.127
L348.806 944.229
L349.1 947.127
L353.206 947.127
L353.258 944.229
L353.78 947.127
L354.469 947.127
L355.171 950.026
L355.898 947.127
L356.778 947.127
L357.517 944.229
L358.372 947.127
L360.005 947.127
L361.42 944.229
L361.548 947.127
L363.793 947.127
L364.379 950.026
L364.507 947.127
L367.428 947.127
L367.44 944.229
L368.499 947.127
L369.251 944.229
L369.749 947.127
L370.501 941.33
L371.343 947.127
L372.784 952.925
L372.797 947.127
L373.256 947.127
L373.919 935.532
L374.748 952.925
L374.761 944.229
L375.667 952.925
L376.942 947.127
L376.955 944.229
L377.656 947.127
L377.861 941.33
L378.6 944.229
L380.539 944.229
L381.495 950.026
L382.248 944.229
L382.911 947.127
L385.934 947.127
L385.947 950.026
L385.972 947.127
L387.732 947.127
L388.651 944.229
L389.543 947.127
L391.163 947.127
L391.865 941.33
L393.536 932.634
L393.574 958.722
L394.543 958.722
L395.334 955.823
L395.653 950.026
L396.469 952.925
L397.26 944.229
L397.91 952.925
L398.267 947.127
L399.045 947.127
L399.683 950.026
L400.563 947.127
L401.418 950.026
L404.67 950.026
L404.721 944.229
L405.92 947.127
L406.481 947.127
L407.348 950.026
L409.568 950.026
L409.58 947.127
L410.499 950.026
L412.106 950.026
L412.922 947.127
L414.07 950.026
L415.486 950.026
L416.659 947.127
L416.71 950.026
L417.616 950.026
L418.572 952.925
L418.598 950.026
L420.103 950.026
L421.723 947.127
L421.774 950.026
L425.944 950.026
L425.97 952.925
L425.97 952.925
L425.97 952.925
L425.982 947.127
L425.995 950.026
L426.684 947.127
L426.697 950.026
L429.834 950.026
L430.587 952.925
L431.9 950.026
L432.347 952.925
L433.24 950.026
L434.528 947.127
L434.566 950.026
L435.37 950.026
L436.16 952.925
L436.492 950.026
L437.334 950.026
L438.061 952.925
L438.801 950.026
L439.017 950.026
L439.451 947.127
L442.652 950.026
L442.703 947.127
L443.481 950.026
L453.162 950.026
L453.2 947.127
L455.037 947.127
L455.636 950.026
L458.251 952.925
L458.289 947.127
L458.876 952.925
L459.577 950.026
L462.434 950.026
L463.187 952.925
L464.118 950.026
L464.781 950.026
L465.712 947.127
L466.452 950.026
L467.281 950.026
L467.294 947.127
L468.161 950.026
L470.444 950.026
L472.332 947.127
L472.421 950.026
L473.186 947.127
L475.393 950.026
L477.867 950.026
L478.339 947.127
L479.283 950.026
L481.884 950.026
L482.714 947.127
L482.726 950.026
L485.66 950.026
L486.757 947.127
L487.943 947.127
L488.07 944.229
L491.259 935.532
L491.323 958.722
L492.266 958.722
L493.108 944.229
L493.147 952.925
L493.886 944.229
L495.034 944.229
L495.366 950.026
L495.748 947.127
L496.259 947.127
L497.139 950.026
L497.827 947.127
L498.21 950.026
L498.669 947.127
L499.638 947.127
L500.225 950.026
L500.761 947.127
L501.896 947.127
L502.763 950.026
L503.363 947.127
L503.733 944.229
L504.396 947.127
L505.888 950.026
L505.914 952.925
L506.921 950.026
L507.584 944.229
L508.477 952.925
L508.503 950.026
L509.574 958.722
L510.48 947.127
L511.398 950.026
L511.423 952.925
L511.627 952.925
L512.661 947.127
L512.661 947.127" style="fill:none;stroke:#ff0000;"/>
   </g>
   <g id="line2d_33">
    <path clip-path="url(#pca13b7050c)" d="
M85.9149 839.875
L86.8332 825.382
L87.0373 828.281
L87.5985 822.483
L88.3255 831.179
L89.2693 834.078
L89.6392 831.179
L90.1876 825.382
L90.8891 834.078
L92.1773 834.078
L92.5982 828.281
L93.1976 825.382
L94.2817 828.281
L95.0342 828.281
L95.876 831.179
L96.9219 828.281
L97.2662 831.179
L98.2483 822.483
L99.3324 822.483
L99.7278 825.382
L99.9574 822.483
L100.748 828.281
L101.564 825.382
L102.1 828.281
L103.401 828.281
L104.077 825.382
L104.676 825.382
L105.021 828.281
L106.972 828.281
L107.891 831.179
L107.903 834.078
L108.592 825.382
L109.421 831.179
L110.441 831.179
L110.467 836.977
L111.041 831.179
L112.712 825.382
L112.75 834.078
L112.801 831.179
L114.663 836.977
L114.676 831.179
L115.326 828.281
L115.352 831.179
L116.219 828.281
L117.112 831.179
L117.966 831.179
L118.693 828.281
L119.255 828.281
L119.943 834.078
L120.441 831.179
L124.331 831.179
L124.344 834.078
L124.981 828.281
L125.798 831.179
L127.532 831.179
L128.157 828.281
L128.183 831.179
L130.032 828.281
L131.295 828.281
L132.417 825.382
L134.534 825.382
L135.363 828.281
L137.111 822.483
L137.94 825.382
L139.139 825.382
L139.789 828.281
L141.473 828.281
L141.485 825.382
L141.83 822.483
L142.786 819.584
L143.501 819.584
L144.585 822.483
L145.299 822.483
L146.051 825.382
L146.064 822.483
L147.072 825.382
L147.518 828.281
L148.424 825.382
L148.985 825.382
L149.214 819.584
L150.133 825.382
L151.421 825.382
L151.791 828.281
L152.378 825.382
L154.354 825.382
L154.992 828.281
L155.681 825.382
L158.142 825.382
L159.278 828.281
L159.303 825.382
L160.03 828.281
L164.66 828.281
L165.463 822.483
L166.292 825.382
L167.313 828.281
L169.711 828.281
L169.723 825.382
L170.374 825.382
L171.318 831.179
L172.198 831.179
L172.223 828.281
L172.963 825.382
L174.43 828.281
L176.317 828.281
L177.299 825.382
L177.325 828.281
L177.554 831.179
L178.996 831.179
L179.302 828.281
L180.564 828.281
L181.202 825.382
L182.095 825.382
L182.516 828.281
L183.179 825.382
L183.995 828.281
L184.799 825.382
L184.824 822.483
L186.266 825.382
L186.431 828.281
L187.311 831.179
L187.324 828.281
L188.051 831.179
L189.722 834.078
L189.748 828.281
L189.76 831.179
L190.487 828.281
L195.066 828.281
L195.359 825.382
L196.163 828.281
L198.025 828.281
L198.612 825.382
L199.415 828.281
L200.091 825.382
L200.78 825.382
L201.316 828.281
L205.231 828.281
L205.257 825.382
L205.27 828.281
L206.252 828.281
L207.093 825.382
L207.54 828.281
L207.91 825.382
L208.777 825.382
L209.147 828.281
L209.95 828.281
L210.371 825.382
L210.843 825.382
L211.583 828.281
L212.986 828.281
L213.751 825.382
L218.815 825.382
L218.827 828.281
L220.167 831.179
L221.952 828.281
L222.577 825.382
L222.934 825.382
L223.534 828.281
L223.814 828.281
L224.631 831.179
L225.498 828.281
L226.977 828.281
L228.214 825.382
L229.044 825.382
L229.49 828.281
L230.217 825.382
L231.11 825.382
L231.837 828.281
L232.64 822.483
L233.89 825.382
L234.273 822.483
L235.293 825.382
L237.474 822.483
L239.119 822.483
L240.114 819.584
L240.828 822.483
L244.004 822.483
L244.821 825.382
L246.836 825.382
L246.874 822.483
L247.882 822.483
L248.341 819.584
L249.795 822.483
L249.833 819.584
L251.21 819.584
L252.371 822.483
L252.384 819.584
L252.397 822.483
L253.315 825.382
L253.8 828.281
L254.067 825.382
L254.756 828.281
L255.611 828.281
L256.172 825.382
L257.014 828.281
L257.052 825.382
L258.162 825.382
L258.863 828.281
L259.309 825.382
L259.424 828.281
L260.215 828.281
L261.044 825.382
L262.702 825.382
L263.48 828.281
L264.615 825.382
L268.442 825.382
L269.207 822.483
L270.992 822.483
L271.592 825.382
L272.625 822.483
L273.428 822.483
L274.002 825.382
L275.227 822.483
L283.798 822.483
L283.81 825.382
L284.856 822.483
L285.583 825.382
L286.604 822.483
L288.121 822.483
L288.593 828.281
L291.17 828.281
L291.897 825.382
L294.282 825.382
L295.557 828.281
L295.595 825.382
L296.004 828.281
L299.46 825.382
L299.485 828.281
L299.524 825.382
L301.705 825.382
L302.483 822.483
L303.388 825.382
L304 822.483
L305.378 822.483
L305.633 825.382
L306.437 822.483
L308.082 822.483
L309.013 819.584
L309.714 822.483
L310.671 819.584
L310.709 822.483
L311.551 819.584
L312.712 822.483
L313.145 825.382
L313.158 822.483
L316.168 822.483
L316.181 819.584
L317.635 822.483
L319.548 822.483
L320.364 819.584
L321.295 822.483
L321.308 819.584
L322.992 819.584
L323.476 822.483
L324.267 825.382
L325.185 828.281
L325.9 831.179
L325.925 828.281
L327.098 828.281
L327.66 825.382
L329.318 825.382
L331.167 828.281
L331.716 825.382
L335.006 825.382
L335.644 822.483
L336.307 822.483
L336.447 825.382
L337.544 831.179
L338.105 828.281
L339.381 825.382
L339.853 822.483
L342.608 822.483
L343.386 825.382
L345.72 825.382
L345.732 822.483
L346.702 825.382
L346.715 822.483
L349.1 822.483
L349.674 825.382
L350.694 822.483
L353.258 822.483
L353.78 825.382
L354.456 822.483
L354.469 825.382
L357.517 825.382
L358.372 822.483
L360.005 822.483
L361.42 825.382
L361.548 828.281
L363.793 828.281
L364.379 825.382
L364.507 828.281
L367.44 828.281
L368.499 825.382
L369.749 825.382
L370.501 828.281
L371.343 825.382
L372.797 825.382
L373.256 828.281
L373.919 825.382
L374.761 825.382
L375.667 822.483
L376.942 819.584
L376.955 825.382
L377.656 822.483
L377.861 825.382
L378.6 825.382
L379.442 822.483
L380.501 822.483
L380.539 819.584
L381.495 822.483
L382.898 822.483
L382.911 825.382
L383.472 822.483
L384.276 825.382
L385.972 822.483
L387.732 822.483
L388.651 825.382
L389.952 825.382
L390.462 822.483
L391.865 816.686
L393.536 813.787
L393.574 822.483
L394.543 825.382
L395.321 828.281
L395.334 825.382
L395.653 825.382
L396.469 828.281
L397.26 825.382
L397.91 825.382
L398.267 828.281
L399.045 828.281
L399.683 831.179
L400.563 828.281
L401.418 831.179
L402.196 828.281
L404.67 828.281
L404.721 831.179
L405.92 828.281
L409.568 828.281
L409.58 825.382
L410.499 828.281
L410.818 825.382
L416.71 825.382
L417.616 828.281
L418.598 825.382
L421.748 825.382
L421.774 828.281
L422.526 828.281
L423.189 825.382
L425.97 825.382
L425.982 828.281
L425.995 825.382
L427.577 825.382
L428.661 828.281
L428.75 825.382
L429.35 831.179
L433.24 831.179
L434.528 828.281
L434.566 831.179
L436.492 831.179
L437.334 828.281
L439.017 828.281
L439.451 825.382
L442.703 828.281
L443.481 825.382
L444.17 828.281
L451.147 828.281
L451.58 825.382
L451.886 828.281
L455.636 828.281
L458.251 825.382
L458.289 828.281
L461.299 828.281
L462.396 831.179
L462.434 828.281
L464.781 828.281
L465.712 831.179
L466.452 828.281
L468.62 828.281
L469.424 831.179
L469.857 828.281
L470.444 831.179
L472.421 828.281
L475.342 828.281
L475.367 825.382
L475.393 828.281
L481.03 828.281
L481.884 825.382
L486.757 825.382
L487.535 828.281
L488.07 828.281
L491.272 825.382
L491.323 831.179
L492.266 828.281
L493.147 828.281
L493.886 825.382
L495.034 828.281
L495.366 831.179
L495.748 828.281
L498.21 828.281
L498.669 831.179
L499.638 828.281
L500.225 831.179
L500.761 828.281
L501.896 828.281
L502.763 831.179
L505.914 831.179
L506.921 834.078
L507.584 831.179
L508.503 831.179
L509.574 825.382
L510.48 831.179
L511.423 828.281
L511.627 831.179
L512.661 831.179
L512.661 831.179" style="fill:none;stroke:#008000;"/>
   </g>
   <g id="line2d_34">
    <path clip-path="url(#pca13b7050c)" d="
M85.9149 648.561
L86.8332 671.751
L87.0373 663.055
L87.5985 665.953
L88.3255 651.46
L89.6392 660.156
L90.1876 674.649
L90.8891 648.561
L91.6926 668.852
L92.1773 654.358
L92.5982 654.358
L93.1976 668.852
L94.2817 654.358
L95.0215 663.055
L95.0342 668.852
L95.876 648.561
L96.9219 671.751
L97.2407 654.358
L97.2662 657.257
L98.2483 663.055
L99.3324 663.055
L99.7278 657.257
L99.9574 660.156
L100.748 663.055
L101.564 660.156
L102.457 660.156
L103.401 657.257
L104.077 665.953
L104.676 651.46
L105.021 663.055
L105.671 663.055
L106.156 660.156
L106.972 660.156
L107.891 657.257
L107.903 648.561
L108.592 671.751
L109.421 651.46
L110.441 660.156
L110.467 657.257
L111.041 654.358
L112.712 663.055
L112.75 648.561
L112.801 657.257
L114.663 657.257
L114.676 663.055
L115.326 657.257
L115.352 660.156
L116.219 657.257
L117.112 663.055
L117.966 663.055
L118.693 665.953
L119.255 663.055
L119.943 654.358
L120.441 660.156
L121.589 660.156
L122.507 665.953
L123.068 660.156
L124.331 665.953
L124.344 651.46
L124.981 665.953
L125.798 660.156
L126.984 660.156
L127.532 657.257
L128.157 663.055
L128.183 660.156
L130.019 660.156
L130.032 665.953
L130.491 663.055
L130.772 663.055
L131.295 660.156
L132.417 657.257
L132.953 668.852
L133.399 660.156
L134.266 663.055
L134.534 663.055
L135.363 660.156
L136.218 665.953
L136.243 674.649
L137.111 671.751
L137.94 660.156
L139.1 660.156
L139.139 648.561
L139.789 651.46
L140.529 663.055
L141.473 663.055
L141.485 671.751
L141.83 663.055
L142.786 660.156
L143.488 654.358
L143.501 660.156
L144.585 665.953
L145.299 665.953
L146.051 660.156
L146.064 668.852
L147.072 674.649
L147.518 660.156
L148.424 651.46
L148.985 657.257
L149.214 663.055
L150.133 660.156
L150.796 663.055
L151.421 663.055
L151.791 665.953
L152.378 663.055
L153.207 660.156
L154.354 663.055
L154.992 665.953
L155.681 663.055
L156.586 660.156
L156.612 663.055
L157.237 663.055
L158.142 668.852
L159.303 665.953
L160.03 657.257
L160.502 665.953
L161.42 665.953
L162.007 663.055
L162.198 663.055
L163.295 657.257
L163.869 651.46
L164.66 665.953
L165.463 668.852
L166.292 674.649
L167.249 663.055
L167.313 654.358
L167.963 654.358
L168.882 665.953
L169.711 660.156
L169.723 665.953
L170.374 663.055
L171.318 671.751
L172.198 642.764
L172.223 660.156
L172.963 657.257
L174.379 654.358
L174.404 683.345
L174.43 665.953
L175.603 663.055
L177.299 648.561
L177.325 657.257
L177.554 660.156
L178.996 668.852
L179.302 668.852
L180.552 663.055
L180.564 654.358
L181.853 654.358
L182.516 663.055
L183.179 671.751
L183.995 657.257
L184.799 665.953
L184.824 668.852
L186.266 665.953
L186.431 665.953
L187.311 660.156
L187.324 663.055
L188.051 654.358
L189.722 660.156
L189.748 663.055
L189.76 660.156
L190.487 657.257
L191.571 668.852
L192.247 663.055
L192.362 663.055
L192.923 665.953
L194.747 663.055
L194.773 665.953
L195.066 663.055
L195.359 668.852
L196.163 663.055
L197.528 660.156
L197.566 665.953
L198.612 665.953
L199.415 660.156
L200.78 665.953
L201.316 668.852
L202.221 663.055
L203.433 665.953
L203.471 663.055
L203.509 671.751
L205.257 680.447
L205.27 677.548
L206.252 668.852
L207.093 674.649
L207.54 665.953
L207.91 668.852
L208.777 674.649
L209.147 668.852
L209.95 663.055
L210.843 674.649
L211.583 668.852
L212.412 671.751
L212.986 671.751
L213.751 677.548
L214.159 665.953
L214.886 663.055
L215.511 665.953
L215.741 665.953
L216.57 671.751
L217.386 665.953
L218.827 665.953
L220.167 663.055
L221.914 668.852
L221.952 663.055
L222.577 660.156
L222.934 665.953
L223.534 663.055
L223.814 663.055
L224.631 660.156
L225.498 668.852
L225.842 663.055
L226.161 663.055
L226.977 665.953
L228.214 668.852
L228.342 668.852
L229.044 671.751
L229.49 663.055
L230.217 668.852
L231.11 665.953
L231.837 663.055
L232.64 671.751
L233.865 663.055
L233.89 665.953
L234.273 665.953
L235.293 660.156
L237.436 665.953
L237.474 668.852
L239.119 665.953
L240.114 668.852
L240.828 660.156
L241.351 665.953
L241.734 668.852
L242.385 665.953
L243.469 663.055
L244.821 663.055
L246.836 665.953
L246.861 663.055
L246.861 663.055
L246.861 663.055
L246.874 668.852
L247.882 663.055
L248.341 671.751
L249.769 660.156
L249.833 671.751
L251.21 674.649
L252.371 660.156
L252.384 668.852
L252.397 665.953
L253.315 665.953
L253.8 663.055
L254.067 665.953
L254.756 665.953
L255.611 668.852
L257.014 668.852
L257.052 657.257
L258.162 665.953
L258.863 663.055
L259.309 665.953
L259.424 668.852
L260.215 663.055
L261.044 665.953
L262.141 663.055
L262.702 671.751
L263.48 668.852
L264.59 665.953
L264.615 668.852
L265.087 657.257
L265.942 663.055
L267.306 668.852
L267.319 663.055
L267.727 668.852
L268.442 660.156
L269.207 668.852
L269.653 663.055
L270.329 660.156
L270.992 671.751
L271.592 663.055
L272.612 668.852
L272.625 671.751
L273.428 665.953
L274.002 660.156
L275.189 665.953
L275.227 663.055
L275.813 668.852
L277.051 665.953
L277.382 665.953
L278.058 660.156
L278.938 665.953
L281.362 665.953
L281.374 671.751
L283.772 663.055
L283.785 665.953
L283.798 663.055
L283.798 663.055
L283.81 660.156
L284.741 665.953
L284.856 663.055
L285.583 660.156
L286.604 674.649
L286.986 660.156
L287.535 668.852
L288.121 671.751
L288.593 665.953
L289.588 660.156
L290.162 663.055
L290.188 665.953
L292.687 665.953
L292.726 663.055
L294.154 663.055
L294.282 668.852
L295.595 665.953
L296.004 665.953
L299.46 671.751
L299.473 660.156
L299.524 665.953
L301.207 665.953
L301.22 668.852
L301.705 665.953
L302.483 671.751
L303.375 665.953
L303.388 660.156
L304 663.055
L305.378 668.852
L305.633 663.055
L306.437 665.953
L308.069 665.953
L308.082 668.852
L309.013 674.649
L309.714 657.257
L310.671 657.257
L310.709 663.055
L311.551 665.953
L312.712 671.751
L313.158 668.852
L313.732 665.953
L315.543 660.156
L316.168 663.055
L316.181 665.953
L317.635 665.953
L318.936 668.852
L318.961 663.055
L319.548 668.852
L320.364 663.055
L321.295 668.852
L321.308 671.751
L322.265 668.852
L322.992 671.751
L323.463 668.852
L323.476 663.055
L324.267 663.055
L325.185 671.751
L325.9 663.055
L325.925 665.953
L327.098 663.055
L327.66 660.156
L328.654 665.953
L328.667 663.055
L329.318 663.055
L331.129 668.852
L331.154 660.156
L331.167 665.953
L331.716 671.751
L332.953 665.953
L333.412 668.852
L334.19 665.953
L335.006 665.953
L335.644 660.156
L336.307 663.055
L336.447 668.852
L337.544 663.055
L338.105 677.548
L339.355 665.953
L339.381 668.852
L339.853 671.751
L340.962 663.055
L341.511 663.055
L341.536 665.953
L343.386 665.953
L343.794 674.649
L344.33 668.852
L345.732 665.953
L346.702 663.055
L346.715 665.953
L347.097 668.852
L348.067 663.055
L348.806 671.751
L349.1 665.953
L349.674 668.852
L350.694 668.852
L351.332 660.156
L353.206 663.055
L353.258 665.953
L353.78 668.852
L354.456 668.852
L354.469 671.751
L355.171 663.055
L355.898 665.953
L356.765 668.852
L356.778 665.953
L358.372 665.953
L359.788 668.852
L359.813 665.953
L360.005 663.055
L361.42 668.852
L361.548 668.852
L362.186 665.953
L362.377 663.055
L363.793 663.055
L364.379 668.852
L364.507 665.953
L367.44 665.953
L368.499 668.852
L369.251 660.156
L369.736 668.852
L369.749 665.953
L370.501 668.852
L371.343 668.852
L372.784 665.953
L372.797 668.852
L373.256 665.953
L373.919 668.852
L374.748 651.46
L374.761 663.055
L375.667 657.257
L376.942 677.548
L376.955 671.751
L377.656 668.852
L377.861 668.852
L378.6 665.953
L380.501 665.953
L380.539 663.055
L381.495 657.257
L382.248 668.852
L382.898 665.953
L382.911 668.852
L383.472 668.852
L384.276 657.257
L385.934 665.953
L385.972 671.751
L386.827 660.156
L387.516 663.055
L388.651 663.055
L389.543 665.953
L389.952 660.156
L390.462 663.055
L391.163 668.852
L391.865 654.358
L393.561 663.055
L393.574 671.751
L394.543 686.244
L395.321 680.447
L395.334 677.548
L396.469 648.561
L397.26 665.953
L397.91 657.257
L398.267 665.953
L399.045 665.953
L399.683 668.852
L400.563 668.852
L401.418 665.953
L402.196 668.852
L403.293 665.953
L404.721 665.953
L405.882 668.852
L405.92 665.953
L406.481 665.953
L407.348 668.852
L407.935 665.953
L409.568 665.953
L409.58 671.751
L410.499 660.156
L410.818 665.953
L411.545 671.751
L412.106 663.055
L412.922 668.852
L414.07 665.953
L416.685 665.953
L416.71 668.852
L417.616 660.156
L418.572 668.852
L418.598 665.953
L419.146 660.156
L420.103 668.852
L421.748 663.055
L421.774 665.953
L422.526 668.852
L423.189 663.055
L425.944 663.055
L425.97 660.156
L425.97 660.156
L425.97 660.156
L425.995 665.953
L426.697 668.852
L427.577 665.953
L428.75 668.852
L429.35 674.649
L429.834 665.953
L430.587 668.852
L431.9 668.852
L432.347 663.055
L433.24 665.953
L434.566 665.953
L435.37 668.852
L436.492 668.852
L437.334 671.751
L438.801 660.156
L439.017 665.953
L439.451 668.852
L442.652 660.156
L442.691 668.852
L442.703 663.055
L443.481 668.852
L444.565 660.156
L445.101 665.953
L447.116 665.953
L447.55 663.055
L448.481 665.953
L449.144 668.852
L449.374 665.953
L449.948 657.257
L451.147 665.953
L453.162 665.953
L453.2 660.156
L454.118 665.953
L454.437 665.953
L455.037 668.852
L455.636 663.055
L458.264 663.055
L458.289 668.852
L458.876 665.953
L459.577 665.953
L459.718 660.156
L460.891 665.953
L461.299 668.852
L462.434 668.852
L463.187 663.055
L464.118 654.358
L464.551 668.852
L464.781 663.055
L465.712 660.156
L466.452 663.055
L468.161 663.055
L468.62 665.953
L469.424 663.055
L469.857 663.055
L470.444 660.156
L472.421 665.953
L473.186 665.953
L475.342 663.055
L475.367 660.156
L475.393 663.055
L476.719 663.055
L477.841 660.156
L477.867 663.055
L478.339 668.852
L479.283 663.055
L480.494 674.649
L480.52 668.852
L481.03 657.257
L481.884 665.953
L482.726 663.055
L483.198 663.055
L484.014 665.953
L485.022 660.156
L485.29 663.055
L485.66 663.055
L486.757 665.953
L487.535 671.751
L487.943 668.852
L488.07 671.751
L491.259 660.156
L491.272 665.953
L491.297 660.156
L491.297 660.156
L491.323 651.46
L492.266 665.953
L493.108 665.953
L493.147 660.156
L493.886 668.852
L495.034 665.953
L495.366 660.156
L495.748 665.953
L497.139 665.953
L497.827 663.055
L498.21 665.953
L498.669 665.953
L499.638 668.852
L500.225 663.055
L500.761 663.055
L501.539 657.257
L501.896 660.156
L502.763 663.055
L503.363 660.156
L503.733 651.46
L504.396 665.953
L505.888 663.055
L505.914 665.953
L506.921 660.156
L507.584 657.257
L508.477 654.358
L508.503 657.257
L509.574 671.751
L510.48 660.156
L511.398 665.953
L511.423 663.055
L511.627 657.257
L512.661 657.257
L512.661 657.257" style="fill:none;stroke:#0000ff;"/>
   </g>
   <g id="matplotlib.axis_3">
    <g id="xtick_9">
     <g id="line2d_35">
      <defs>
       <path d="
M0 0
L0 -4" id="mbd8d9bc99d"/>
      </defs>
      <g>
       <use style="stroke:#000000;stroke-linecap:butt;stroke-width:0.5;" x="72.0" xlink:href="#mbd8d9bc99d" y="1008.0"/>
      </g>
     </g>
     <g id="line2d_36">
      <defs>
       <path d="
M0 0
L0 4" id="m6acc20edcf"/>
      </defs>
      <g>
       <use style="stroke:#000000;stroke-linecap:butt;stroke-width:0.5;" x="72.0" xlink:href="#m6acc20edcf" y="602.181818182"/>
      </g>
     </g>
     <g id="text_18">
      <!-- 5 -->
      <g transform="translate(69.64140625 1019.290625)scale(0.1 -0.1)">
       <use xlink:href="#BitstreamVeraSans-Roman-35"/>
      </g>
     </g>
    </g>
    <g id="xtick_10">
     <g id="line2d_37">
      <defs>
       <path d="
M0 0
L0 -4" id="mbd8d9bc99d"/>
      </defs>
      <g>
       <use style="stroke:#000000;stroke-linecap:butt;stroke-width:0.5;" x="135.771428571" xlink:href="#mbd8d9bc99d" y="1008.0"/>
      </g>
     </g>
     <g id="line2d_38">
      <defs>
       <path d="
M0 0
L0 4" id="m6acc20edcf"/>
      </defs>
      <g>
       <use style="stroke:#000000;stroke-linecap:butt;stroke-width:0.5;" x="135.771428571" xlink:href="#m6acc20edcf" y="602.181818182"/>
      </g>
     </g>
     <g id="text_19">
      <!-- 10 -->
      <g transform="translate(130.290178571 1019.421875)scale(0.1 -0.1)">
       <use xlink:href="#BitstreamVeraSans-Roman-31"/>
       <use x="63.623046875" xlink:href="#BitstreamVeraSans-Roman-30"/>
      </g>
     </g>
    </g>
    <g id="xtick_11">
     <g id="line2d_39">
      <defs>
       <path d="
M0 0
L0 -4" id="mbd8d9bc99d"/>
      </defs>
      <g>
       <use style="stroke:#000000;stroke-linecap:butt;stroke-width:0.5;" x="199.542857143" xlink:href="#mbd8d9bc99d" y="1008.0"/>
      </g>
     </g>
     <g id="line2d_40">
      <defs>
       <path d="
M0 0
L0 4" id="m6acc20edcf"/>
      </defs>
      <g>
       <use style="stroke:#000000;stroke-linecap:butt;stroke-width:0.5;" x="199.542857143" xlink:href="#m6acc20edcf" y="602.181818182"/>
      </g>
     </g>
     <g id="text_20">
      <!-- 15 -->
      <g transform="translate(194.166294643 1019.290625)scale(0.1 -0.1)">
       <use xlink:href="#BitstreamVeraSans-Roman-31"/>
       <use x="63.623046875" xlink:href="#BitstreamVeraSans-Roman-35"/>
      </g>
     </g>
    </g>
    <g id="xtick_12">
     <g id="line2d_41">
      <defs>
       <path d="
M0 0
L0 -4" id="mbd8d9bc99d"/>
      </defs>
      <g>
       <use style="stroke:#000000;stroke-linecap:butt;stroke-width:0.5;" x="263.314285714" xlink:href="#mbd8d9bc99d" y="1008.0"/>
      </g>
     </g>
     <g id="line2d_42">
      <defs>
       <path d="
M0 0
L0 4" id="m6acc20edcf"/>
      </defs>
      <g>
       <use style="stroke:#000000;stroke-linecap:butt;stroke-width:0.5;" x="263.314285714" xlink:href="#m6acc20edcf" y="602.181818182"/>
      </g>
     </g>
     <g id="text_21">
      <!-- 20 -->
      <g transform="translate(257.650223214 1019.421875)scale(0.1 -0.1)">
       <use xlink:href="#BitstreamVeraSans-Roman-32"/>
       <use x="63.623046875" xlink:href="#BitstreamVeraSans-Roman-30"/>
      </g>
     </g>
    </g>
    <g id="xtick_13">
     <g id="line2d_43">
      <defs>
       <path d="
M0 0
L0 -4" id="mbd8d9bc99d"/>
      </defs>
      <g>
       <use style="stroke:#000000;stroke-linecap:butt;stroke-width:0.5;" x="327.085714286" xlink:href="#mbd8d9bc99d" y="1008.0"/>
      </g>
     </g>
     <g id="line2d_44">
      <defs>
       <path d="
M0 0
L0 4" id="m6acc20edcf"/>
      </defs>
      <g>
       <use style="stroke:#000000;stroke-linecap:butt;stroke-width:0.5;" x="327.085714286" xlink:href="#m6acc20edcf" y="602.181818182"/>
      </g>
     </g>
     <g id="text_22">
      <!-- 25 -->
      <g transform="translate(321.526339286 1019.421875)scale(0.1 -0.1)">
       <use xlink:href="#BitstreamVeraSans-Roman-32"/>
       <use x="63.623046875" xlink:href="#BitstreamVeraSans-Roman-35"/>
      </g>
     </g>
    </g>
    <g id="xtick_14">
     <g id="line2d_45">
      <defs>
       <path d="
M0 0
L0 -4" id="mbd8d9bc99d"/>
      </defs>
      <g>
       <use style="stroke:#000000;stroke-linecap:butt;stroke-width:0.5;" x="390.857142857" xlink:href="#mbd8d9bc99d" y="1008.0"/>
      </g>
     </g>
     <g id="line2d_46">
      <defs>
       <path d="
M0 0
L0 4" id="m6acc20edcf"/>
      </defs>
      <g>
       <use style="stroke:#000000;stroke-linecap:butt;stroke-width:0.5;" x="390.857142857" xlink:href="#m6acc20edcf" y="602.181818182"/>
      </g>
     </g>
     <g id="text_23">
      <!-- 30 -->
      <g transform="translate(385.207924107 1019.421875)scale(0.1 -0.1)">
       <use xlink:href="#BitstreamVeraSans-Roman-33"/>
       <use x="63.623046875" xlink:href="#BitstreamVeraSans-Roman-30"/>
      </g>
     </g>
    </g>
    <g id="xtick_15">
     <g id="line2d_47">
      <defs>
       <path d="
M0 0
L0 -4" id="mbd8d9bc99d"/>
      </defs>
      <g>
       <use style="stroke:#000000;stroke-linecap:butt;stroke-width:0.5;" x="454.628571429" xlink:href="#mbd8d9bc99d" y="1008.0"/>
      </g>
     </g>
     <g id="line2d_48">
      <defs>
       <path d="
M0 0
L0 4" id="m6acc20edcf"/>
      </defs>
      <g>
       <use style="stroke:#000000;stroke-linecap:butt;stroke-width:0.5;" x="454.628571429" xlink:href="#m6acc20edcf" y="602.181818182"/>
      </g>
     </g>
     <g id="text_24">
      <!-- 35 -->
      <g transform="translate(449.084040179 1019.421875)scale(0.1 -0.1)">
       <use xlink:href="#BitstreamVeraSans-Roman-33"/>
       <use x="63.623046875" xlink:href="#BitstreamVeraSans-Roman-35"/>
      </g>
     </g>
    </g>
    <g id="xtick_16">
     <g id="line2d_49">
      <defs>
       <path d="
M0 0
L0 -4" id="mbd8d9bc99d"/>
      </defs>
      <g>
       <use style="stroke:#000000;stroke-linecap:butt;stroke-width:0.5;" x="518.4" xlink:href="#mbd8d9bc99d" y="1008.0"/>
      </g>
     </g>
     <g id="line2d_50">
      <defs>
       <path d="
M0 0
L0 4" id="m6acc20edcf"/>
      </defs>
      <g>
       <use style="stroke:#000000;stroke-linecap:butt;stroke-width:0.5;" x="518.4" xlink:href="#m6acc20edcf" y="602.181818182"/>
      </g>
     </g>
     <g id="text_25">
      <!-- 40 -->
      <g transform="translate(512.6140625 1019.421875)scale(0.1 -0.1)">
       <use xlink:href="#BitstreamVeraSans-Roman-34"/>
       <use x="63.623046875" xlink:href="#BitstreamVeraSans-Roman-30"/>
      </g>
     </g>
    </g>
    <g id="text_26">
     <!-- time (s) -->
     <g transform="translate(276.23828125 1032.1625)scale(0.1 -0.1)">
      <use xlink:href="#BitstreamVeraSans-Roman-74"/>
      <use x="39.208984375" xlink:href="#BitstreamVeraSans-Roman-69"/>
      <use x="66.9921875" xlink:href="#BitstreamVeraSans-Roman-6d"/>
      <use x="164.404296875" xlink:href="#BitstreamVeraSans-Roman-65"/>
      <use x="225.927734375" xlink:href="#BitstreamVeraSans-Roman-20"/>
      <use x="257.71484375" xlink:href="#BitstreamVeraSans-Roman-28"/>
      <use x="296.728515625" xlink:href="#BitstreamVeraSans-Roman-73"/>
      <use x="348.828125" xlink:href="#BitstreamVeraSans-Roman-29"/>
     </g>
    </g>
   </g>
   <g id="matplotlib.axis_4">
    <g id="ytick_8">
     <g id="line2d_51">
      <defs>
       <path d="
M0 0
L4 0" id="m90b1029f7d"/>
      </defs>
      <g>
       <use style="stroke:#000000;stroke-linecap:butt;stroke-width:0.5;" x="72.0" xlink:href="#m90b1029f7d" y="1008.0"/>
      </g>
     </g>
     <g id="line2d_52">
      <defs>
       <path d="
M0 0
L-4 0" id="maae0a9f880"/>
      </defs>
      <g>
       <use style="stroke:#000000;stroke-linecap:butt;stroke-width:0.5;" x="518.4" xlink:href="#maae0a9f880" y="1008.0"/>
      </g>
     </g>
     <g id="text_27">
      <!-- −0.2 -->
      <defs>
       <path d="
M10.6875 12.4062
L21 12.4062
L21 0
L10.6875 0
z
" id="BitstreamVeraSans-Roman-2e"/>
      </defs>
      <g transform="translate(45.778125 1011.63984375)scale(0.1 -0.1)">
       <use xlink:href="#BitstreamVeraSans-Roman-2212"/>
       <use x="83.7890625" xlink:href="#BitstreamVeraSans-Roman-30"/>
       <use x="147.412109375" xlink:href="#BitstreamVeraSans-Roman-2e"/>
       <use x="179.19921875" xlink:href="#BitstreamVeraSans-Roman-32"/>
      </g>
     </g>
    </g>
    <g id="ytick_9">
     <g id="line2d_53">
      <defs>
       <path d="
M0 0
L4 0" id="m90b1029f7d"/>
      </defs>
      <g>
       <use style="stroke:#000000;stroke-linecap:butt;stroke-width:0.5;" x="72.0" xlink:href="#m90b1029f7d" y="950.025974026"/>
      </g>
     </g>
     <g id="line2d_54">
      <defs>
       <path d="
M0 0
L-4 0" id="maae0a9f880"/>
      </defs>
      <g>
       <use style="stroke:#000000;stroke-linecap:butt;stroke-width:0.5;" x="518.4" xlink:href="#maae0a9f880" y="950.025974026"/>
      </g>
     </g>
     <g id="text_28">
      <!-- 0.0 -->
      <g transform="translate(53.4203125 953.665817776)scale(0.1 -0.1)">
       <use xlink:href="#BitstreamVeraSans-Roman-30"/>
       <use x="63.623046875" xlink:href="#BitstreamVeraSans-Roman-2e"/>
       <use x="95.41015625" xlink:href="#BitstreamVeraSans-Roman-30"/>
      </g>
     </g>
    </g>
    <g id="ytick_10">
     <g id="line2d_55">
      <defs>
       <path d="
M0 0
L4 0" id="m90b1029f7d"/>
      </defs>
      <g>
       <use style="stroke:#000000;stroke-linecap:butt;stroke-width:0.5;" x="72.0" xlink:href="#m90b1029f7d" y="892.051948052"/>
      </g>
     </g>
     <g id="line2d_56">
      <defs>
       <path d="
M0 0
L-4 0" id="maae0a9f880"/>
      </defs>
      <g>
       <use style="stroke:#000000;stroke-linecap:butt;stroke-width:0.5;" x="518.4" xlink:href="#maae0a9f880" y="892.051948052"/>
      </g>
     </g>
     <g id="text_29">
      <!-- 0.2 -->
      <g transform="translate(53.7578125 895.691791802)scale(0.1 -0.1)">
       <use xlink:href="#BitstreamVeraSans-Roman-30"/>
       <use x="63.623046875" xlink:href="#BitstreamVeraSans-Roman-2e"/>
       <use x="95.41015625" xlink:href="#BitstreamVeraSans-Roman-32"/>
      </g>
     </g>
    </g>
    <g id="ytick_11">
     <g id="line2d_57">
      <defs>
       <path d="
M0 0
L4 0" id="m90b1029f7d"/>
      </defs>
      <g>
       <use style="stroke:#000000;stroke-linecap:butt;stroke-width:0.5;" x="72.0" xlink:href="#m90b1029f7d" y="834.077922078"/>
      </g>
     </g>
     <g id="line2d_58">
      <defs>
       <path d="
M0 0
L-4 0" id="maae0a9f880"/>
      </defs>
      <g>
       <use style="stroke:#000000;stroke-linecap:butt;stroke-width:0.5;" x="518.4" xlink:href="#maae0a9f880" y="834.077922078"/>
      </g>
     </g>
     <g id="text_30">
      <!-- 0.4 -->
      <g transform="translate(53.3171875 837.717765828)scale(0.1 -0.1)">
       <use xlink:href="#BitstreamVeraSans-Roman-30"/>
       <use x="63.623046875" xlink:href="#BitstreamVeraSans-Roman-2e"/>
       <use x="95.41015625" xlink:href="#BitstreamVeraSans-Roman-34"/>
      </g>
     </g>
    </g>
    <g id="ytick_12">
     <g id="line2d_59">
      <defs>
       <path d="
M0 0
L4 0" id="m90b1029f7d"/>
      </defs>
      <g>
       <use style="stroke:#000000;stroke-linecap:butt;stroke-width:0.5;" x="72.0" xlink:href="#m90b1029f7d" y="776.103896104"/>
      </g>
     </g>
     <g id="line2d_60">
      <defs>
       <path d="
M0 0
L-4 0" id="maae0a9f880"/>
      </defs>
      <g>
       <use style="stroke:#000000;stroke-linecap:butt;stroke-width:0.5;" x="518.4" xlink:href="#maae0a9f880" y="776.103896104"/>
      </g>
     </g>
     <g id="text_31">
      <!-- 0.6 -->
      <defs>
       <path d="
M33.0156 40.375
Q26.375 40.375 22.4844 35.8281
Q18.6094 31.2969 18.6094 23.3906
Q18.6094 15.5312 22.4844 10.9531
Q26.375 6.39062 33.0156 6.39062
Q39.6562 6.39062 43.5312 10.9531
Q47.4062 15.5312 47.4062 23.3906
Q47.4062 31.2969 43.5312 35.8281
Q39.6562 40.375 33.0156 40.375
M52.5938 71.2969
L52.5938 62.3125
Q48.875 64.0625 45.0938 64.9844
Q41.3125 65.9219 37.5938 65.9219
Q27.8281 65.9219 22.6719 59.3281
Q17.5312 52.7344 16.7969 39.4062
Q19.6719 43.6562 24.0156 45.9219
Q28.375 48.1875 33.5938 48.1875
Q44.5781 48.1875 50.9531 41.5156
Q57.3281 34.8594 57.3281 23.3906
Q57.3281 12.1562 50.6875 5.35938
Q44.0469 -1.42188 33.0156 -1.42188
Q20.3594 -1.42188 13.6719 8.26562
Q6.98438 17.9688 6.98438 36.375
Q6.98438 53.6562 15.1875 63.9375
Q23.3906 74.2188 37.2031 74.2188
Q40.9219 74.2188 44.7031 73.4844
Q48.4844 72.75 52.5938 71.2969" id="BitstreamVeraSans-Roman-36"/>
      </defs>
      <g transform="translate(53.3859375 779.743739854)scale(0.1 -0.1)">
       <use xlink:href="#BitstreamVeraSans-Roman-30"/>
       <use x="63.623046875" xlink:href="#BitstreamVeraSans-Roman-2e"/>
       <use x="95.41015625" xlink:href="#BitstreamVeraSans-Roman-36"/>
      </g>
     </g>
    </g>
    <g id="ytick_13">
     <g id="line2d_61">
      <defs>
       <path d="
M0 0
L4 0" id="m90b1029f7d"/>
      </defs>
      <g>
       <use style="stroke:#000000;stroke-linecap:butt;stroke-width:0.5;" x="72.0" xlink:href="#m90b1029f7d" y="718.12987013"/>
      </g>
     </g>
     <g id="line2d_62">
      <defs>
       <path d="
M0 0
L-4 0" id="maae0a9f880"/>
      </defs>
      <g>
       <use style="stroke:#000000;stroke-linecap:butt;stroke-width:0.5;" x="518.4" xlink:href="#maae0a9f880" y="718.12987013"/>
      </g>
     </g>
     <g id="text_32">
      <!-- 0.8 -->
      <defs>
       <path d="
M31.7812 34.625
Q24.75 34.625 20.7188 30.8594
Q16.7031 27.0938 16.7031 20.5156
Q16.7031 13.9219 20.7188 10.1562
Q24.75 6.39062 31.7812 6.39062
Q38.8125 6.39062 42.8594 10.1719
Q46.9219 13.9688 46.9219 20.5156
Q46.9219 27.0938 42.8906 30.8594
Q38.875 34.625 31.7812 34.625
M21.9219 38.8125
Q15.5781 40.375 12.0312 44.7188
Q8.5 49.0781 8.5 55.3281
Q8.5 64.0625 14.7188 69.1406
Q20.9531 74.2188 31.7812 74.2188
Q42.6719 74.2188 48.875 69.1406
Q55.0781 64.0625 55.0781 55.3281
Q55.0781 49.0781 51.5312 44.7188
Q48 40.375 41.7031 38.8125
Q48.8281 37.1562 52.7969 32.3125
Q56.7812 27.4844 56.7812 20.5156
Q56.7812 9.90625 50.3125 4.23438
Q43.8438 -1.42188 31.7812 -1.42188
Q19.7344 -1.42188 13.25 4.23438
Q6.78125 9.90625 6.78125 20.5156
Q6.78125 27.4844 10.7812 32.3125
Q14.7969 37.1562 21.9219 38.8125
M18.3125 54.3906
Q18.3125 48.7344 21.8438 45.5625
Q25.3906 42.3906 31.7812 42.3906
Q38.1406 42.3906 41.7188 45.5625
Q45.3125 48.7344 45.3125 54.3906
Q45.3125 60.0625 41.7188 63.2344
Q38.1406 66.4062 31.7812 66.4062
Q25.3906 66.4062 21.8438 63.2344
Q18.3125 60.0625 18.3125 54.3906" id="BitstreamVeraSans-Roman-38"/>
      </defs>
      <g transform="translate(53.440625 721.76971388)scale(0.1 -0.1)">
       <use xlink:href="#BitstreamVeraSans-Roman-30"/>
       <use x="63.623046875" xlink:href="#BitstreamVeraSans-Roman-2e"/>
       <use x="95.41015625" xlink:href="#BitstreamVeraSans-Roman-38"/>
      </g>
     </g>
    </g>
    <g id="ytick_14">
     <g id="line2d_63">
      <defs>
       <path d="
M0 0
L4 0" id="m90b1029f7d"/>
      </defs>
      <g>
       <use style="stroke:#000000;stroke-linecap:butt;stroke-width:0.5;" x="72.0" xlink:href="#m90b1029f7d" y="660.155844156"/>
      </g>
     </g>
     <g id="line2d_64">
      <defs>
       <path d="
M0 0
L-4 0" id="maae0a9f880"/>
      </defs>
      <g>
       <use style="stroke:#000000;stroke-linecap:butt;stroke-width:0.5;" x="518.4" xlink:href="#maae0a9f880" y="660.155844156"/>
      </g>
     </g>
     <g id="text_33">
      <!-- 1.0 -->
      <g transform="translate(53.859375 663.795687906)scale(0.1 -0.1)">
       <use xlink:href="#BitstreamVeraSans-Roman-31"/>
       <use x="63.623046875" xlink:href="#BitstreamVeraSans-Roman-2e"/>
       <use x="95.41015625" xlink:href="#BitstreamVeraSans-Roman-30"/>
      </g>
     </g>
    </g>
    <g id="ytick_15">
     <g id="line2d_65">
      <defs>
       <path d="
M0 0
L4 0" id="m90b1029f7d"/>
      </defs>
      <g>
       <use style="stroke:#000000;stroke-linecap:butt;stroke-width:0.5;" x="72.0" xlink:href="#m90b1029f7d" y="602.181818182"/>
      </g>
     </g>
     <g id="line2d_66">
      <defs>
       <path d="
M0 0
L-4 0" id="maae0a9f880"/>
      </defs>
      <g>
       <use style="stroke:#000000;stroke-linecap:butt;stroke-width:0.5;" x="518.4" xlink:href="#maae0a9f880" y="602.181818182"/>
      </g>
     </g>
     <g id="text_34">
      <!-- 1.2 -->
      <g transform="translate(54.196875 605.892755682)scale(0.1 -0.1)">
       <use xlink:href="#BitstreamVeraSans-Roman-31"/>
       <use x="63.623046875" xlink:href="#BitstreamVeraSans-Roman-2e"/>
       <use x="95.41015625" xlink:href="#BitstreamVeraSans-Roman-32"/>
      </g>
     </g>
    </g>
    <g id="text_35">
     <!-- Acceleration (g) -->
     <g transform="translate(40.778125 842.316690341)rotate(-90.0)scale(0.1 -0.1)">
      <use xlink:href="#BitstreamVeraSans-Roman-41"/>
      <use x="66.658203125" xlink:href="#BitstreamVeraSans-Roman-63"/>
      <use x="121.638671875" xlink:href="#BitstreamVeraSans-Roman-63"/>
      <use x="176.619140625" xlink:href="#BitstreamVeraSans-Roman-65"/>
      <use x="238.142578125" xlink:href="#BitstreamVeraSans-Roman-6c"/>
      <use x="265.92578125" xlink:href="#BitstreamVeraSans-Roman-65"/>
      <use x="327.44921875" xlink:href="#BitstreamVeraSans-Roman-72"/>
      <use x="368.5625" xlink:href="#BitstreamVeraSans-Roman-61"/>
      <use x="429.841796875" xlink:href="#BitstreamVeraSans-Roman-74"/>
      <use x="469.05078125" xlink:href="#BitstreamVeraSans-Roman-69"/>
      <use x="496.833984375" xlink:href="#BitstreamVeraSans-Roman-6f"/>
      <use x="558.015625" xlink:href="#BitstreamVeraSans-Roman-6e"/>
      <use x="621.39453125" xlink:href="#BitstreamVeraSans-Roman-20"/>
      <use x="653.181640625" xlink:href="#BitstreamVeraSans-Roman-28"/>
      <use x="692.1953125" xlink:href="#BitstreamVeraSans-Roman-67"/>
      <use x="755.671875" xlink:href="#BitstreamVeraSans-Roman-29"/>
     </g>
    </g>
   </g>
   <g id="patch_8">
    <path d="
M72 602.182
L518.4 602.182" style="fill:none;stroke:#000000;"/>
   </g>
   <g id="patch_9">
    <path d="
M518.4 1008
L518.4 602.182" style="fill:none;stroke:#000000;"/>
   </g>
   <g id="patch_10">
    <path d="
M72 1008
L518.4 1008" style="fill:none;stroke:#000000;"/>
   </g>
   <g id="patch_11">
    <path d="
M72 1008
L72 602.182" style="fill:none;stroke:#000000;"/>
   </g>
   <g id="legend_1">
    <g id="patch_12">
     <path d="
M462.814 662.127
L512.4 662.127
L512.4 608.182
L462.814 608.182
L462.814 662.127
z
" style="fill:#ffffff;stroke:#000000;"/>
    </g>
    <g id="line2d_67">
     <path d="
M471.214 617.9
L488.014 617.9" style="fill:none;stroke:#ff0000;"/>
    </g>
    <g id="line2d_68"/>
    <g id="text_36">
     <!-- x -->
     <defs>
      <path d="
M54.8906 54.6875
L35.1094 28.0781
L55.9062 0
L45.3125 0
L29.3906 21.4844
L13.4844 0
L2.875 0
L24.125 28.6094
L4.6875 54.6875
L15.2812 54.6875
L29.7812 35.2031
L44.2812 54.6875
z
" id="BitstreamVeraSans-Roman-78"/>
     </defs>
     <g transform="translate(501.21375 622.099943182)scale(0.12 -0.12)">
      <use xlink:href="#BitstreamVeraSans-Roman-78"/>
     </g>
    </g>
    <g id="line2d_69">
     <path d="
M471.214 635.514
L488.014 635.514" style="fill:none;stroke:#008000;"/>
    </g>
    <g id="line2d_70"/>
    <g id="text_37">
     <!-- y -->
     <defs>
      <path d="
M32.1719 -5.07812
Q28.375 -14.8438 24.75 -17.8125
Q21.1406 -20.7969 15.0938 -20.7969
L7.90625 -20.7969
L7.90625 -13.2812
L13.1875 -13.2812
Q16.8906 -13.2812 18.9375 -11.5156
Q21 -9.76562 23.4844 -3.21875
L25.0938 0.875
L2.98438 54.6875
L12.5 54.6875
L29.5938 11.9219
L46.6875 54.6875
L56.2031 54.6875
z
" id="BitstreamVeraSans-Roman-79"/>
     </defs>
     <g transform="translate(501.21375 639.713693182)scale(0.12 -0.12)">
      <use xlink:href="#BitstreamVeraSans-Roman-79"/>
     </g>
    </g>
    <g id="line2d_71">
     <path d="
M471.214 653.127
L488.014 653.127" style="fill:none;stroke:#0000ff;"/>
    </g>
    <g id="line2d_72"/>
    <g id="text_38">
     <!-- z -->
     <defs>
      <path d="
M5.51562 54.6875
L48.1875 54.6875
L48.1875 46.4844
L14.4062 7.17188
L48.1875 7.17188
L48.1875 0
L4.29688 0
L4.29688 8.20312
L38.0938 47.5156
L5.51562 47.5156
z
" id="BitstreamVeraSans-Roman-7a"/>
     </defs>
     <g transform="translate(501.21375 657.327443182)scale(0.12 -0.12)">
      <use xlink:href="#BitstreamVeraSans-Roman-7a"/>
     </g>
    </g>
   </g>
  </g>
 </g>
 <defs>
  <clipPath id="pca13b7050c">
   <rect height="405.818181818" width="446.4" x="72.0" y="602.181818182"/>
  </clipPath>
  <clipPath id="pb66a00e9ed">
   <rect height="405.818181818" width="446.4" x="72.0" y="115.2"/>
  </clipPath>
 </defs>
</svg>
