<?xml version="1.0" encoding="utf-8" standalone="no"?>
<!DOCTYPE svg PUBLIC "-//W3C//DTD SVG 1.1//EN"
  "http://www.w3.org/Graphics/SVG/1.1/DTD/svg11.dtd">
<!-- Created with matplotlib (http://matplotlib.sourceforge.net/) -->
<svg height="1152pt" version="1.1" viewBox="0 0 576 1152" width="576pt" xmlns="http://www.w3.org/2000/svg" xmlns:xlink="http://www.w3.org/1999/xlink">
 <defs>
  <style type="text/css">
*{stroke-linecap:square;stroke-linejoin:round;}
  </style>
 </defs>
 <g id="figure_1">
  <g id="patch_1">
   <path d="
M0 1152
L576 1152
L576 0
L0 0
z
" style="fill:#ffffff;"/>
  </g>
  <g id="axes_1">
   <g id="patch_2">
    <path d="
M72 386.259
L518.4 386.259
L518.4 115.2
L72 115.2
z
" style="fill:#ffffff;"/>
   </g>
   <g id="line2d_1">
    <path clip-path="url(#pffa19bfe6e)" d="
M81.9101 294.016
L82.0886 297.918
L82.1779 296.819
L88.4275 292.822
L92.2666 292.081
L95.6592 292.684
L97.0877 292.767
L104.587 294.914
L108.516 292.741
L114.765 294.051
L114.854 294.417
L119.765 294.016
L125.3 294.654
L131.193 293.973
L131.282 294.654
L136.639 294.299
L142.174 294.062
L147.888 294.522
L149.406 294.319
L154.852 293.785
L159.494 294.951
L167.797 293.161
L167.887 294.062
L180.386 293.727
L180.475 293.148
L182.796 294.402
L185.296 293.456
L189.76 293.785
L195.564 293.8
L203.509 294.402
L206.545 295.309
L211.812 293.413
L216.366 295.042
L223.151 293.766
L223.33 294.671
L229.49 294.051
L233.329 294.627
L239.043 293.778
L239.221 294.068
L245.739 294.112
L250.56 294.371
L257.613 294.404
L261.363 293.148
L267.166 292.845
L279.665 295.649
L279.755 293.787
L279.844 294.671
L284.129 293.125
L292.075 293.424
L293.147 293.763
L296.896 294.112
L301.182 294.7
L306.896 294.424
L311.181 294.709
L312.61 295.002
L320.734 294.638
L326.627 294.062
L329.484 293.45
L329.662 292.204
L335.197 291.869
L344.572 295.276
L349.929 295.042
L350.196 294.088
L357.964 294.733
L358.053 293.482
L364.481 293.456
L365.196 294.088
L370.463 294.001
L377.784 293.153
L381.534 295.033
L383.409 293.768
L388.408 293.766
L392.426 295.256
L399.211 293.127
L402.068 294.077
L403.318 293.785
L410.55 292.803
L415.817 295.649
L419.031 294.402
L421.531 295.033
L428.138 295.009
L432.602 295.327
L432.959 294.406
L433.316 294.733
L436.262 294.395
L437.691 295.042
L439.476 295.009
L442.958 293.958
L443.048 292.784
L448.315 294.654
L448.494 295.258
L450.19 295.04
L451.619 294.402
L455.1 293.293
L455.279 292.822
L455.368 294.036
L457.69 292.936
L458.761 292.744
L461.529 292.828
L462.6 293.078
L467.064 292.357
L467.243 292.744
L467.332 294.365
L470.903 295.338
L484.741 296.428
L484.92 293.701
L485.009 296.189
L485.099 295.66
L485.277 293.746
L485.366 294.621
L485.456 294.408
L485.545 293.321
L492.152 291.879
L492.33 292.129
L492.42 291.674
L492.509 293.982
L492.598 299.999
L499.205 286.158
L499.383 285.29
L499.473 294.843
L501.258 298.758
L501.615 294.951
L505.276 292.476
L505.454 294.042
L505.454 294.042" style="fill:none;stroke:#0000ff;"/>
   </g>
   <g id="matplotlib.axis_1">
    <g id="xtick_1">
     <g id="line2d_2">
      <defs>
       <path d="
M0 0
L0 -4" id="m290183fffa"/>
      </defs>
      <g>
       <use style="stroke:#000000;stroke-linecap:butt;stroke-width:0.5;" x="72.0" xlink:href="#m290183fffa" y="386.258823529"/>
      </g>
     </g>
     <g id="line2d_3">
      <defs>
       <path d="
M0 0
L0 4" id="m335a6f4a94"/>
      </defs>
      <g>
       <use style="stroke:#000000;stroke-linecap:butt;stroke-width:0.5;" x="72.0" xlink:href="#m335a6f4a94" y="115.2"/>
      </g>
     </g>
     <g id="text_1">
      <!-- 0 -->
      <defs>
       <path d="
M31.7812 66.4062
Q24.1719 66.4062 20.3281 58.9062
Q16.5 51.4219 16.5 36.375
Q16.5 21.3906 20.3281 13.8906
Q24.1719 6.39062 31.7812 6.39062
Q39.4531 6.39062 43.2812 13.8906
Q47.125 21.3906 47.125 36.375
Q47.125 51.4219 43.2812 58.9062
Q39.4531 66.4062 31.7812 66.4062
M31.7812 74.2188
Q44.0469 74.2188 50.5156 64.5156
Q56.9844 54.8281 56.9844 36.375
Q56.9844 17.9688 50.5156 8.26562
Q44.0469 -1.42188 31.7812 -1.42188
Q19.5312 -1.42188 13.0625 8.26562
Q6.59375 17.9688 6.59375 36.375
Q6.59375 54.8281 13.0625 64.5156
Q19.5312 74.2188 31.7812 74.2188" id="BitstreamVeraSans-Roman-30"/>
      </defs>
      <g transform="translate(68.9765625 399.165073529)scale(0.12 -0.12)">
       <use xlink:href="#BitstreamVeraSans-Roman-30"/>
      </g>
     </g>
    </g>
    <g id="xtick_2">
     <g id="line2d_4">
      <defs>
       <path d="
M0 0
L0 -4" id="m290183fffa"/>
      </defs>
      <g>
       <use style="stroke:#000000;stroke-linecap:butt;stroke-width:0.5;" x="161.28" xlink:href="#m290183fffa" y="386.258823529"/>
      </g>
     </g>
     <g id="line2d_5">
      <defs>
       <path d="
M0 0
L0 4" id="m335a6f4a94"/>
      </defs>
      <g>
       <use style="stroke:#000000;stroke-linecap:butt;stroke-width:0.5;" x="161.28" xlink:href="#m335a6f4a94" y="115.2"/>
      </g>
     </g>
     <g id="text_2">
      <!-- 1 -->
      <defs>
       <path d="
M12.4062 8.29688
L28.5156 8.29688
L28.5156 63.9219
L10.9844 60.4062
L10.9844 69.3906
L28.4219 72.9062
L38.2812 72.9062
L38.2812 8.29688
L54.3906 8.29688
L54.3906 0
L12.4062 0
z
" id="BitstreamVeraSans-Roman-31"/>
      </defs>
      <g transform="translate(158.675625 399.007573529)scale(0.12 -0.12)">
       <use xlink:href="#BitstreamVeraSans-Roman-31"/>
      </g>
     </g>
    </g>
    <g id="xtick_3">
     <g id="line2d_6">
      <defs>
       <path d="
M0 0
L0 -4" id="m290183fffa"/>
      </defs>
      <g>
       <use style="stroke:#000000;stroke-linecap:butt;stroke-width:0.5;" x="250.56" xlink:href="#m290183fffa" y="386.258823529"/>
      </g>
     </g>
     <g id="line2d_7">
      <defs>
       <path d="
M0 0
L0 4" id="m335a6f4a94"/>
      </defs>
      <g>
       <use style="stroke:#000000;stroke-linecap:butt;stroke-width:0.5;" x="250.56" xlink:href="#m335a6f4a94" y="115.2"/>
      </g>
     </g>
     <g id="text_3">
      <!-- 2 -->
      <defs>
       <path d="
M19.1875 8.29688
L53.6094 8.29688
L53.6094 0
L7.32812 0
L7.32812 8.29688
Q12.9375 14.1094 22.625 23.8906
Q32.3281 33.6875 34.8125 36.5312
Q39.5469 41.8438 41.4219 45.5312
Q43.3125 49.2188 43.3125 52.7812
Q43.3125 58.5938 39.2344 62.25
Q35.1562 65.9219 28.6094 65.9219
Q23.9688 65.9219 18.8125 64.3125
Q13.6719 62.7031 7.8125 59.4219
L7.8125 69.3906
Q13.7656 71.7812 18.9375 73
Q24.125 74.2188 28.4219 74.2188
Q39.75 74.2188 46.4844 68.5469
Q53.2188 62.8906 53.2188 53.4219
Q53.2188 48.9219 51.5312 44.8906
Q49.8594 40.875 45.4062 35.4062
Q44.1875 33.9844 37.6406 27.2188
Q31.1094 20.4531 19.1875 8.29688" id="BitstreamVeraSans-Roman-32"/>
      </defs>
      <g transform="translate(247.783125 399.165073529)scale(0.12 -0.12)">
       <use xlink:href="#BitstreamVeraSans-Roman-32"/>
      </g>
     </g>
    </g>
    <g id="xtick_4">
     <g id="line2d_8">
      <defs>
       <path d="
M0 0
L0 -4" id="m290183fffa"/>
      </defs>
      <g>
       <use style="stroke:#000000;stroke-linecap:butt;stroke-width:0.5;" x="339.84" xlink:href="#m290183fffa" y="386.258823529"/>
      </g>
     </g>
     <g id="line2d_9">
      <defs>
       <path d="
M0 0
L0 4" id="m335a6f4a94"/>
      </defs>
      <g>
       <use style="stroke:#000000;stroke-linecap:butt;stroke-width:0.5;" x="339.84" xlink:href="#m335a6f4a94" y="115.2"/>
      </g>
     </g>
     <g id="text_4">
      <!-- 3 -->
      <defs>
       <path d="
M40.5781 39.3125
Q47.6562 37.7969 51.625 33
Q55.6094 28.2188 55.6094 21.1875
Q55.6094 10.4062 48.1875 4.48438
Q40.7656 -1.42188 27.0938 -1.42188
Q22.5156 -1.42188 17.6562 -0.515625
Q12.7969 0.390625 7.625 2.20312
L7.625 11.7188
Q11.7188 9.32812 16.5938 8.10938
Q21.4844 6.89062 26.8125 6.89062
Q36.0781 6.89062 40.9375 10.5469
Q45.7969 14.2031 45.7969 21.1875
Q45.7969 27.6406 41.2812 31.2656
Q36.7656 34.9062 28.7188 34.9062
L20.2188 34.9062
L20.2188 43.0156
L29.1094 43.0156
Q36.375 43.0156 40.2344 45.9219
Q44.0938 48.8281 44.0938 54.2969
Q44.0938 59.9062 40.1094 62.9062
Q36.1406 65.9219 28.7188 65.9219
Q24.6562 65.9219 20.0156 65.0312
Q15.375 64.1562 9.8125 62.3125
L9.8125 71.0938
Q15.4375 72.6562 20.3438 73.4375
Q25.25 74.2188 29.5938 74.2188
Q40.8281 74.2188 47.3594 69.1094
Q53.9062 64.0156 53.9062 55.3281
Q53.9062 49.2656 50.4375 45.0938
Q46.9688 40.9219 40.5781 39.3125" id="BitstreamVeraSans-Roman-33"/>
      </defs>
      <g transform="translate(336.9609375 399.165073529)scale(0.12 -0.12)">
       <use xlink:href="#BitstreamVeraSans-Roman-33"/>
      </g>
     </g>
    </g>
    <g id="xtick_5">
     <g id="line2d_10">
      <defs>
       <path d="
M0 0
L0 -4" id="m290183fffa"/>
      </defs>
      <g>
       <use style="stroke:#000000;stroke-linecap:butt;stroke-width:0.5;" x="429.12" xlink:href="#m290183fffa" y="386.258823529"/>
      </g>
     </g>
     <g id="line2d_11">
      <defs>
       <path d="
M0 0
L0 4" id="m335a6f4a94"/>
      </defs>
      <g>
       <use style="stroke:#000000;stroke-linecap:butt;stroke-width:0.5;" x="429.12" xlink:href="#m335a6f4a94" y="115.2"/>
      </g>
     </g>
     <g id="text_5">
      <!-- 4 -->
      <defs>
       <path d="
M37.7969 64.3125
L12.8906 25.3906
L37.7969 25.3906
z

M35.2031 72.9062
L47.6094 72.9062
L47.6094 25.3906
L58.0156 25.3906
L58.0156 17.1875
L47.6094 17.1875
L47.6094 0
L37.7969 0
L37.7969 17.1875
L4.89062 17.1875
L4.89062 26.7031
z
" id="BitstreamVeraSans-Roman-34"/>
      </defs>
      <g transform="translate(425.9325 399.007573529)scale(0.12 -0.12)">
       <use xlink:href="#BitstreamVeraSans-Roman-34"/>
      </g>
     </g>
    </g>
    <g id="xtick_6">
     <g id="line2d_12">
      <defs>
       <path d="
M0 0
L0 -4" id="m290183fffa"/>
      </defs>
      <g>
       <use style="stroke:#000000;stroke-linecap:butt;stroke-width:0.5;" x="518.4" xlink:href="#m290183fffa" y="386.258823529"/>
      </g>
     </g>
     <g id="line2d_13">
      <defs>
       <path d="
M0 0
L0 4" id="m335a6f4a94"/>
      </defs>
      <g>
       <use style="stroke:#000000;stroke-linecap:butt;stroke-width:0.5;" x="518.4" xlink:href="#m335a6f4a94" y="115.2"/>
      </g>
     </g>
     <g id="text_6">
      <!-- 5 -->
      <defs>
       <path d="
M10.7969 72.9062
L49.5156 72.9062
L49.5156 64.5938
L19.8281 64.5938
L19.8281 46.7344
Q21.9688 47.4688 24.1094 47.8281
Q26.2656 48.1875 28.4219 48.1875
Q40.625 48.1875 47.75 41.5
Q54.8906 34.8125 54.8906 23.3906
Q54.8906 11.625 47.5625 5.09375
Q40.2344 -1.42188 26.9062 -1.42188
Q22.3125 -1.42188 17.5469 -0.640625
Q12.7969 0.140625 7.71875 1.70312
L7.71875 11.625
Q12.1094 9.23438 16.7969 8.0625
Q21.4844 6.89062 26.7031 6.89062
Q35.1562 6.89062 40.0781 11.3281
Q45.0156 15.7656 45.0156 23.3906
Q45.0156 31 40.0781 35.4375
Q35.1562 39.8906 26.7031 39.8906
Q22.75 39.8906 18.8125 39.0156
Q14.8906 38.1406 10.7969 36.2812
z
" id="BitstreamVeraSans-Roman-35"/>
      </defs>
      <g transform="translate(515.5696875 399.007573529)scale(0.12 -0.12)">
       <use xlink:href="#BitstreamVeraSans-Roman-35"/>
      </g>
     </g>
    </g>
    <g id="text_7">
     <!-- Time (s) -->
     <defs>
      <path id="BitstreamVeraSans-Roman-20"/>
      <path d="
M8.01562 75.875
L15.8281 75.875
Q23.1406 64.3594 26.7812 53.3125
Q30.4219 42.2812 30.4219 31.3906
Q30.4219 20.4531 26.7812 9.375
Q23.1406 -1.70312 15.8281 -13.1875
L8.01562 -13.1875
Q14.5 -2 17.7031 9.0625
Q20.9062 20.125 20.9062 31.3906
Q20.9062 42.6719 17.7031 53.6562
Q14.5 64.6562 8.01562 75.875" id="BitstreamVeraSans-Roman-29"/>
      <path d="
M31 75.875
Q24.4688 64.6562 21.2812 53.6562
Q18.1094 42.6719 18.1094 31.3906
Q18.1094 20.125 21.3125 9.0625
Q24.5156 -2 31 -13.1875
L23.1875 -13.1875
Q15.875 -1.70312 12.2344 9.375
Q8.59375 20.4531 8.59375 31.3906
Q8.59375 42.2812 12.2031 53.3125
Q15.8281 64.3594 23.1875 75.875
z
" id="BitstreamVeraSans-Roman-28"/>
      <path d="
M9.42188 54.6875
L18.4062 54.6875
L18.4062 0
L9.42188 0
z

M9.42188 75.9844
L18.4062 75.9844
L18.4062 64.5938
L9.42188 64.5938
z
" id="BitstreamVeraSans-Roman-69"/>
      <path d="
M52 44.1875
Q55.375 50.25 60.0625 53.125
Q64.75 56 71.0938 56
Q79.6406 56 84.2812 50.0156
Q88.9219 44.0469 88.9219 33.0156
L88.9219 0
L79.8906 0
L79.8906 32.7188
Q79.8906 40.5781 77.0938 44.375
Q74.3125 48.1875 68.6094 48.1875
Q61.625 48.1875 57.5625 43.5469
Q53.5156 38.9219 53.5156 30.9062
L53.5156 0
L44.4844 0
L44.4844 32.7188
Q44.4844 40.625 41.7031 44.4062
Q38.9219 48.1875 33.1094 48.1875
Q26.2188 48.1875 22.1562 43.5312
Q18.1094 38.875 18.1094 30.9062
L18.1094 0
L9.07812 0
L9.07812 54.6875
L18.1094 54.6875
L18.1094 46.1875
Q21.1875 51.2188 25.4844 53.6094
Q29.7812 56 35.6875 56
Q41.6562 56 45.8281 52.9688
Q50 49.9531 52 44.1875" id="BitstreamVeraSans-Roman-6d"/>
      <path d="
M56.2031 29.5938
L56.2031 25.2031
L14.8906 25.2031
Q15.4844 15.9219 20.4844 11.0625
Q25.4844 6.20312 34.4219 6.20312
Q39.5938 6.20312 44.4531 7.46875
Q49.3125 8.73438 54.1094 11.2812
L54.1094 2.78125
Q49.2656 0.734375 44.1875 -0.34375
Q39.1094 -1.42188 33.8906 -1.42188
Q20.7969 -1.42188 13.1562 6.1875
Q5.51562 13.8125 5.51562 26.8125
Q5.51562 40.2344 12.7656 48.1094
Q20.0156 56 32.3281 56
Q43.3594 56 49.7812 48.8906
Q56.2031 41.7969 56.2031 29.5938
M47.2188 32.2344
Q47.125 39.5938 43.0938 43.9844
Q39.0625 48.3906 32.4219 48.3906
Q24.9062 48.3906 20.3906 44.1406
Q15.875 39.8906 15.1875 32.1719
z
" id="BitstreamVeraSans-Roman-65"/>
      <path d="
M-0.296875 72.9062
L61.375 72.9062
L61.375 64.5938
L35.5 64.5938
L35.5 0
L25.5938 0
L25.5938 64.5938
L-0.296875 64.5938
z
" id="BitstreamVeraSans-Roman-54"/>
      <path d="
M44.2812 53.0781
L44.2812 44.5781
Q40.4844 46.5312 36.375 47.5
Q32.2812 48.4844 27.875 48.4844
Q21.1875 48.4844 17.8438 46.4375
Q14.5 44.3906 14.5 40.2812
Q14.5 37.1562 16.8906 35.375
Q19.2812 33.5938 26.5156 31.9844
L29.5938 31.2969
Q39.1562 29.25 43.1875 25.5156
Q47.2188 21.7812 47.2188 15.0938
Q47.2188 7.46875 41.1875 3.01562
Q35.1562 -1.42188 24.6094 -1.42188
Q20.2188 -1.42188 15.4531 -0.5625
Q10.6875 0.296875 5.42188 2
L5.42188 11.2812
Q10.4062 8.6875 15.2344 7.39062
Q20.0625 6.10938 24.8125 6.10938
Q31.1562 6.10938 34.5625 8.28125
Q37.9844 10.4531 37.9844 14.4062
Q37.9844 18.0625 35.5156 20.0156
Q33.0625 21.9688 24.7031 23.7812
L21.5781 24.5156
Q13.2344 26.2656 9.51562 29.9062
Q5.8125 33.5469 5.8125 39.8906
Q5.8125 47.6094 11.2812 51.7969
Q16.75 56 26.8125 56
Q31.7812 56 36.1719 55.2656
Q40.5781 54.5469 44.2812 53.0781" id="BitstreamVeraSans-Roman-73"/>
     </defs>
     <g transform="translate(271.303125 413.453823529)scale(0.12 -0.12)">
      <use xlink:href="#BitstreamVeraSans-Roman-54"/>
      <use x="57.958984375" xlink:href="#BitstreamVeraSans-Roman-69"/>
      <use x="85.7421875" xlink:href="#BitstreamVeraSans-Roman-6d"/>
      <use x="183.154296875" xlink:href="#BitstreamVeraSans-Roman-65"/>
      <use x="244.677734375" xlink:href="#BitstreamVeraSans-Roman-20"/>
      <use x="276.46484375" xlink:href="#BitstreamVeraSans-Roman-28"/>
      <use x="315.478515625" xlink:href="#BitstreamVeraSans-Roman-73"/>
      <use x="367.578125" xlink:href="#BitstreamVeraSans-Roman-29"/>
     </g>
    </g>
   </g>
   <g id="matplotlib.axis_2">
    <g id="ytick_1">
     <g id="line2d_14">
      <defs>
       <path d="
M0 0
L4 0" id="me52992f0c3"/>
      </defs>
      <g>
       <use style="stroke:#000000;stroke-linecap:butt;stroke-width:0.5;" x="72.0" xlink:href="#me52992f0c3" y="386.258823529"/>
      </g>
     </g>
     <g id="line2d_15">
      <defs>
       <path d="
M0 0
L-4 0" id="m7bffd45116"/>
      </defs>
      <g>
       <use style="stroke:#000000;stroke-linecap:butt;stroke-width:0.5;" x="518.4" xlink:href="#m7bffd45116" y="386.258823529"/>
      </g>
     </g>
     <g id="text_8">
      <!-- −1 -->
      <defs>
       <path d="
M10.5938 35.5
L73.1875 35.5
L73.1875 27.2031
L10.5938 27.2031
z
" id="BitstreamVeraSans-Roman-2212"/>
      </defs>
      <g transform="translate(52.68875 390.633198529)scale(0.12 -0.12)">
       <use xlink:href="#BitstreamVeraSans-Roman-2212"/>
       <use x="83.7890625" xlink:href="#BitstreamVeraSans-Roman-31"/>
      </g>
     </g>
    </g>
    <g id="ytick_2">
     <g id="line2d_16">
      <defs>
       <path d="
M0 0
L4 0" id="me52992f0c3"/>
      </defs>
      <g>
       <use style="stroke:#000000;stroke-linecap:butt;stroke-width:0.5;" x="72.0" xlink:href="#me52992f0c3" y="341.082352941"/>
      </g>
     </g>
     <g id="line2d_17">
      <defs>
       <path d="
M0 0
L-4 0" id="m7bffd45116"/>
      </defs>
      <g>
       <use style="stroke:#000000;stroke-linecap:butt;stroke-width:0.5;" x="518.4" xlink:href="#m7bffd45116" y="341.082352941"/>
      </g>
     </g>
     <g id="text_9">
      <!-- 0 -->
      <g transform="translate(61.953125 345.450165441)scale(0.12 -0.12)">
       <use xlink:href="#BitstreamVeraSans-Roman-30"/>
      </g>
     </g>
    </g>
    <g id="ytick_3">
     <g id="line2d_18">
      <defs>
       <path d="
M0 0
L4 0" id="me52992f0c3"/>
      </defs>
      <g>
       <use style="stroke:#000000;stroke-linecap:butt;stroke-width:0.5;" x="72.0" xlink:href="#me52992f0c3" y="295.905882353"/>
      </g>
     </g>
     <g id="line2d_19">
      <defs>
       <path d="
M0 0
L-4 0" id="m7bffd45116"/>
      </defs>
      <g>
       <use style="stroke:#000000;stroke-linecap:butt;stroke-width:0.5;" x="518.4" xlink:href="#m7bffd45116" y="295.905882353"/>
      </g>
     </g>
     <g id="text_10">
      <!-- 1 -->
      <g transform="translate(62.79125 300.280257353)scale(0.12 -0.12)">
       <use xlink:href="#BitstreamVeraSans-Roman-31"/>
      </g>
     </g>
    </g>
    <g id="ytick_4">
     <g id="line2d_20">
      <defs>
       <path d="
M0 0
L4 0" id="me52992f0c3"/>
      </defs>
      <g>
       <use style="stroke:#000000;stroke-linecap:butt;stroke-width:0.5;" x="72.0" xlink:href="#me52992f0c3" y="250.729411765"/>
      </g>
     </g>
     <g id="line2d_21">
      <defs>
       <path d="
M0 0
L-4 0" id="m7bffd45116"/>
      </defs>
      <g>
       <use style="stroke:#000000;stroke-linecap:butt;stroke-width:0.5;" x="518.4" xlink:href="#m7bffd45116" y="250.729411765"/>
      </g>
     </g>
     <g id="text_11">
      <!-- 2 -->
      <g transform="translate(62.44625 255.182536765)scale(0.12 -0.12)">
       <use xlink:href="#BitstreamVeraSans-Roman-32"/>
      </g>
     </g>
    </g>
    <g id="ytick_5">
     <g id="line2d_22">
      <defs>
       <path d="
M0 0
L4 0" id="me52992f0c3"/>
      </defs>
      <g>
       <use style="stroke:#000000;stroke-linecap:butt;stroke-width:0.5;" x="72.0" xlink:href="#me52992f0c3" y="205.552941176"/>
      </g>
     </g>
     <g id="line2d_23">
      <defs>
       <path d="
M0 0
L-4 0" id="m7bffd45116"/>
      </defs>
      <g>
       <use style="stroke:#000000;stroke-linecap:butt;stroke-width:0.5;" x="518.4" xlink:href="#m7bffd45116" y="205.552941176"/>
      </g>
     </g>
     <g id="text_12">
      <!-- 3 -->
      <g transform="translate(62.241875 209.920753676)scale(0.12 -0.12)">
       <use xlink:href="#BitstreamVeraSans-Roman-33"/>
      </g>
     </g>
    </g>
    <g id="ytick_6">
     <g id="line2d_24">
      <defs>
       <path d="
M0 0
L4 0" id="me52992f0c3"/>
      </defs>
      <g>
       <use style="stroke:#000000;stroke-linecap:butt;stroke-width:0.5;" x="72.0" xlink:href="#me52992f0c3" y="160.376470588"/>
      </g>
     </g>
     <g id="line2d_25">
      <defs>
       <path d="
M0 0
L-4 0" id="m7bffd45116"/>
      </defs>
      <g>
       <use style="stroke:#000000;stroke-linecap:butt;stroke-width:0.5;" x="518.4" xlink:href="#m7bffd45116" y="160.376470588"/>
      </g>
     </g>
     <g id="text_13">
      <!-- 4 -->
      <g transform="translate(61.625 164.750845588)scale(0.12 -0.12)">
       <use xlink:href="#BitstreamVeraSans-Roman-34"/>
      </g>
     </g>
    </g>
    <g id="ytick_7">
     <g id="line2d_26">
      <defs>
       <path d="
M0 0
L4 0" id="me52992f0c3"/>
      </defs>
      <g>
       <use style="stroke:#000000;stroke-linecap:butt;stroke-width:0.5;" x="72.0" xlink:href="#me52992f0c3" y="115.2"/>
      </g>
     </g>
     <g id="line2d_27">
      <defs>
       <path d="
M0 0
L-4 0" id="m7bffd45116"/>
      </defs>
      <g>
       <use style="stroke:#000000;stroke-linecap:butt;stroke-width:0.5;" x="518.4" xlink:href="#m7bffd45116" y="115.2"/>
      </g>
     </g>
     <g id="text_14">
      <!-- 5 -->
      <g transform="translate(62.339375 119.4890625)scale(0.12 -0.12)">
       <use xlink:href="#BitstreamVeraSans-Roman-35"/>
      </g>
     </g>
    </g>
    <g id="text_15">
     <!-- Acceleration (g) -->
     <defs>
      <path d="
M54.8906 33.0156
L54.8906 0
L45.9062 0
L45.9062 32.7188
Q45.9062 40.4844 42.875 44.3281
Q39.8438 48.1875 33.7969 48.1875
Q26.5156 48.1875 22.3125 43.5469
Q18.1094 38.9219 18.1094 30.9062
L18.1094 0
L9.07812 0
L9.07812 54.6875
L18.1094 54.6875
L18.1094 46.1875
Q21.3438 51.125 25.7031 53.5625
Q30.0781 56 35.7969 56
Q45.2188 56 50.0469 50.1719
Q54.8906 44.3438 54.8906 33.0156" id="BitstreamVeraSans-Roman-6e"/>
      <path d="
M41.1094 46.2969
Q39.5938 47.1719 37.8125 47.5781
Q36.0312 48 33.8906 48
Q26.2656 48 22.1875 43.0469
Q18.1094 38.0938 18.1094 28.8125
L18.1094 0
L9.07812 0
L9.07812 54.6875
L18.1094 54.6875
L18.1094 46.1875
Q20.9531 51.1719 25.4844 53.5781
Q30.0312 56 36.5312 56
Q37.4531 56 38.5781 55.875
Q39.7031 55.7656 41.0625 55.5156
z
" id="BitstreamVeraSans-Roman-72"/>
      <path d="
M30.6094 48.3906
Q23.3906 48.3906 19.1875 42.75
Q14.9844 37.1094 14.9844 27.2969
Q14.9844 17.4844 19.1562 11.8438
Q23.3438 6.20312 30.6094 6.20312
Q37.7969 6.20312 41.9844 11.8594
Q46.1875 17.5312 46.1875 27.2969
Q46.1875 37.0156 41.9844 42.7031
Q37.7969 48.3906 30.6094 48.3906
M30.6094 56
Q42.3281 56 49.0156 48.375
Q55.7188 40.7656 55.7188 27.2969
Q55.7188 13.875 49.0156 6.21875
Q42.3281 -1.42188 30.6094 -1.42188
Q18.8438 -1.42188 12.1719 6.21875
Q5.51562 13.875 5.51562 27.2969
Q5.51562 40.7656 12.1719 48.375
Q18.8438 56 30.6094 56" id="BitstreamVeraSans-Roman-6f"/>
      <path d="
M9.42188 75.9844
L18.4062 75.9844
L18.4062 0
L9.42188 0
z
" id="BitstreamVeraSans-Roman-6c"/>
      <path d="
M34.1875 63.1875
L20.7969 26.9062
L47.6094 26.9062
z

M28.6094 72.9062
L39.7969 72.9062
L67.5781 0
L57.3281 0
L50.6875 18.7031
L17.8281 18.7031
L11.1875 0
L0.78125 0
z
" id="BitstreamVeraSans-Roman-41"/>
      <path d="
M18.3125 70.2188
L18.3125 54.6875
L36.8125 54.6875
L36.8125 47.7031
L18.3125 47.7031
L18.3125 18.0156
Q18.3125 11.3281 20.1406 9.42188
Q21.9688 7.51562 27.5938 7.51562
L36.8125 7.51562
L36.8125 0
L27.5938 0
Q17.1875 0 13.2344 3.875
Q9.28125 7.76562 9.28125 18.0156
L9.28125 47.7031
L2.6875 47.7031
L2.6875 54.6875
L9.28125 54.6875
L9.28125 70.2188
z
" id="BitstreamVeraSans-Roman-74"/>
      <path d="
M34.2812 27.4844
Q23.3906 27.4844 19.1875 25
Q14.9844 22.5156 14.9844 16.5
Q14.9844 11.7188 18.1406 8.90625
Q21.2969 6.10938 26.7031 6.10938
Q34.1875 6.10938 38.7031 11.4062
Q43.2188 16.7031 43.2188 25.4844
L43.2188 27.4844
z

M52.2031 31.2031
L52.2031 0
L43.2188 0
L43.2188 8.29688
Q40.1406 3.32812 35.5469 0.953125
Q30.9531 -1.42188 24.3125 -1.42188
Q15.9219 -1.42188 10.9531 3.29688
Q6 8.01562 6 15.9219
Q6 25.1406 12.1719 29.8281
Q18.3594 34.5156 30.6094 34.5156
L43.2188 34.5156
L43.2188 35.4062
Q43.2188 41.6094 39.1406 45
Q35.0625 48.3906 27.6875 48.3906
Q23 48.3906 18.5469 47.2656
Q14.1094 46.1406 10.0156 43.8906
L10.0156 52.2031
Q14.9375 54.1094 19.5781 55.0469
Q24.2188 56 28.6094 56
Q40.4844 56 46.3438 49.8438
Q52.2031 43.7031 52.2031 31.2031" id="BitstreamVeraSans-Roman-61"/>
      <path d="
M45.4062 27.9844
Q45.4062 37.75 41.375 43.1094
Q37.3594 48.4844 30.0781 48.4844
Q22.8594 48.4844 18.8281 43.1094
Q14.7969 37.75 14.7969 27.9844
Q14.7969 18.2656 18.8281 12.8906
Q22.8594 7.51562 30.0781 7.51562
Q37.3594 7.51562 41.375 12.8906
Q45.4062 18.2656 45.4062 27.9844
M54.3906 6.78125
Q54.3906 -7.17188 48.1875 -13.9844
Q42 -20.7969 29.2031 -20.7969
Q24.4688 -20.7969 20.2656 -20.0938
Q16.0625 -19.3906 12.1094 -17.9219
L12.1094 -9.1875
Q16.0625 -11.3281 19.9219 -12.3438
Q23.7812 -13.375 27.7812 -13.375
Q36.625 -13.375 41.0156 -8.76562
Q45.4062 -4.15625 45.4062 5.17188
L45.4062 9.625
Q42.625 4.78125 38.2812 2.39062
Q33.9375 0 27.875 0
Q17.8281 0 11.6719 7.65625
Q5.51562 15.3281 5.51562 27.9844
Q5.51562 40.6719 11.6719 48.3281
Q17.8281 56 27.875 56
Q33.9375 56 38.2812 53.6094
Q42.625 51.2188 45.4062 46.3906
L45.4062 54.6875
L54.3906 54.6875
z
" id="BitstreamVeraSans-Roman-67"/>
      <path d="
M48.7812 52.5938
L48.7812 44.1875
Q44.9688 46.2969 41.1406 47.3438
Q37.3125 48.3906 33.4062 48.3906
Q24.6562 48.3906 19.8125 42.8438
Q14.9844 37.3125 14.9844 27.2969
Q14.9844 17.2812 19.8125 11.7344
Q24.6562 6.20312 33.4062 6.20312
Q37.3125 6.20312 41.1406 7.25
Q44.9688 8.29688 48.7812 10.4062
L48.7812 2.09375
Q45.0156 0.34375 40.9844 -0.53125
Q36.9688 -1.42188 32.4219 -1.42188
Q20.0625 -1.42188 12.7812 6.34375
Q5.51562 14.1094 5.51562 27.2969
Q5.51562 40.6719 12.8594 48.3281
Q20.2188 56 33.0156 56
Q37.1562 56 41.1094 55.1406
Q45.0625 54.2969 48.7812 52.5938" id="BitstreamVeraSans-Roman-63"/>
     </defs>
     <g transform="translate(47.68875 295.400349265)rotate(-90.0)scale(0.12 -0.12)">
      <use xlink:href="#BitstreamVeraSans-Roman-41"/>
      <use x="66.658203125" xlink:href="#BitstreamVeraSans-Roman-63"/>
      <use x="121.638671875" xlink:href="#BitstreamVeraSans-Roman-63"/>
      <use x="176.619140625" xlink:href="#BitstreamVeraSans-Roman-65"/>
      <use x="238.142578125" xlink:href="#BitstreamVeraSans-Roman-6c"/>
      <use x="265.92578125" xlink:href="#BitstreamVeraSans-Roman-65"/>
      <use x="327.44921875" xlink:href="#BitstreamVeraSans-Roman-72"/>
      <use x="368.5625" xlink:href="#BitstreamVeraSans-Roman-61"/>
      <use x="429.841796875" xlink:href="#BitstreamVeraSans-Roman-74"/>
      <use x="469.05078125" xlink:href="#BitstreamVeraSans-Roman-69"/>
      <use x="496.833984375" xlink:href="#BitstreamVeraSans-Roman-6f"/>
      <use x="558.015625" xlink:href="#BitstreamVeraSans-Roman-6e"/>
      <use x="621.39453125" xlink:href="#BitstreamVeraSans-Roman-20"/>
      <use x="653.181640625" xlink:href="#BitstreamVeraSans-Roman-28"/>
      <use x="692.1953125" xlink:href="#BitstreamVeraSans-Roman-67"/>
      <use x="755.671875" xlink:href="#BitstreamVeraSans-Roman-29"/>
     </g>
    </g>
   </g>
   <g id="patch_3">
    <path d="
M72 115.2
L518.4 115.2" style="fill:none;stroke:#000000;"/>
   </g>
   <g id="patch_4">
    <path d="
M518.4 386.259
L518.4 115.2" style="fill:none;stroke:#000000;"/>
   </g>
   <g id="patch_5">
    <path d="
M72 386.259
L518.4 386.259" style="fill:none;stroke:#000000;"/>
   </g>
   <g id="patch_6">
    <path d="
M72 386.259
L72 115.2" style="fill:none;stroke:#000000;"/>
   </g>
  </g>
  <g id="axes_2">
   <g id="patch_7">
    <path d="
M72 711.529
L518.4 711.529
L518.4 440.471
L72 440.471
z
" style="fill:#ffffff;"/>
   </g>
   <g id="line2d_28">
    <path clip-path="url(#p6e9d9a485d)" d="
M81.9101 673.129
L82.0886 655.059
L82.1779 648.282
L88.4275 648.282
L92.2666 652.8
L95.6592 652.8
L97.0877 655.059
L104.587 661.835
L108.516 655.059
L114.765 659.576
L114.854 661.835
L119.765 655.059
L125.3 659.576
L131.282 659.576
L136.639 657.318
L142.174 657.318
L147.888 650.541
L149.406 655.059
L154.852 668.612
L159.494 659.576
L167.797 666.353
L167.887 661.835
L180.386 661.835
L180.475 666.353
L182.796 664.094
L189.76 664.094
L195.564 666.353
L201.724 657.318
L203.509 664.094
L206.545 668.612
L211.812 659.576
L216.366 675.388
L223.151 666.353
L223.33 664.094
L229.49 673.129
L233.329 664.094
L239.043 670.871
L239.221 668.612
L245.739 664.094
L250.56 664.094
L256.006 668.612
L257.613 666.353
L279.755 666.353
L279.844 668.612
L284.129 664.094
L292.075 657.318
L293.147 664.094
L296.896 668.612
L301.182 661.835
L306.896 664.094
L311.181 666.353
L312.61 670.871
L320.734 657.318
L326.627 657.318
L329.484 661.835
L329.662 668.612
L335.197 659.576
L344.572 657.318
L349.929 666.353
L350.196 661.835
L358.053 664.094
L364.481 659.576
L365.196 661.835
L370.463 657.318
L377.784 661.835
L381.534 661.835
L383.409 659.576
L388.408 657.318
L392.426 655.059
L399.211 657.318
L402.068 659.576
L403.318 668.612
L410.55 657.318
L415.817 666.353
L419.031 664.094
L421.531 670.871
L432.602 659.576
L433.316 659.576
L436.262 661.835
L437.691 666.353
L439.476 664.094
L442.958 652.8
L443.048 655.059
L444.744 652.8
L448.315 655.059
L448.494 661.835
L450.19 664.094
L451.619 664.094
L455.1 650.541
L455.279 648.282
L455.368 657.318
L457.69 652.8
L458.761 652.8
L461.529 661.835
L462.6 659.576
L467.064 650.541
L467.243 652.8
L467.332 661.835
L470.814 664.094
L470.903 661.835
L484.741 655.059
L484.92 657.318
L485.009 655.059
L485.188 675.388
L485.456 639.247
L485.545 652.8
L492.152 661.835
L492.33 655.059
L492.42 639.247
L492.509 655.059
L492.598 607.624
L499.205 657.318
L499.383 657.318
L499.473 652.8
L501.258 657.318
L501.615 659.576
L505.276 657.318
L505.454 655.059
L505.454 655.059" style="fill:none;stroke:#ff0000;"/>
   </g>
   <g id="line2d_29">
    <path clip-path="url(#p6e9d9a485d)" d="
M81.9101 490.165
L82.0886 485.647
L82.1779 485.647
L88.4275 481.129
L92.2666 485.647
L95.6592 485.647
L97.0877 490.165
L104.587 490.165
L108.516 487.906
L114.765 492.424
L114.854 496.941
L119.765 492.424
L125.3 492.424
L131.193 487.906
L131.282 492.424
L136.639 490.165
L142.174 494.682
L147.888 490.165
L149.406 492.424
L154.852 494.682
L159.494 492.424
L167.797 494.682
L167.887 492.424
L180.386 490.165
L180.475 492.424
L182.796 494.682
L185.296 492.424
L189.76 494.682
L195.564 496.941
L201.724 492.424
L203.509 494.682
L206.545 494.682
L211.812 490.165
L216.366 501.459
L223.151 492.424
L229.49 492.424
L233.329 490.165
L239.043 494.682
L239.221 492.424
L245.739 496.941
L250.56 492.424
L256.006 494.682
L257.613 494.682
L261.363 492.424
L267.166 494.682
L279.665 496.941
L279.844 492.424
L284.129 490.165
L292.075 492.424
L293.147 492.424
L296.896 496.941
L301.182 494.682
L306.896 496.941
L311.181 494.682
L312.61 494.682
L320.734 492.424
L326.627 494.682
L329.662 492.424
L335.197 492.424
L344.572 494.682
L349.929 496.941
L350.196 494.682
L357.964 496.941
L358.053 499.2
L364.481 494.682
L365.196 494.682
L370.463 490.165
L381.534 496.941
L383.409 494.682
L388.408 496.941
L392.426 494.682
L403.318 494.682
L410.55 492.424
L415.817 496.941
L419.031 494.682
L421.531 496.941
L428.138 494.682
L432.602 496.941
L432.959 496.941
L433.316 499.2
L436.262 494.682
L437.691 496.941
L442.958 490.165
L443.048 492.424
L444.744 496.941
L448.315 494.682
L448.494 492.424
L450.19 496.941
L451.619 494.682
L455.1 487.906
L455.279 481.129
L455.368 492.424
L457.69 483.388
L458.761 490.165
L461.529 492.424
L462.6 487.906
L467.064 485.647
L467.332 492.424
L470.903 496.941
L484.741 494.682
L484.92 490.165
L485.099 499.2
L485.188 501.459
L485.456 483.388
L485.545 487.906
L492.152 492.424
L492.33 487.906
L492.42 476.612
L492.509 490.165
L492.598 469.835
L499.205 492.424
L499.383 485.647
L499.473 490.165
L501.258 496.941
L501.615 492.424
L505.276 490.165
L505.454 494.682
L505.454 494.682" style="fill:none;stroke:#008000;"/>
   </g>
   <g id="line2d_30">
    <path clip-path="url(#p6e9d9a485d)" d="
M81.9101 510.494
L82.0886 548.894
L82.1779 539.859
L88.4275 512.753
L92.2666 501.459
L95.6592 505.976
L97.0877 501.459
L104.587 517.271
L108.516 503.718
L114.765 508.235
L114.854 505.976
L119.765 508.235
L125.3 512.753
L136.639 512.753
L142.174 505.976
L147.888 515.012
L149.406 510.494
L154.852 503.718
L159.494 515.012
L167.797 499.2
L167.887 508.235
L180.386 508.235
L180.475 501.459
L182.796 508.235
L185.296 503.718
L189.76 503.718
L195.564 501.459
L201.724 510.494
L203.509 508.235
L206.545 515.012
L211.812 505.976
L223.151 505.976
L223.33 512.753
L229.49 508.235
L233.329 515.012
L239.043 503.718
L239.221 508.235
L245.739 503.718
L250.56 510.494
L256.006 508.235
L257.613 508.235
L261.363 501.459
L267.166 496.941
L279.665 515.012
L279.755 503.718
L279.844 512.753
L284.129 503.718
L292.075 503.718
L293.147 505.976
L296.896 503.718
L301.182 510.494
L306.896 505.976
L311.181 510.494
L312.61 512.753
L320.734 512.753
L326.627 505.976
L329.484 503.718
L329.662 494.682
L335.197 492.424
L344.572 515.012
L349.929 510.494
L350.196 505.976
L357.964 508.235
L358.053 496.941
L364.481 501.459
L365.196 505.976
L370.463 510.494
L377.784 499.2
L381.534 510.494
L383.409 503.718
L388.408 501.459
L392.426 515.012
L399.211 499.2
L402.068 505.976
L403.318 503.718
L410.55 499.2
L415.817 515.012
L419.031 508.235
L421.531 510.494
L428.138 512.753
L432.602 512.753
L432.959 505.976
L433.316 505.976
L436.262 508.235
L437.691 510.494
L439.476 512.753
L442.958 510.494
L443.048 499.2
L444.744 499.2
L448.315 510.494
L448.494 517.271
L450.19 510.494
L451.619 508.235
L455.1 508.235
L455.279 512.753
L455.368 508.235
L457.69 510.494
L458.761 501.459
L461.529 499.2
L462.6 505.976
L467.064 503.718
L467.243 501.459
L467.332 510.494
L470.903 512.753
L484.741 524.047
L484.92 508.235
L485.009 519.529
L485.188 501.459
L485.277 505.976
L485.456 524.047
L485.545 508.235
L492.152 492.424
L492.33 499.2
L492.509 510.494
L492.598 655.059
L499.205 454.024
L499.383 454.024
L499.473 517.271
L501.258 539.859
L501.615 515.012
L505.276 499.2
L505.454 505.976
L505.454 505.976" style="fill:none;stroke:#0000ff;"/>
   </g>
   <g id="matplotlib.axis_3">
    <g id="xtick_7">
     <g id="line2d_31">
      <defs>
       <path d="
M0 0
L0 -4" id="m290183fffa"/>
      </defs>
      <g>
       <use style="stroke:#000000;stroke-linecap:butt;stroke-width:0.5;" x="72.0" xlink:href="#m290183fffa" y="711.529411765"/>
      </g>
     </g>
     <g id="line2d_32">
      <defs>
       <path d="
M0 0
L0 4" id="m335a6f4a94"/>
      </defs>
      <g>
       <use style="stroke:#000000;stroke-linecap:butt;stroke-width:0.5;" x="72.0" xlink:href="#m335a6f4a94" y="440.470588235"/>
      </g>
     </g>
     <g id="text_16">
      <!-- 0 -->
      <g transform="translate(68.9765625 724.435661765)scale(0.12 -0.12)">
       <use xlink:href="#BitstreamVeraSans-Roman-30"/>
      </g>
     </g>
    </g>
    <g id="xtick_8">
     <g id="line2d_33">
      <defs>
       <path d="
M0 0
L0 -4" id="m290183fffa"/>
      </defs>
      <g>
       <use style="stroke:#000000;stroke-linecap:butt;stroke-width:0.5;" x="161.28" xlink:href="#m290183fffa" y="711.529411765"/>
      </g>
     </g>
     <g id="line2d_34">
      <defs>
       <path d="
M0 0
L0 4" id="m335a6f4a94"/>
      </defs>
      <g>
       <use style="stroke:#000000;stroke-linecap:butt;stroke-width:0.5;" x="161.28" xlink:href="#m335a6f4a94" y="440.470588235"/>
      </g>
     </g>
     <g id="text_17">
      <!-- 1 -->
      <g transform="translate(158.675625 724.278161765)scale(0.12 -0.12)">
       <use xlink:href="#BitstreamVeraSans-Roman-31"/>
      </g>
     </g>
    </g>
    <g id="xtick_9">
     <g id="line2d_35">
      <defs>
       <path d="
M0 0
L0 -4" id="m290183fffa"/>
      </defs>
      <g>
       <use style="stroke:#000000;stroke-linecap:butt;stroke-width:0.5;" x="250.56" xlink:href="#m290183fffa" y="711.529411765"/>
      </g>
     </g>
     <g id="line2d_36">
      <defs>
       <path d="
M0 0
L0 4" id="m335a6f4a94"/>
      </defs>
      <g>
       <use style="stroke:#000000;stroke-linecap:butt;stroke-width:0.5;" x="250.56" xlink:href="#m335a6f4a94" y="440.470588235"/>
      </g>
     </g>
     <g id="text_18">
      <!-- 2 -->
      <g transform="translate(247.783125 724.435661765)scale(0.12 -0.12)">
       <use xlink:href="#BitstreamVeraSans-Roman-32"/>
      </g>
     </g>
    </g>
    <g id="xtick_10">
     <g id="line2d_37">
      <defs>
       <path d="
M0 0
L0 -4" id="m290183fffa"/>
      </defs>
      <g>
       <use style="stroke:#000000;stroke-linecap:butt;stroke-width:0.5;" x="339.84" xlink:href="#m290183fffa" y="711.529411765"/>
      </g>
     </g>
     <g id="line2d_38">
      <defs>
       <path d="
M0 0
L0 4" id="m335a6f4a94"/>
      </defs>
      <g>
       <use style="stroke:#000000;stroke-linecap:butt;stroke-width:0.5;" x="339.84" xlink:href="#m335a6f4a94" y="440.470588235"/>
      </g>
     </g>
     <g id="text_19">
      <!-- 3 -->
      <g transform="translate(336.9609375 724.435661765)scale(0.12 -0.12)">
       <use xlink:href="#BitstreamVeraSans-Roman-33"/>
      </g>
     </g>
    </g>
    <g id="xtick_11">
     <g id="line2d_39">
      <defs>
       <path d="
M0 0
L0 -4" id="m290183fffa"/>
      </defs>
      <g>
       <use style="stroke:#000000;stroke-linecap:butt;stroke-width:0.5;" x="429.12" xlink:href="#m290183fffa" y="711.529411765"/>
      </g>
     </g>
     <g id="line2d_40">
      <defs>
       <path d="
M0 0
L0 4" id="m335a6f4a94"/>
      </defs>
      <g>
       <use style="stroke:#000000;stroke-linecap:butt;stroke-width:0.5;" x="429.12" xlink:href="#m335a6f4a94" y="440.470588235"/>
      </g>
     </g>
     <g id="text_20">
      <!-- 4 -->
      <g transform="translate(425.9325 724.278161765)scale(0.12 -0.12)">
       <use xlink:href="#BitstreamVeraSans-Roman-34"/>
      </g>
     </g>
    </g>
    <g id="xtick_12">
     <g id="line2d_41">
      <defs>
       <path d="
M0 0
L0 -4" id="m290183fffa"/>
      </defs>
      <g>
       <use style="stroke:#000000;stroke-linecap:butt;stroke-width:0.5;" x="518.4" xlink:href="#m290183fffa" y="711.529411765"/>
      </g>
     </g>
     <g id="line2d_42">
      <defs>
       <path d="
M0 0
L0 4" id="m335a6f4a94"/>
      </defs>
      <g>
       <use style="stroke:#000000;stroke-linecap:butt;stroke-width:0.5;" x="518.4" xlink:href="#m335a6f4a94" y="440.470588235"/>
      </g>
     </g>
     <g id="text_21">
      <!-- 5 -->
      <g transform="translate(515.5696875 724.278161765)scale(0.12 -0.12)">
       <use xlink:href="#BitstreamVeraSans-Roman-35"/>
      </g>
     </g>
    </g>
    <g id="text_22">
     <!-- time (s) -->
     <g transform="translate(272.4459375 738.724411765)scale(0.12 -0.12)">
      <use xlink:href="#BitstreamVeraSans-Roman-74"/>
      <use x="39.208984375" xlink:href="#BitstreamVeraSans-Roman-69"/>
      <use x="66.9921875" xlink:href="#BitstreamVeraSans-Roman-6d"/>
      <use x="164.404296875" xlink:href="#BitstreamVeraSans-Roman-65"/>
      <use x="225.927734375" xlink:href="#BitstreamVeraSans-Roman-20"/>
      <use x="257.71484375" xlink:href="#BitstreamVeraSans-Roman-28"/>
      <use x="296.728515625" xlink:href="#BitstreamVeraSans-Roman-73"/>
      <use x="348.828125" xlink:href="#BitstreamVeraSans-Roman-29"/>
     </g>
    </g>
   </g>
   <g id="matplotlib.axis_4">
    <g id="ytick_8">
     <g id="line2d_43">
      <defs>
       <path d="
M0 0
L4 0" id="me52992f0c3"/>
      </defs>
      <g>
       <use style="stroke:#000000;stroke-linecap:butt;stroke-width:0.5;" x="72.0" xlink:href="#me52992f0c3" y="711.529411765"/>
      </g>
     </g>
     <g id="line2d_44">
      <defs>
       <path d="
M0 0
L-4 0" id="m7bffd45116"/>
      </defs>
      <g>
       <use style="stroke:#000000;stroke-linecap:butt;stroke-width:0.5;" x="518.4" xlink:href="#m7bffd45116" y="711.529411765"/>
      </g>
     </g>
     <g id="text_23">
      <!-- −0.2 -->
      <defs>
       <path d="
M10.6875 12.4062
L21 12.4062
L21 0
L10.6875 0
z
" id="BitstreamVeraSans-Roman-2e"/>
      </defs>
      <g transform="translate(41.33375 715.897224265)scale(0.12 -0.12)">
       <use xlink:href="#BitstreamVeraSans-Roman-2212"/>
       <use x="83.7890625" xlink:href="#BitstreamVeraSans-Roman-30"/>
       <use x="147.412109375" xlink:href="#BitstreamVeraSans-Roman-2e"/>
       <use x="179.19921875" xlink:href="#BitstreamVeraSans-Roman-32"/>
      </g>
     </g>
    </g>
    <g id="ytick_9">
     <g id="line2d_45">
      <defs>
       <path d="
M0 0
L4 0" id="me52992f0c3"/>
      </defs>
      <g>
       <use style="stroke:#000000;stroke-linecap:butt;stroke-width:0.5;" x="72.0" xlink:href="#me52992f0c3" y="666.352941176"/>
      </g>
     </g>
     <g id="line2d_46">
      <defs>
       <path d="
M0 0
L-4 0" id="m7bffd45116"/>
      </defs>
      <g>
       <use style="stroke:#000000;stroke-linecap:butt;stroke-width:0.5;" x="518.4" xlink:href="#m7bffd45116" y="666.352941176"/>
      </g>
     </g>
     <g id="text_24">
      <!-- 0.0 -->
      <g transform="translate(50.504375 670.720753676)scale(0.12 -0.12)">
       <use xlink:href="#BitstreamVeraSans-Roman-30"/>
       <use x="63.623046875" xlink:href="#BitstreamVeraSans-Roman-2e"/>
       <use x="95.41015625" xlink:href="#BitstreamVeraSans-Roman-30"/>
      </g>
     </g>
    </g>
    <g id="ytick_10">
     <g id="line2d_47">
      <defs>
       <path d="
M0 0
L4 0" id="me52992f0c3"/>
      </defs>
      <g>
       <use style="stroke:#000000;stroke-linecap:butt;stroke-width:0.5;" x="72.0" xlink:href="#me52992f0c3" y="621.176470588"/>
      </g>
     </g>
     <g id="line2d_48">
      <defs>
       <path d="
M0 0
L-4 0" id="m7bffd45116"/>
      </defs>
      <g>
       <use style="stroke:#000000;stroke-linecap:butt;stroke-width:0.5;" x="518.4" xlink:href="#m7bffd45116" y="621.176470588"/>
      </g>
     </g>
     <g id="text_25">
      <!-- 0.2 -->
      <g transform="translate(50.909375 625.544283088)scale(0.12 -0.12)">
       <use xlink:href="#BitstreamVeraSans-Roman-30"/>
       <use x="63.623046875" xlink:href="#BitstreamVeraSans-Roman-2e"/>
       <use x="95.41015625" xlink:href="#BitstreamVeraSans-Roman-32"/>
      </g>
     </g>
    </g>
    <g id="ytick_11">
     <g id="line2d_49">
      <defs>
       <path d="
M0 0
L4 0" id="me52992f0c3"/>
      </defs>
      <g>
       <use style="stroke:#000000;stroke-linecap:butt;stroke-width:0.5;" x="72.0" xlink:href="#me52992f0c3" y="576.0"/>
      </g>
     </g>
     <g id="line2d_50">
      <defs>
       <path d="
M0 0
L-4 0" id="m7bffd45116"/>
      </defs>
      <g>
       <use style="stroke:#000000;stroke-linecap:butt;stroke-width:0.5;" x="518.4" xlink:href="#m7bffd45116" y="576.0"/>
      </g>
     </g>
     <g id="text_26">
      <!-- 0.4 -->
      <g transform="translate(50.380625 580.3678125)scale(0.12 -0.12)">
       <use xlink:href="#BitstreamVeraSans-Roman-30"/>
       <use x="63.623046875" xlink:href="#BitstreamVeraSans-Roman-2e"/>
       <use x="95.41015625" xlink:href="#BitstreamVeraSans-Roman-34"/>
      </g>
     </g>
    </g>
    <g id="ytick_12">
     <g id="line2d_51">
      <defs>
       <path d="
M0 0
L4 0" id="me52992f0c3"/>
      </defs>
      <g>
       <use style="stroke:#000000;stroke-linecap:butt;stroke-width:0.5;" x="72.0" xlink:href="#me52992f0c3" y="530.823529412"/>
      </g>
     </g>
     <g id="line2d_52">
      <defs>
       <path d="
M0 0
L-4 0" id="m7bffd45116"/>
      </defs>
      <g>
       <use style="stroke:#000000;stroke-linecap:butt;stroke-width:0.5;" x="518.4" xlink:href="#m7bffd45116" y="530.823529412"/>
      </g>
     </g>
     <g id="text_27">
      <!-- 0.6 -->
      <defs>
       <path d="
M33.0156 40.375
Q26.375 40.375 22.4844 35.8281
Q18.6094 31.2969 18.6094 23.3906
Q18.6094 15.5312 22.4844 10.9531
Q26.375 6.39062 33.0156 6.39062
Q39.6562 6.39062 43.5312 10.9531
Q47.4062 15.5312 47.4062 23.3906
Q47.4062 31.2969 43.5312 35.8281
Q39.6562 40.375 33.0156 40.375
M52.5938 71.2969
L52.5938 62.3125
Q48.875 64.0625 45.0938 64.9844
Q41.3125 65.9219 37.5938 65.9219
Q27.8281 65.9219 22.6719 59.3281
Q17.5312 52.7344 16.7969 39.4062
Q19.6719 43.6562 24.0156 45.9219
Q28.375 48.1875 33.5938 48.1875
Q44.5781 48.1875 50.9531 41.5156
Q57.3281 34.8594 57.3281 23.3906
Q57.3281 12.1562 50.6875 5.35938
Q44.0469 -1.42188 33.0156 -1.42188
Q20.3594 -1.42188 13.6719 8.26562
Q6.98438 17.9688 6.98438 36.375
Q6.98438 53.6562 15.1875 63.9375
Q23.3906 74.2188 37.2031 74.2188
Q40.9219 74.2188 44.7031 73.4844
Q48.4844 72.75 52.5938 71.2969" id="BitstreamVeraSans-Roman-36"/>
      </defs>
      <g transform="translate(50.463125 535.191341912)scale(0.12 -0.12)">
       <use xlink:href="#BitstreamVeraSans-Roman-30"/>
       <use x="63.623046875" xlink:href="#BitstreamVeraSans-Roman-2e"/>
       <use x="95.41015625" xlink:href="#BitstreamVeraSans-Roman-36"/>
      </g>
     </g>
    </g>
    <g id="ytick_13">
     <g id="line2d_53">
      <defs>
       <path d="
M0 0
L4 0" id="me52992f0c3"/>
      </defs>
      <g>
       <use style="stroke:#000000;stroke-linecap:butt;stroke-width:0.5;" x="72.0" xlink:href="#me52992f0c3" y="485.647058824"/>
      </g>
     </g>
     <g id="line2d_54">
      <defs>
       <path d="
M0 0
L-4 0" id="m7bffd45116"/>
      </defs>
      <g>
       <use style="stroke:#000000;stroke-linecap:butt;stroke-width:0.5;" x="518.4" xlink:href="#m7bffd45116" y="485.647058824"/>
      </g>
     </g>
     <g id="text_28">
      <!-- 0.8 -->
      <defs>
       <path d="
M31.7812 34.625
Q24.75 34.625 20.7188 30.8594
Q16.7031 27.0938 16.7031 20.5156
Q16.7031 13.9219 20.7188 10.1562
Q24.75 6.39062 31.7812 6.39062
Q38.8125 6.39062 42.8594 10.1719
Q46.9219 13.9688 46.9219 20.5156
Q46.9219 27.0938 42.8906 30.8594
Q38.875 34.625 31.7812 34.625
M21.9219 38.8125
Q15.5781 40.375 12.0312 44.7188
Q8.5 49.0781 8.5 55.3281
Q8.5 64.0625 14.7188 69.1406
Q20.9531 74.2188 31.7812 74.2188
Q42.6719 74.2188 48.875 69.1406
Q55.0781 64.0625 55.0781 55.3281
Q55.0781 49.0781 51.5312 44.7188
Q48 40.375 41.7031 38.8125
Q48.8281 37.1562 52.7969 32.3125
Q56.7812 27.4844 56.7812 20.5156
Q56.7812 9.90625 50.3125 4.23438
Q43.8438 -1.42188 31.7812 -1.42188
Q19.7344 -1.42188 13.25 4.23438
Q6.78125 9.90625 6.78125 20.5156
Q6.78125 27.4844 10.7812 32.3125
Q14.7969 37.1562 21.9219 38.8125
M18.3125 54.3906
Q18.3125 48.7344 21.8438 45.5625
Q25.3906 42.3906 31.7812 42.3906
Q38.1406 42.3906 41.7188 45.5625
Q45.3125 48.7344 45.3125 54.3906
Q45.3125 60.0625 41.7188 63.2344
Q38.1406 66.4062 31.7812 66.4062
Q25.3906 66.4062 21.8438 63.2344
Q18.3125 60.0625 18.3125 54.3906" id="BitstreamVeraSans-Roman-38"/>
      </defs>
      <g transform="translate(50.52875 490.014871324)scale(0.12 -0.12)">
       <use xlink:href="#BitstreamVeraSans-Roman-30"/>
       <use x="63.623046875" xlink:href="#BitstreamVeraSans-Roman-2e"/>
       <use x="95.41015625" xlink:href="#BitstreamVeraSans-Roman-38"/>
      </g>
     </g>
    </g>
    <g id="ytick_14">
     <g id="line2d_55">
      <defs>
       <path d="
M0 0
L4 0" id="me52992f0c3"/>
      </defs>
      <g>
       <use style="stroke:#000000;stroke-linecap:butt;stroke-width:0.5;" x="72.0" xlink:href="#me52992f0c3" y="440.470588235"/>
      </g>
     </g>
     <g id="line2d_56">
      <defs>
       <path d="
M0 0
L-4 0" id="m7bffd45116"/>
      </defs>
      <g>
       <use style="stroke:#000000;stroke-linecap:butt;stroke-width:0.5;" x="518.4" xlink:href="#m7bffd45116" y="440.470588235"/>
      </g>
     </g>
     <g id="text_29">
      <!-- 1.0 -->
      <g transform="translate(51.03125 444.838400735)scale(0.12 -0.12)">
       <use xlink:href="#BitstreamVeraSans-Roman-31"/>
       <use x="63.623046875" xlink:href="#BitstreamVeraSans-Roman-2e"/>
       <use x="95.41015625" xlink:href="#BitstreamVeraSans-Roman-30"/>
      </g>
     </g>
    </g>
    <g id="text_30">
     <!-- Acceleration (g) -->
     <g transform="translate(36.33375 620.6709375)rotate(-90.0)scale(0.12 -0.12)">
      <use xlink:href="#BitstreamVeraSans-Roman-41"/>
      <use x="66.658203125" xlink:href="#BitstreamVeraSans-Roman-63"/>
      <use x="121.638671875" xlink:href="#BitstreamVeraSans-Roman-63"/>
      <use x="176.619140625" xlink:href="#BitstreamVeraSans-Roman-65"/>
      <use x="238.142578125" xlink:href="#BitstreamVeraSans-Roman-6c"/>
      <use x="265.92578125" xlink:href="#BitstreamVeraSans-Roman-65"/>
      <use x="327.44921875" xlink:href="#BitstreamVeraSans-Roman-72"/>
      <use x="368.5625" xlink:href="#BitstreamVeraSans-Roman-61"/>
      <use x="429.841796875" xlink:href="#BitstreamVeraSans-Roman-74"/>
      <use x="469.05078125" xlink:href="#BitstreamVeraSans-Roman-69"/>
      <use x="496.833984375" xlink:href="#BitstreamVeraSans-Roman-6f"/>
      <use x="558.015625" xlink:href="#BitstreamVeraSans-Roman-6e"/>
      <use x="621.39453125" xlink:href="#BitstreamVeraSans-Roman-20"/>
      <use x="653.181640625" xlink:href="#BitstreamVeraSans-Roman-28"/>
      <use x="692.1953125" xlink:href="#BitstreamVeraSans-Roman-67"/>
      <use x="755.671875" xlink:href="#BitstreamVeraSans-Roman-29"/>
     </g>
    </g>
   </g>
   <g id="patch_8">
    <path d="
M72 440.471
L518.4 440.471" style="fill:none;stroke:#000000;"/>
   </g>
   <g id="patch_9">
    <path d="
M518.4 711.529
L518.4 440.471" style="fill:none;stroke:#000000;"/>
   </g>
   <g id="patch_10">
    <path d="
M72 711.529
L518.4 711.529" style="fill:none;stroke:#000000;"/>
   </g>
   <g id="patch_11">
    <path d="
M72 711.529
L72 440.471" style="fill:none;stroke:#000000;"/>
   </g>
   <g id="legend_1">
    <g id="patch_12">
     <path d="
M451.697 512.405
L511.2 512.405
L511.2 447.671
L451.697 447.671
L451.697 512.405
z
" style="fill:#ffffff;stroke:#000000;"/>
    </g>
    <g id="line2d_57">
     <path d="
M461.776 459.332
L481.937 459.332" style="fill:none;stroke:#ff0000;"/>
    </g>
    <g id="line2d_58"/>
    <g id="text_31">
     <!-- x -->
     <defs>
      <path d="
M54.8906 54.6875
L35.1094 28.0781
L55.9062 0
L45.3125 0
L29.3906 21.4844
L13.4844 0
L2.875 0
L24.125 28.6094
L4.6875 54.6875
L15.2812 54.6875
L29.7812 35.2031
L44.2812 54.6875
z
" id="BitstreamVeraSans-Roman-78"/>
     </defs>
     <g transform="translate(497.7765 464.372338235)scale(0.144 -0.144)">
      <use xlink:href="#BitstreamVeraSans-Roman-78"/>
     </g>
    </g>
    <g id="line2d_59">
     <path d="
M461.776 480.469
L481.937 480.469" style="fill:none;stroke:#008000;"/>
    </g>
    <g id="line2d_60"/>
    <g id="text_32">
     <!-- y -->
     <defs>
      <path d="
M32.1719 -5.07812
Q28.375 -14.8438 24.75 -17.8125
Q21.1406 -20.7969 15.0938 -20.7969
L7.90625 -20.7969
L7.90625 -13.2812
L13.1875 -13.2812
Q16.8906 -13.2812 18.9375 -11.5156
Q21 -9.76562 23.4844 -3.21875
L25.0938 0.875
L2.98438 54.6875
L12.5 54.6875
L29.5938 11.9219
L46.6875 54.6875
L56.2031 54.6875
z
" id="BitstreamVeraSans-Roman-79"/>
     </defs>
     <g transform="translate(497.7765 485.508838235)scale(0.144 -0.144)">
      <use xlink:href="#BitstreamVeraSans-Roman-79"/>
     </g>
    </g>
    <g id="line2d_61">
     <path d="
M461.776 501.605
L481.937 501.605" style="fill:none;stroke:#0000ff;"/>
    </g>
    <g id="line2d_62"/>
    <g id="text_33">
     <!-- z -->
     <defs>
      <path d="
M5.51562 54.6875
L48.1875 54.6875
L48.1875 46.4844
L14.4062 7.17188
L48.1875 7.17188
L48.1875 0
L4.29688 0
L4.29688 8.20312
L38.0938 47.5156
L5.51562 47.5156
z
" id="BitstreamVeraSans-Roman-7a"/>
     </defs>
     <g transform="translate(497.7765 506.645338235)scale(0.144 -0.144)">
      <use xlink:href="#BitstreamVeraSans-Roman-7a"/>
     </g>
    </g>
   </g>
  </g>
  <g id="axes_3">
   <g id="patch_13">
    <path d="
M72 1036.8
L518.4 1036.8
L518.4 765.741
L72 765.741
z
" style="fill:#ffffff;"/>
   </g>
   <g id="line2d_63">
    <path clip-path="url(#pb730e8a3da)" d="
M81.9101 998.4
L82.0886 980.329
L82.1779 973.553
L88.4275 973.553
L92.2666 978.071
L95.6592 978.071
L97.0877 980.329
L104.587 987.106
L108.516 980.329
L114.765 984.847
L114.854 987.106
L119.765 980.329
L125.3 984.847
L131.282 984.847
L136.639 982.588
L142.174 982.588
L147.888 975.812
L149.406 980.329
L154.852 993.882
L159.494 984.847
L167.797 991.624
L167.887 987.106
L180.386 987.106
L180.475 991.624
L182.796 989.365
L189.76 989.365
L195.564 991.624
L201.724 982.588
L203.509 989.365
L206.545 993.882
L211.812 984.847
L216.366 1000.66
L223.151 991.624
L223.33 989.365
L229.49 998.4
L233.329 989.365
L239.043 996.141
L239.221 993.882
L245.739 989.365
L250.56 989.365
L256.006 993.882
L257.613 991.624
L279.755 991.624
L279.844 993.882
L284.129 989.365
L292.075 982.588
L293.147 989.365
L296.896 993.882
L301.182 987.106
L306.896 989.365
L311.181 991.624
L312.61 996.141
L320.734 982.588
L326.627 982.588
L329.484 987.106
L329.662 993.882
L335.197 984.847
L344.572 982.588
L349.929 991.624
L350.196 987.106
L358.053 989.365
L364.481 984.847
L365.196 987.106
L370.463 982.588
L377.784 987.106
L381.534 987.106
L383.409 984.847
L388.408 982.588
L392.426 980.329
L399.211 982.588
L402.068 984.847
L403.318 993.882
L410.55 982.588
L415.817 991.624
L419.031 989.365
L421.531 996.141
L432.602 984.847
L433.316 984.847
L436.262 987.106
L437.691 991.624
L439.476 989.365
L442.958 978.071
L443.048 980.329
L444.744 978.071
L448.315 980.329
L448.494 987.106
L450.19 989.365
L451.619 989.365
L455.1 975.812
L455.279 973.553
L455.368 982.588
L457.69 978.071
L458.761 978.071
L461.529 987.106
L462.6 984.847
L467.064 975.812
L467.243 978.071
L467.332 987.106
L470.814 989.365
L470.903 987.106
L484.741 980.329
L484.92 982.588
L485.009 980.329
L485.188 1000.66
L485.456 964.518
L485.545 978.071
L492.152 987.106
L492.33 980.329
L492.42 964.518
L492.509 980.329
L492.598 932.894
L499.205 982.588
L499.383 982.588
L499.473 978.071
L501.258 982.588
L501.615 984.847
L505.276 982.588
L505.454 980.329
L505.454 980.329" style="fill:none;stroke:#ff0000;"/>
   </g>
   <g id="line2d_64">
    <path clip-path="url(#pb730e8a3da)" d="
M81.9101 815.435
L82.0886 810.918
L82.1779 810.918
L88.4275 806.4
L92.2666 810.918
L95.6592 810.918
L97.0877 815.435
L104.587 815.435
L108.516 813.176
L114.765 817.694
L114.854 822.212
L119.765 817.694
L125.3 817.694
L131.193 813.176
L131.282 817.694
L136.639 815.435
L142.174 819.953
L147.888 815.435
L149.406 817.694
L154.852 819.953
L159.494 817.694
L167.797 819.953
L167.887 817.694
L180.386 815.435
L180.475 817.694
L182.796 819.953
L185.296 817.694
L189.76 819.953
L195.564 822.212
L201.724 817.694
L203.509 819.953
L206.545 819.953
L211.812 815.435
L216.366 826.729
L223.151 817.694
L229.49 817.694
L233.329 815.435
L239.043 819.953
L239.221 817.694
L245.739 822.212
L250.56 817.694
L256.006 819.953
L257.613 819.953
L261.363 817.694
L267.166 819.953
L279.665 822.212
L279.844 817.694
L284.129 815.435
L292.075 817.694
L293.147 817.694
L296.896 822.212
L301.182 819.953
L306.896 822.212
L311.181 819.953
L312.61 819.953
L320.734 817.694
L326.627 819.953
L329.662 817.694
L335.197 817.694
L344.572 819.953
L349.929 822.212
L350.196 819.953
L357.964 822.212
L358.053 824.471
L364.481 819.953
L365.196 819.953
L370.463 815.435
L381.534 822.212
L383.409 819.953
L388.408 822.212
L392.426 819.953
L403.318 819.953
L410.55 817.694
L415.817 822.212
L419.031 819.953
L421.531 822.212
L428.138 819.953
L432.602 822.212
L432.959 822.212
L433.316 824.471
L436.262 819.953
L437.691 822.212
L442.958 815.435
L443.048 817.694
L444.744 822.212
L448.315 819.953
L448.494 817.694
L450.19 822.212
L451.619 819.953
L455.1 813.176
L455.279 806.4
L455.368 817.694
L457.69 808.659
L458.761 815.435
L461.529 817.694
L462.6 813.176
L467.064 810.918
L467.332 817.694
L470.903 822.212
L484.741 819.953
L484.92 815.435
L485.099 824.471
L485.188 826.729
L485.456 808.659
L485.545 813.176
L492.152 817.694
L492.33 813.176
L492.42 801.882
L492.509 815.435
L492.598 795.106
L499.205 817.694
L499.383 810.918
L499.473 815.435
L501.258 822.212
L501.615 817.694
L505.276 815.435
L505.454 819.953
L505.454 819.953" style="fill:none;stroke:#008000;"/>
   </g>
   <g id="line2d_65">
    <path clip-path="url(#pb730e8a3da)" d="
M81.9101 835.765
L82.0886 874.165
L82.1779 865.129
L88.4275 838.024
L92.2666 826.729
L95.6592 831.247
L97.0877 826.729
L104.587 842.541
L108.516 828.988
L114.765 833.506
L114.854 831.247
L119.765 833.506
L125.3 838.024
L136.639 838.024
L142.174 831.247
L147.888 840.282
L149.406 835.765
L154.852 828.988
L159.494 840.282
L167.797 824.471
L167.887 833.506
L180.386 833.506
L180.475 826.729
L182.796 833.506
L185.296 828.988
L189.76 828.988
L195.564 826.729
L201.724 835.765
L203.509 833.506
L206.545 840.282
L211.812 831.247
L223.151 831.247
L223.33 838.024
L229.49 833.506
L233.329 840.282
L239.043 828.988
L239.221 833.506
L245.739 828.988
L250.56 835.765
L256.006 833.506
L257.613 833.506
L261.363 826.729
L267.166 822.212
L279.665 840.282
L279.755 828.988
L279.844 838.024
L284.129 828.988
L292.075 828.988
L293.147 831.247
L296.896 828.988
L301.182 835.765
L306.896 831.247
L311.181 835.765
L312.61 838.024
L320.734 838.024
L326.627 831.247
L329.484 828.988
L329.662 819.953
L335.197 817.694
L344.572 840.282
L349.929 835.765
L350.196 831.247
L357.964 833.506
L358.053 822.212
L364.481 826.729
L365.196 831.247
L370.463 835.765
L377.784 824.471
L381.534 835.765
L383.409 828.988
L388.408 826.729
L392.426 840.282
L399.211 824.471
L402.068 831.247
L403.318 828.988
L410.55 824.471
L415.817 840.282
L419.031 833.506
L421.531 835.765
L428.138 838.024
L432.602 838.024
L432.959 831.247
L433.316 831.247
L436.262 833.506
L437.691 835.765
L439.476 838.024
L442.958 835.765
L443.048 824.471
L444.744 824.471
L448.315 835.765
L448.494 842.541
L450.19 835.765
L451.619 833.506
L455.1 833.506
L455.279 838.024
L455.368 833.506
L457.69 835.765
L458.761 826.729
L461.529 824.471
L462.6 831.247
L467.064 828.988
L467.243 826.729
L467.332 835.765
L470.903 838.024
L484.741 849.318
L484.92 833.506
L485.009 844.8
L485.188 826.729
L485.277 831.247
L485.456 849.318
L485.545 833.506
L492.152 817.694
L492.33 824.471
L492.509 835.765
L492.598 980.329
L499.205 779.294
L499.383 779.294
L499.473 842.541
L501.258 865.129
L501.615 840.282
L505.276 824.471
L505.454 831.247
L505.454 831.247" style="fill:none;stroke:#0000ff;"/>
   </g>
   <g id="matplotlib.axis_5">
    <g id="xtick_13">
     <g id="line2d_66">
      <defs>
       <path d="
M0 0
L0 -4" id="m290183fffa"/>
      </defs>
      <g>
       <use style="stroke:#000000;stroke-linecap:butt;stroke-width:0.5;" x="72.0" xlink:href="#m290183fffa" y="1036.8"/>
      </g>
     </g>
     <g id="line2d_67">
      <defs>
       <path d="
M0 0
L0 4" id="m335a6f4a94"/>
      </defs>
      <g>
       <use style="stroke:#000000;stroke-linecap:butt;stroke-width:0.5;" x="72.0" xlink:href="#m335a6f4a94" y="765.741176471"/>
      </g>
     </g>
     <g id="text_34">
      <!-- 0 -->
      <g transform="translate(68.9765625 1049.70625)scale(0.12 -0.12)">
       <use xlink:href="#BitstreamVeraSans-Roman-30"/>
      </g>
     </g>
    </g>
    <g id="xtick_14">
     <g id="line2d_68">
      <defs>
       <path d="
M0 0
L0 -4" id="m290183fffa"/>
      </defs>
      <g>
       <use style="stroke:#000000;stroke-linecap:butt;stroke-width:0.5;" x="161.28" xlink:href="#m290183fffa" y="1036.8"/>
      </g>
     </g>
     <g id="line2d_69">
      <defs>
       <path d="
M0 0
L0 4" id="m335a6f4a94"/>
      </defs>
      <g>
       <use style="stroke:#000000;stroke-linecap:butt;stroke-width:0.5;" x="161.28" xlink:href="#m335a6f4a94" y="765.741176471"/>
      </g>
     </g>
     <g id="text_35">
      <!-- 1 -->
      <g transform="translate(158.675625 1049.54875)scale(0.12 -0.12)">
       <use xlink:href="#BitstreamVeraSans-Roman-31"/>
      </g>
     </g>
    </g>
    <g id="xtick_15">
     <g id="line2d_70">
      <defs>
       <path d="
M0 0
L0 -4" id="m290183fffa"/>
      </defs>
      <g>
       <use style="stroke:#000000;stroke-linecap:butt;stroke-width:0.5;" x="250.56" xlink:href="#m290183fffa" y="1036.8"/>
      </g>
     </g>
     <g id="line2d_71">
      <defs>
       <path d="
M0 0
L0 4" id="m335a6f4a94"/>
      </defs>
      <g>
       <use style="stroke:#000000;stroke-linecap:butt;stroke-width:0.5;" x="250.56" xlink:href="#m335a6f4a94" y="765.741176471"/>
      </g>
     </g>
     <g id="text_36">
      <!-- 2 -->
      <g transform="translate(247.783125 1049.70625)scale(0.12 -0.12)">
       <use xlink:href="#BitstreamVeraSans-Roman-32"/>
      </g>
     </g>
    </g>
    <g id="xtick_16">
     <g id="line2d_72">
      <defs>
       <path d="
M0 0
L0 -4" id="m290183fffa"/>
      </defs>
      <g>
       <use style="stroke:#000000;stroke-linecap:butt;stroke-width:0.5;" x="339.84" xlink:href="#m290183fffa" y="1036.8"/>
      </g>
     </g>
     <g id="line2d_73">
      <defs>
       <path d="
M0 0
L0 4" id="m335a6f4a94"/>
      </defs>
      <g>
       <use style="stroke:#000000;stroke-linecap:butt;stroke-width:0.5;" x="339.84" xlink:href="#m335a6f4a94" y="765.741176471"/>
      </g>
     </g>
     <g id="text_37">
      <!-- 3 -->
      <g transform="translate(336.9609375 1049.70625)scale(0.12 -0.12)">
       <use xlink:href="#BitstreamVeraSans-Roman-33"/>
      </g>
     </g>
    </g>
    <g id="xtick_17">
     <g id="line2d_74">
      <defs>
       <path d="
M0 0
L0 -4" id="m290183fffa"/>
      </defs>
      <g>
       <use style="stroke:#000000;stroke-linecap:butt;stroke-width:0.5;" x="429.12" xlink:href="#m290183fffa" y="1036.8"/>
      </g>
     </g>
     <g id="line2d_75">
      <defs>
       <path d="
M0 0
L0 4" id="m335a6f4a94"/>
      </defs>
      <g>
       <use style="stroke:#000000;stroke-linecap:butt;stroke-width:0.5;" x="429.12" xlink:href="#m335a6f4a94" y="765.741176471"/>
      </g>
     </g>
     <g id="text_38">
      <!-- 4 -->
      <g transform="translate(425.9325 1049.54875)scale(0.12 -0.12)">
       <use xlink:href="#BitstreamVeraSans-Roman-34"/>
      </g>
     </g>
    </g>
    <g id="xtick_18">
     <g id="line2d_76">
      <defs>
       <path d="
M0 0
L0 -4" id="m290183fffa"/>
      </defs>
      <g>
       <use style="stroke:#000000;stroke-linecap:butt;stroke-width:0.5;" x="518.4" xlink:href="#m290183fffa" y="1036.8"/>
      </g>
     </g>
     <g id="line2d_77">
      <defs>
       <path d="
M0 0
L0 4" id="m335a6f4a94"/>
      </defs>
      <g>
       <use style="stroke:#000000;stroke-linecap:butt;stroke-width:0.5;" x="518.4" xlink:href="#m335a6f4a94" y="765.741176471"/>
      </g>
     </g>
     <g id="text_39">
      <!-- 5 -->
      <g transform="translate(515.5696875 1049.54875)scale(0.12 -0.12)">
       <use xlink:href="#BitstreamVeraSans-Roman-35"/>
      </g>
     </g>
    </g>
    <g id="text_40">
     <!-- time (s) -->
     <g transform="translate(272.4459375 1063.995)scale(0.12 -0.12)">
      <use xlink:href="#BitstreamVeraSans-Roman-74"/>
      <use x="39.208984375" xlink:href="#BitstreamVeraSans-Roman-69"/>
      <use x="66.9921875" xlink:href="#BitstreamVeraSans-Roman-6d"/>
      <use x="164.404296875" xlink:href="#BitstreamVeraSans-Roman-65"/>
      <use x="225.927734375" xlink:href="#BitstreamVeraSans-Roman-20"/>
      <use x="257.71484375" xlink:href="#BitstreamVeraSans-Roman-28"/>
      <use x="296.728515625" xlink:href="#BitstreamVeraSans-Roman-73"/>
      <use x="348.828125" xlink:href="#BitstreamVeraSans-Roman-29"/>
     </g>
    </g>
   </g>
   <g id="matplotlib.axis_6">
    <g id="ytick_15">
     <g id="line2d_78">
      <defs>
       <path d="
M0 0
L4 0" id="me52992f0c3"/>
      </defs>
      <g>
       <use style="stroke:#000000;stroke-linecap:butt;stroke-width:0.5;" x="72.0" xlink:href="#me52992f0c3" y="1036.8"/>
      </g>
     </g>
     <g id="line2d_79">
      <defs>
       <path d="
M0 0
L-4 0" id="m7bffd45116"/>
      </defs>
      <g>
       <use style="stroke:#000000;stroke-linecap:butt;stroke-width:0.5;" x="518.4" xlink:href="#m7bffd45116" y="1036.8"/>
      </g>
     </g>
     <g id="text_41">
      <!-- −0.2 -->
      <g transform="translate(41.33375 1041.1678125)scale(0.12 -0.12)">
       <use xlink:href="#BitstreamVeraSans-Roman-2212"/>
       <use x="83.7890625" xlink:href="#BitstreamVeraSans-Roman-30"/>
       <use x="147.412109375" xlink:href="#BitstreamVeraSans-Roman-2e"/>
       <use x="179.19921875" xlink:href="#BitstreamVeraSans-Roman-32"/>
      </g>
     </g>
    </g>
    <g id="ytick_16">
     <g id="line2d_80">
      <defs>
       <path d="
M0 0
L4 0" id="me52992f0c3"/>
      </defs>
      <g>
       <use style="stroke:#000000;stroke-linecap:butt;stroke-width:0.5;" x="72.0" xlink:href="#me52992f0c3" y="991.623529412"/>
      </g>
     </g>
     <g id="line2d_81">
      <defs>
       <path d="
M0 0
L-4 0" id="m7bffd45116"/>
      </defs>
      <g>
       <use style="stroke:#000000;stroke-linecap:butt;stroke-width:0.5;" x="518.4" xlink:href="#m7bffd45116" y="991.623529412"/>
      </g>
     </g>
     <g id="text_42">
      <!-- 0.0 -->
      <g transform="translate(50.504375 995.991341912)scale(0.12 -0.12)">
       <use xlink:href="#BitstreamVeraSans-Roman-30"/>
       <use x="63.623046875" xlink:href="#BitstreamVeraSans-Roman-2e"/>
       <use x="95.41015625" xlink:href="#BitstreamVeraSans-Roman-30"/>
      </g>
     </g>
    </g>
    <g id="ytick_17">
     <g id="line2d_82">
      <defs>
       <path d="
M0 0
L4 0" id="me52992f0c3"/>
      </defs>
      <g>
       <use style="stroke:#000000;stroke-linecap:butt;stroke-width:0.5;" x="72.0" xlink:href="#me52992f0c3" y="946.447058824"/>
      </g>
     </g>
     <g id="line2d_83">
      <defs>
       <path d="
M0 0
L-4 0" id="m7bffd45116"/>
      </defs>
      <g>
       <use style="stroke:#000000;stroke-linecap:butt;stroke-width:0.5;" x="518.4" xlink:href="#m7bffd45116" y="946.447058824"/>
      </g>
     </g>
     <g id="text_43">
      <!-- 0.2 -->
      <g transform="translate(50.909375 950.814871324)scale(0.12 -0.12)">
       <use xlink:href="#BitstreamVeraSans-Roman-30"/>
       <use x="63.623046875" xlink:href="#BitstreamVeraSans-Roman-2e"/>
       <use x="95.41015625" xlink:href="#BitstreamVeraSans-Roman-32"/>
      </g>
     </g>
    </g>
    <g id="ytick_18">
     <g id="line2d_84">
      <defs>
       <path d="
M0 0
L4 0" id="me52992f0c3"/>
      </defs>
      <g>
       <use style="stroke:#000000;stroke-linecap:butt;stroke-width:0.5;" x="72.0" xlink:href="#me52992f0c3" y="901.270588235"/>
      </g>
     </g>
     <g id="line2d_85">
      <defs>
       <path d="
M0 0
L-4 0" id="m7bffd45116"/>
      </defs>
      <g>
       <use style="stroke:#000000;stroke-linecap:butt;stroke-width:0.5;" x="518.4" xlink:href="#m7bffd45116" y="901.270588235"/>
      </g>
     </g>
     <g id="text_44">
      <!-- 0.4 -->
      <g transform="translate(50.380625 905.638400735)scale(0.12 -0.12)">
       <use xlink:href="#BitstreamVeraSans-Roman-30"/>
       <use x="63.623046875" xlink:href="#BitstreamVeraSans-Roman-2e"/>
       <use x="95.41015625" xlink:href="#BitstreamVeraSans-Roman-34"/>
      </g>
     </g>
    </g>
    <g id="ytick_19">
     <g id="line2d_86">
      <defs>
       <path d="
M0 0
L4 0" id="me52992f0c3"/>
      </defs>
      <g>
       <use style="stroke:#000000;stroke-linecap:butt;stroke-width:0.5;" x="72.0" xlink:href="#me52992f0c3" y="856.094117647"/>
      </g>
     </g>
     <g id="line2d_87">
      <defs>
       <path d="
M0 0
L-4 0" id="m7bffd45116"/>
      </defs>
      <g>
       <use style="stroke:#000000;stroke-linecap:butt;stroke-width:0.5;" x="518.4" xlink:href="#m7bffd45116" y="856.094117647"/>
      </g>
     </g>
     <g id="text_45">
      <!-- 0.6 -->
      <g transform="translate(50.463125 860.461930147)scale(0.12 -0.12)">
       <use xlink:href="#BitstreamVeraSans-Roman-30"/>
       <use x="63.623046875" xlink:href="#BitstreamVeraSans-Roman-2e"/>
       <use x="95.41015625" xlink:href="#BitstreamVeraSans-Roman-36"/>
      </g>
     </g>
    </g>
    <g id="ytick_20">
     <g id="line2d_88">
      <defs>
       <path d="
M0 0
L4 0" id="me52992f0c3"/>
      </defs>
      <g>
       <use style="stroke:#000000;stroke-linecap:butt;stroke-width:0.5;" x="72.0" xlink:href="#me52992f0c3" y="810.917647059"/>
      </g>
     </g>
     <g id="line2d_89">
      <defs>
       <path d="
M0 0
L-4 0" id="m7bffd45116"/>
      </defs>
      <g>
       <use style="stroke:#000000;stroke-linecap:butt;stroke-width:0.5;" x="518.4" xlink:href="#m7bffd45116" y="810.917647059"/>
      </g>
     </g>
     <g id="text_46">
      <!-- 0.8 -->
      <g transform="translate(50.52875 815.285459559)scale(0.12 -0.12)">
       <use xlink:href="#BitstreamVeraSans-Roman-30"/>
       <use x="63.623046875" xlink:href="#BitstreamVeraSans-Roman-2e"/>
       <use x="95.41015625" xlink:href="#BitstreamVeraSans-Roman-38"/>
      </g>
     </g>
    </g>
    <g id="ytick_21">
     <g id="line2d_90">
      <defs>
       <path d="
M0 0
L4 0" id="me52992f0c3"/>
      </defs>
      <g>
       <use style="stroke:#000000;stroke-linecap:butt;stroke-width:0.5;" x="72.0" xlink:href="#me52992f0c3" y="765.741176471"/>
      </g>
     </g>
     <g id="line2d_91">
      <defs>
       <path d="
M0 0
L-4 0" id="m7bffd45116"/>
      </defs>
      <g>
       <use style="stroke:#000000;stroke-linecap:butt;stroke-width:0.5;" x="518.4" xlink:href="#m7bffd45116" y="765.741176471"/>
      </g>
     </g>
     <g id="text_47">
      <!-- 1.0 -->
      <g transform="translate(51.03125 770.108988971)scale(0.12 -0.12)">
       <use xlink:href="#BitstreamVeraSans-Roman-31"/>
       <use x="63.623046875" xlink:href="#BitstreamVeraSans-Roman-2e"/>
       <use x="95.41015625" xlink:href="#BitstreamVeraSans-Roman-30"/>
      </g>
     </g>
    </g>
    <g id="text_48">
     <!-- Acceleration (g) -->
     <g transform="translate(36.33375 945.941525735)rotate(-90.0)scale(0.12 -0.12)">
      <use xlink:href="#BitstreamVeraSans-Roman-41"/>
      <use x="66.658203125" xlink:href="#BitstreamVeraSans-Roman-63"/>
      <use x="121.638671875" xlink:href="#BitstreamVeraSans-Roman-63"/>
      <use x="176.619140625" xlink:href="#BitstreamVeraSans-Roman-65"/>
      <use x="238.142578125" xlink:href="#BitstreamVeraSans-Roman-6c"/>
      <use x="265.92578125" xlink:href="#BitstreamVeraSans-Roman-65"/>
      <use x="327.44921875" xlink:href="#BitstreamVeraSans-Roman-72"/>
      <use x="368.5625" xlink:href="#BitstreamVeraSans-Roman-61"/>
      <use x="429.841796875" xlink:href="#BitstreamVeraSans-Roman-74"/>
      <use x="469.05078125" xlink:href="#BitstreamVeraSans-Roman-69"/>
      <use x="496.833984375" xlink:href="#BitstreamVeraSans-Roman-6f"/>
      <use x="558.015625" xlink:href="#BitstreamVeraSans-Roman-6e"/>
      <use x="621.39453125" xlink:href="#BitstreamVeraSans-Roman-20"/>
      <use x="653.181640625" xlink:href="#BitstreamVeraSans-Roman-28"/>
      <use x="692.1953125" xlink:href="#BitstreamVeraSans-Roman-67"/>
      <use x="755.671875" xlink:href="#BitstreamVeraSans-Roman-29"/>
     </g>
    </g>
   </g>
   <g id="patch_14">
    <path d="
M72 765.741
L518.4 765.741" style="fill:none;stroke:#000000;"/>
   </g>
   <g id="patch_15">
    <path d="
M518.4 1036.8
L518.4 765.741" style="fill:none;stroke:#000000;"/>
   </g>
   <g id="patch_16">
    <path d="
M72 1036.8
L518.4 1036.8" style="fill:none;stroke:#000000;"/>
   </g>
   <g id="patch_17">
    <path d="
M72 1036.8
L72 765.741" style="fill:none;stroke:#000000;"/>
   </g>
   <g id="legend_2">
    <g id="patch_18">
     <path d="
M451.697 837.676
L511.2 837.676
L511.2 772.941
L451.697 772.941
L451.697 837.676
z
" style="fill:#ffffff;stroke:#000000;"/>
    </g>
    <g id="line2d_92">
     <path d="
M461.776 784.603
L481.937 784.603" style="fill:none;stroke:#ff0000;"/>
    </g>
    <g id="line2d_93"/>
    <g id="text_49">
     <!-- x -->
     <g transform="translate(497.7765 789.642926471)scale(0.144 -0.144)">
      <use xlink:href="#BitstreamVeraSans-Roman-78"/>
     </g>
    </g>
    <g id="line2d_94">
     <path d="
M461.776 805.739
L481.937 805.739" style="fill:none;stroke:#008000;"/>
    </g>
    <g id="line2d_95"/>
    <g id="text_50">
     <!-- y -->
     <g transform="translate(497.7765 810.779426471)scale(0.144 -0.144)">
      <use xlink:href="#BitstreamVeraSans-Roman-79"/>
     </g>
    </g>
    <g id="line2d_96">
     <path d="
M461.776 826.876
L481.937 826.876" style="fill:none;stroke:#0000ff;"/>
    </g>
    <g id="line2d_97"/>
    <g id="text_51">
     <!-- z -->
     <g transform="translate(497.7765 831.915926471)scale(0.144 -0.144)">
      <use xlink:href="#BitstreamVeraSans-Roman-7a"/>
     </g>
    </g>
   </g>
  </g>
 </g>
 <defs>
  <clipPath id="pffa19bfe6e">
   <rect height="271.058823529" width="446.4" x="72.0" y="115.2"/>
  </clipPath>
  <clipPath id="p6e9d9a485d">
   <rect height="271.058823529" width="446.4" x="72.0" y="440.470588235"/>
  </clipPath>
  <clipPath id="pb730e8a3da">
   <rect height="271.058823529" width="446.4" x="72.0" y="765.741176471"/>
  </clipPath>
 </defs>
</svg>
